<svg id="Layer_1" data-name="Layer 1" xmlns="http://www.w3.org/2000/svg" viewBox="0 0 100 100"><defs><style>.cls-1{fill:#fbb62b;}.cls-2{fill:none;stroke:#fff;stroke-miterlimit:10;stroke-width:4px;}</style></defs><title>email</title><path class="cls-1" d="M76.08,92.1h-48a16,16,0,0,1-16-16V28a16,16,0,0,1,16-16h48a16,16,0,0,1,16,16V76A16.07,16.07,0,0,1,76.08,92.1Z"/><path class="cls-2" d="M21.89,38.27l30.4,19.39,30.5-17.15s1.52-10.61-5.4-10.61H28S21.79,29.49,21.89,38.27Z"/><path class="cls-2" d="M22.06,38l30.4,20L82.87,40.33l-.19,31.33s-.66,4.9-6.35,5-45.93.19-45.93.19-8.25,1.54-8.25-6.63S22.06,38,22.06,38Z"/></svg>