<?xml version="1.0" encoding="utf-8"?>
<!-- Generator: Adobe Illustrator 22.1.0, SVG Export Plug-In . SVG Version: 6.00 Build 0)  -->
<svg version="1.1" id="Layer_1" xmlns="http://www.w3.org/2000/svg" xmlns:xlink="http://www.w3.org/1999/xlink" x="0px" y="0px"
	 viewBox="0 0 100 100" style="enable-background:new 0 0 100 100;" xml:space="preserve">
<style type="text/css">
	.st0{fill:#FBB62B;}
	.st1{fill:none;stroke:#FFFFFF;stroke-width:4.01;stroke-miterlimit:10;}
	.st2{fill:#FFFFFF;}
	.st3{fill:none;stroke:#FFFFFF;stroke-width:4;stroke-miterlimit:10;}
	.st4{fill:none;stroke:#FFFFFF;stroke-width:3;stroke-linejoin:round;stroke-miterlimit:10;}
</style>
<title>ig</title>
<path class="st0" d="M76,89.1H28c-8.8,0-16-7.2-16-16V25c0-8.8,7.2-16,16-16h48c8.8,0,16,7.2,16,16v48C92,81.9,84.9,89.1,76,89.1z"
	/>
<path class="st1" d="M64.4,77.5H39.5c-8.8,0-16-7.2-16-16V36.6c0-8.8,7.2-16,16-16h24.9c8.8,0,16,7.2,16,16v24.9
	C80.4,70.3,73.2,77.5,64.4,77.5z"/>
<circle class="st1" cx="52" cy="49" r="13.4"/>
<circle class="st2" cx="69.4" cy="32.3" r="4"/>
<title>email</title>
<path class="st0" d="M316.1,92.1h-48c-8.8,0-16-7.2-16-16V28c0-8.8,7.2-16,16-16h48c8.8,0,16,7.2,16,16v48
	C332.1,84.9,324.9,92.1,316.1,92.1z"/>
<path class="st3" d="M261.9,38.3l30.4,19.4l30.5-17.1c0,0,1.5-10.6-5.4-10.6H268C268,29.9,261.8,29.5,261.9,38.3z"/>
<path class="st3" d="M262.1,38l30.4,20l30.4-17.7l-0.2,31.3c0,0-0.7,4.9-6.4,5c-5.7,0.1-45.9,0.2-45.9,0.2s-8.2,1.5-8.2-6.6
	S262.1,38,262.1,38z"/>
<title>linked</title>
<path class="st0" d="M193.9,11.7h-46.1c-9.1,0-16.5,7.4-16.5,16.5v46.1c0,9.1,7.4,16.5,16.5,16.5h46.1c9.1,0,16.5-7.4,16.5-16.5
	V28.1C210.3,19,203,11.7,193.9,11.7z"/>
<path class="st4" d="M156.5,77.2h-9.9V41h9.9V77.2z M151.5,36.8c-3.2,0-5.8-2.6-5.9-5.8s2.6-5.8,5.8-5.9c3.2,0,5.8,2.6,5.9,5.8
	c0,0,0,0,0,0C157.3,34.2,154.7,36.8,151.5,36.8z M196,77.2h-9.8V58.7c0-11.1-13.2-10.2-13.2,0v18.4h-9.9V41h9.9v5.8
	c4.6-8.5,23-9.1,23,8.1L196,77.2z"/>
</svg>
