<svg id="Layer_1" data-name="Layer 1" xmlns="http://www.w3.org/2000/svg" viewBox="0 0 100 100"><defs><style>.cls-1{fill:#fbb62b;}.cls-2{fill:none;stroke:#fff;stroke-linejoin:round;stroke-width:3px;}</style></defs><title>linked</title><path class="cls-1" d="M73.87,11.67H27.79A16.46,16.46,0,0,0,11.33,28.13V74.21A16.46,16.46,0,0,0,27.79,90.67H73.87A16.46,16.46,0,0,0,90.33,74.21V28.13A16.46,16.46,0,0,0,73.87,11.67Z"/><path class="cls-2" d="M36.48,77.17H26.61V41h9.87ZM31.55,36.79a5.81,5.81,0,1,1,5.76-5.86V31A5.8,5.8,0,0,1,31.55,36.79ZM76,77.17H66.15V58.73c0-11.09-13.17-10.25-13.17,0V77.17H43.07V41h9.87v5.81c4.6-8.51,23-9.14,23,8.15Z"/></svg>