<svg xmlns="http://www.w3.org/2000/svg" viewBox="0 0 503.72 473.97" width="503.72" height="473.97"><defs><style>.cls-1,.cls-11,.cls-12,.cls-8,.cls-9{fill:none}.cls-2{fill:#97d2b1}.cls-3{fill:#93b6e0}.cls-4{fill:#f29620}.cls-5{fill:#a1dbe8}.cls-6{fill:#f7c644}.cls-7{fill:#3a3e3c}.cls-11,.cls-12,.cls-13,.cls-8,.cls-9{stroke:#3a3e3c}.cls-12,.cls-13,.cls-14,.cls-15,.cls-16,.cls-17,.cls-18,.cls-19,.cls-8,.cls-9{stroke-linecap:round;stroke-linejoin:round}.cls-8{stroke-width:3.01px}.cls-9{stroke-width:2.86px}.cls-10{fill:#fff}.cls-11{stroke-miterlimit:10}.cls-11,.cls-14{stroke-width:3px}.cls-12,.cls-13{stroke-width:3.18px}.cls-13{fill:url(#New_Pattern)}.cls-14,.cls-15,.cls-16,.cls-17,.cls-18,.cls-19{fill:#231f20}.cls-14,.cls-18{stroke:#f7c644}.cls-15{stroke:#a1dbe8}.cls-15,.cls-16,.cls-17,.cls-18,.cls-19{stroke-width:5px}.cls-16{stroke:#97d2b1}.cls-17{stroke:#f29620}.cls-19{stroke:#93b6e0}</style><pattern id="New_Pattern" width="439.76" height="267.85" patternUnits="userSpaceOnUse" viewBox="0 0 439.75 267.85"><path d="M0 0h439.76v267.85H0z" class="cls-1"/><path d="M222.35 82.2a43.1 43.1 0 0 0-4.07 9 4.78 4.78 0 0 0 3.32 5.8 4.86 4.86 0 0 0 5.84-3.32 30.86 30.86 0 0 1 3.11-6.68 4.75 4.75 0 0 0-8.2-4.8zm16.09 44.14a36.4 36.4 0 0 0-25.16 19.13c-3 6.13-4.45 13.47-.78 19.69 4 6.77 12.78 9.55 19.75 5.75 10.32-5.63 21.43-19.84 13.08-31.24a18 18 0 0 0-16.66-7.1c-6.39.76-11.38 4.59-16 8.81-4.06 3.72-4.31 11.59 0 15.26l2.41 2.06c4.43 3.78 10.91 4.35 15.26 0 3.87-3.88 4.45-11.46 0-15.26l-2.34-2.06v15.26s3.56-2.82 3.56-2.8c.63.08.06.06-1.7-.06q-2.59-.94-2-4.07c-.89-4.79-.58-3-3-.44a12.57 12.57 0 0 1-4.19 3.3l5.45-1.47q5.49 9.61 5.8 5.26a24.5 24.5 0 0 1 1.38-2.51 14.91 14.91 0 0 1 2.93-3.27 16.8 16.8 0 0 1 7.95-3.43c5.72-1.13 9-8 7.54-13.28-1.64-6-7.54-8.66-13.27-7.53z" class="cls-2"/><path d="M338.5 236.07a74.77 74.77 0 0 0 21.32-10c5.91-4.05.32-13.77-5.66-9.68a64.55 64.55 0 0 1-18.64 8.91c-6.9 2-4 12.85 3 10.81z" class="cls-3"/><path d="M394 65.82c9 0 9-13.82 0-13.82s-8.93 13.86 0 13.86z" class="cls-4"/><path d="M388.78 49.73c-1 1.09-6.2-1.6-7.84-2.08a61.68 61.68 0 0 0-10.45-1.86c-7.5-.84-15-1.08-22.47-2.38-11.42-2-29-4.56-32-18.11l-4.84 8.53c15.06-4.59 30.76-.65 45.87 1.7q24.45 3.78 49.13 5.89c6.55.55 15.76 2.85 21.85-.52s7.11-11.41 2.79-16.73c-4.6-5.65-13.44-6.77-20.23-7.76a92.32 92.32 0 0 0-24.15-.41c-8.94 1-8.87 12.75 0 13.87L405 32.19c2.48.31 9.34-.22 9.32 2.69 0 3.58-5.79 5.44-8.46 6.33a75.13 75.13 0 0 1-17.46 3.59c-23.64 2-46.44-5.66-67.18-16.39l-3.5 12.92c17.18-1.08 32.79 6.44 49.11 10.46 15.13 3.72 31.2 4.55 45.23-3.17 5.64-3.1 3.61-10.69-1.66-12.68-20.68-7.81-42.77-1.29-63.89-5.83-8.7-1.87-12.42 11.5-3.69 13.37 21 4.52 43.53-1.86 63.9 5.84l-1.66-12.68c-12.65 7-27.75 3.92-40.89 0-15.22-4.49-30.3-10.23-46.45-9.22-6.41.4-10 9.55-3.5 12.92 28 14.5 60.55 24 91.91 15.24 11.81-3.3 26-11.78 21.25-26.34-2.25-6.88-8.37-9.17-14.93-10-8.67-1.14-17.34-2.19-26-3.28v13.89a86.78 86.78 0 0 1 18.55-.27 72.89 72.89 0 0 1 9.17 1.57c1.22.28 3.85 1.45 5.1 1.38l.93.47.91-4.39c-.68-.93-7.68-.48-9.16-.59q-4.85-.36-9.69-.8-10.17-.91-20.3-2.13c-12.68-1.53-25.23-3.74-37.86-5.6-12.28-1.81-24.61-2.71-36.66 1a7.1 7.1 0 0 0-4.82 8.51c4.22 19.05 25 24.88 41.72 27.79 9.49 1.66 19.21 1.56 28.65 3.26 8.84 1.59 18 7.55 25.6-.51 6.12-6.49-3.67-16.32-9.81-9.8z" class="cls-5"/><path d="M432.78 111.77c2.76-12 2.86-24.22 2.32-36.47-.26-6.06-.58-12.13-.88-18.19-.24-4.92-.12-10.11-1.93-14.77-4.51-11.59-16.17-9.45-25.3-5-9.4 4.58-14.9 13.05-13.85 23.65 1.1 11 6.11 22 10.23 32.18 3.18 7.84 8.85 22.55 20.28 18.44 12.14-4.36 4-21.67 3.41-30.23-.39-5.72.56-11.52 1.18-17.19.55-5 1.58-10.19.06-15.09-3.91-12.57-19.57-10.22-24.37.36-2.7 5.94-1.8 12.28 0 18.35 1.93 6.6 4.16 13.13 6.25 19.68 2.7 8.48 16.09 4.86 13.37-3.68-2.84-8.93-7.11-18.34-7.36-27.69a4 4 0 0 1 .77-1.72q-2.61-2.84-1.85-1.06a20.45 20.45 0 0 0 .1 3.08c-.23 4.8-1.07 9.6-1.55 14.38a59.73 59.73 0 0 0 .05 15.29c.29 1.82.69 3.59 1.1 5.39.49 2.1.61 5.17 1.47 7.09q-.74 4.84 5.14-.13a4 4 0 0 1-1.31-1.55 30.91 30.91 0 0 1-2.65-5.68c-1.79-4.31-3.46-8.67-5.06-13.06-2.23-6.15-8.33-17.65-4.63-24.15 1.52-2.66 4.85-4.17 7.55-5.33 3.67-1.59 4.14-2.76 4.67 1.36 1.18 9.18 1 18.82 1.36 28.07.38 10.06.32 20.1-1.94 30-2 8.69 11.37 12.4 13.37 3.69z" class="cls-2"/><path d="M323.07 62.44c10 3.69 20.25 1.17 30.56 1.88 5.22.36 10.33 1.84 15.31 3.38 3.38 1 9.37 1.9 11.44 5.13l6-10.44c-15.56-1.55-30.23-8-46.1-7.1-8 .47-9.11 10.85-1.84 13.62q19.79 7.53 39.95 14c8.52 2.73 12.17-10.66 3.69-13.38q-20.16-6.47-39.95-14l-1.85 13.62c15.68-.91 30.62 5.56 46.1 7.1 5.23.52 8.65-6.28 6-10.43-5.89-9.19-19.54-12.08-29.57-14.11a72.18 72.18 0 0 0-18-1.21c-6.18.29-12.09.74-18-1.44-8.39-3.1-12 10.3-3.69 13.37z" class="cls-3"/><path d="M415.63 132.71c6.12 1.21 12.7-1.41 14.6-7.84 2-6.68-2.4-13.21-8.93-14.86l4.84 4.85c-.3-2 .54-4.21.54-6.23a21.44 21.44 0 0 0-1.07-6.55 36.14 36.14 0 0 0-5.69-10.2c-5.23-7.12-11.53-12.63-17.84-18.68-5.55-5.33-7.5-13.14-13.18-18.51a42.38 42.38 0 0 0-20.1-10.31c-9.27-2-18.61-1.34-27.92 0-3.65.51-8.14 1.92-11.77.54-3.43-1.31-6-4.73-8.54-7.24a73.76 73.76 0 0 0-42-21.25c-3.74-.52-7.4.91-8.53 4.84-.93 3.23 1.13 8 4.84 8.53 15.28 2.11 27.22 9.09 38 19.84 5.35 5.33 11.36 9.57 19.2 9.67 8.65.1 17.11-2.62 25.86-2.33 7.05.24 14.5 2 20.07 6.56s7.41 11.95 12.13 17.29c5.23 5.91 11.72 10.39 16.69 16.62 2.14 2.69 4.69 5.76 5.63 9.11 1.06 3.75-.28 8.06.31 12 .34 2.27 2.73 4.31 4.84 4.85l1.7-4c-8.71-1.71-12.44 11.65-3.68 13.37z" class="cls-3"/><path d="M212.77 47.39c2.32-6.55 2.89-15.3 11.63-16.22l-3.5-12.92a26.6 26.6 0 0 0-6 5.33c-2.34 2.93-2.86 7 0 9.81 2.42 2.42 7.45 2.94 9.8 0a15.12 15.12 0 0 1 3.17-3.17c5.07-3.49 4-13.71-3.5-12.92-6.4.68-12.32 3-16.8 7.82-5.1 5.45-5.82 11.84-8.21 18.59-3 8.43 10.41 12 13.38 3.68zm185.09 173.48c8.92 0 8.94-13.87 0-13.87s-8.94 13.87 0 13.87z" class="cls-6"/><path d="M250.84 164.17l-22.06 7.43a9.86 9.86 0 0 0-6.71 9.34v16.44a9.84 9.84 0 0 0 13.3 9.22l152.49-57.07a9.85 9.85 0 0 0 6.4-9.23v-19.2a9.84 9.84 0 0 0-6.42-9.23L235.36 55.1a9.86 9.86 0 0 0-13.29 9.24v16.44a9.85 9.85 0 0 0 6.73 9.35l22 7.33a9.86 9.86 0 0 1 6.74 9.35v48a9.85 9.85 0 0 1-6.7 9.36zm48.4-50.58l23.5 7.8a9.85 9.85 0 0 1 0 18.69L299.27 148a9.85 9.85 0 0 1-13-9.34v-15.72a9.86 9.86 0 0 1 12.97-9.35z" class="cls-3"/><path d="M208.89 105.21c4.23 6.08 8.3 12.34 10 19.64 1.84 8 1.93 16.54 2.68 24.67.68 7.32 10.28 7.08 11.21 0a78.48 78.48 0 0 0-8.37-46.39l-7.66 7.67c4.4 2.06 7.07 8.87 9.58 12.81 2.17 3.4 9 10.86 7.75 15.09l5.4-4.11c1 .57.91.18-.19-1.16a20.17 20.17 0 0 1-1.34-3.09 38.34 38.34 0 0 1-1.55-6.23l-9.4 5.45a54 54 0 0 1 5 8.06c3.35 6.41 12.91.76 9.68-5.66a306.7 306.7 0 0 1-18.59-45.85L216.24 93c3.88 1.56 7.1 7.74 9.46 11 3.22 4.44 6.29 9 9.26 13.6 5.79 9 11.17 18.22 16.51 27.47l9.68-5.66a432.65 432.65 0 0 1-37.32-65.65l-7.67 7.67c4.06 1.76 6.7 6.7 9.29 10.12q4.52 6 8.87 12.07Q243 115.81 251 128.47l9.68-5.65a298.33 298.33 0 0 1-27.41-43.34l-8.81 6.79c7.81 6.36 13.73 14.55 19.61 22.63 6.25 8.59 12.24 17.38 18.16 26.2l9.68-5.66a127 127 0 0 1-10.73-16.24 116.93 116.93 0 0 1-4-7.9c-.78-1.71-4.15-7.2-3.63-9l-6.9 3.91a41.43 41.43 0 0 1 13.43 8l5.45-9.36-8.1-2.59c-6.89-2.19-9.84 8.63-3 10.81l8.1 2.59c5.22 1.66 9.64-5.66 5.45-9.37a55.89 55.89 0 0 0-18.37-10.88c-2.86-1-6.12 1.18-6.89 3.92-1.87 6.62 3.42 15.08 6.29 20.86a126.65 126.65 0 0 0 13.2 20.95c4.27 5.53 13.8.48 9.68-5.66-6.27-9.34-12.62-18.63-19.27-27.71-6.09-8.31-12.2-16.83-20.25-23.38-4.83-3.93-11.87.88-8.8 6.79A298.55 298.55 0 0 0 251 128.47c4.23 5.57 13.65.6 9.68-5.65q-9-14.23-18.9-27.91-4.68-6.45-9.54-12.75c-3-3.89-5.81-8.39-10.46-10.42-5.22-2.28-10.1 2.36-7.67 7.66a433.6 433.6 0 0 0 37.32 65.66c4.05 5.86 13.33.68 9.68-5.66-6.26-10.83-12.57-21.65-19.52-32.06q-5-7.53-10.52-14.71c-3.46-4.5-6.53-8.28-11.89-10.43-4-1.61-8.09 3.11-6.9 6.89A326.29 326.29 0 0 0 232 137.62l9.68-5.66a69.05 69.05 0 0 0-6.68-10.33c-3.8-4.91-10.21.66-9.36 5.46 1.18 6.73 4.84 19.89 13.88 18.7 2.55-.33 4.63-1.51 5.4-4.11 2.5-8.35-3.61-15.47-7.83-22.08-3.87-6.08-7.75-15.24-14.65-18.48-5-2.36-10.35 2.47-7.66 7.67a68.4 68.4 0 0 1 6.83 40.73h11.21c-.84-9.12-1-18.7-3.09-27.65-1.9-8.21-6.35-15.48-11.12-22.31-4.09-5.88-13.81-.28-9.67 5.65z" class="cls-3"/><path d="M266.19 152.66c7.78-9.21 6.22-27-7-30.38-15.71-4-23.35 12.63-26.1 24.89-1.58 7 9.22 10 10.81 3 1.28-5.72 2.8-14.86 9.41-16.85s8.31 7.45 4.95 11.43c-4.63 5.48 3.26 13.45 7.92 7.93z" class="cls-2"/><path d="M334.69 220.44c14.48 5.78 29.44-.72 41.72-8.56 5.61-3.59 11.27-7.7 14.51-13.68 3.56-6.56 3.61-14.17 3.37-21.42-.09-2.76-2.51-6-5.6-5.61a16.69 16.69 0 0 0-12.44 7.47c-3.33 4.87-4.13 10.94-7.42 15.85-5.85 8.72-16.24 13.13-26.52 12.28-7.19-.6-7.15 10.62 0 11.21a40 40 0 0 0 28.76-9.44 37.19 37.19 0 0 0 9.52-12c1.7-3.48 3.28-13.55 8.1-14.11l-5.61-5.6c.18 5.46.62 11.53-2.23 16.44-2.58 4.46-7.37 7.3-11.63 9.94-9.58 5.94-20.36 10.94-31.55 6.47-6.7-2.67-9.61 8.16-3 10.81zm-112.08-75.1c-7.18 12.4-14.41 25-18.48 38.85-2.08 7.09-3.11 13.73-.43 20.79 2.36 6.18 5.42 12.42 9.88 17.37s10.19 8.48 15.69 11.83c5.88 3.59 12.26 6.66 19.14 7.63C263.28 243.9 276 233.33 288 226c5.09-3.09 2.47-9.85-2.82-10.44-21.51-2.37-44-5.46-64.29-13.37-4.67-1.83-4.85-5.63-5-10.38a35.49 35.49 0 0 1 2.26-14.43c3.72-9.51 12.27-16.14 20-22.36l-9.36-5.45-7.46 26.58H232c-1-5.29 2.59-10.95-.68-15.74a6.93 6.93 0 0 0-11.66-.15 9.63 9.63 0 0 0 .76 11.64c3.43 4 9.14 4.3 13.18 7.53 9 7.15 12.41 19.58 19.89 28.12a62.11 62.11 0 0 0 28 17.86c5.11 1.63 9.86-5.78 5.45-9.36l-30.15-24.5-6.79 8.8a50.12 50.12 0 0 1 14 9.28l2.47-9.37a89.2 89.2 0 0 1-18.5 4c-4.93.5-8.37 7.8-2.83 10.45a114.12 114.12 0 0 0 20.12 6.92v-10.8l-18.82 4c-5.26 1.11-5.43 9.81 0 10.81q10 1.83 20.07 2.75l-2.83-10.44L245 226.2c-5.51 2.42-2.15 10.14 2.83 10.44a28.3 28.3 0 0 0 10.26-1.24c4.95-1.53 5.7-9.68 0-10.81a67.76 67.76 0 0 1-37.3-21.23l-5.45 9.37 25.85 10c6.34 2.44 9.09-6.82 4.31-10.24L221.15 195l-2.83 10.45a102.5 102.5 0 0 1 24.16 6.18l3-10.81a218.49 218.49 0 0 1-25.18-9l-4.3 10.23q13.89 4.78 27.25 10.82c6.43 2.92 12.09-6.13 5.65-9.68l-14-7.72c-4.14-2.28-9.34-4.23-12.4-7.93l-5.5 9.37a103.27 103.27 0 0 1 24.52 6.76l4.32-10.24a90.13 90.13 0 0 1-23.42-8.28l-2.83 10.44c4.24.32 8.45.76 12.66 1.4 5 .76 10.06-5.21 5.45-9.36a187.74 187.74 0 0 0-19-14.54l-2.83 10.44a36.24 36.24 0 0 1 12.63 3.32l4.32-10.24a27.64 27.64 0 0 0-5.37-.34c-1.76.09-3.58-.57-3.48 1.11-.29-5.18-7.77-8.09-10.45-2.82-4.95 9.76 2.86 17.12 10.33 22.39a69.6 69.6 0 0 0 29.28 11.7c4.46.7 9.19-3.71 6.33-8.24-3.09-4.88-7.87-8.56-12.06-12.46l-14.52-13.54-6.88 8.81 13.77 7.51c6.33 3.46 12-6.21 5.65-9.68l-13.76-7.51c-5.43-3-11.59 4.33-6.79 8.8L238 194.52c3.84 3.58 8.95 7.1 11.76 11.55l6.33-8.23a62.18 62.18 0 0 1-19.41-6.17c-2.15-1.12-15.26-8-13.5-11.46l-10.44-2.83a10 10 0 0 0 5.35 8.79c4 2.15 7.61.68 11.73 1.24 5.62.77 10.67-7.26 4.32-10.24a51.54 51.54 0 0 0-18.29-4.85c-6-.47-7 7.57-2.83 10.45a165.3 165.3 0 0 1 16.78 12.78l5.45-9.36c-5.19-.79-10.4-1.41-15.64-1.8-5.54-.42-7.64 7.94-2.83 10.44a101.49 101.49 0 0 0 26.1 9.41c5.8 1.21 10.5-7.63 4.32-10.24a113.7 113.7 0 0 0-27.2-7.9c-5.6-.86-9.18 4.87-5.46 9.37 3.38 4.07 8.48 6.26 13 8.77l15.67 8.63 5.65-9.68q-14.67-6.66-29.92-11.95c-5.91-2-10.18 7.72-4.32 10.25a243.74 243.74 0 0 0 27.86 10.1c7.05 2 9.59-8.29 3-10.81a114.21 114.21 0 0 0-27.14-6.58c-6.12-.75-6.77 7.62-2.83 10.44l24.33 17.47 4.32-10.24-25.85-10c-5.59-2.15-8.9 5.59-5.45 9.37a77.87 77.87 0 0 0 42.24 24.11v-10.76a19.32 19.32 0 0 1-7.28.85l2.83 10.44 18.82-8.26c5.63-2.47 2-10-2.83-10.45-5.74-.52-11.42-1.31-17.09-2.35v10.81l18.82-4c5.5-1.16 5.17-9.44 0-10.81-5.94-1.57-11.88-3.14-17.44-5.79l-2.83 10.44a103.54 103.54 0 0 0 21.48-4.37c3.88-1.25 5.67-6.36 2.48-9.37a59.17 59.17 0 0 0-16.31-11c-5.27-2.37-12.16 4.45-6.79 8.8L279.09 224l5.45-9.36c-13.41-4.29-23-13.14-30-25.19-3.31-5.74-6.57-11.65-11.33-16.36a30.52 30.52 0 0 0-7.19-5.4 35.08 35.08 0 0 0-4.08-1.76l-2-.72c-1.33-.82-1.92-.07-1.79 2.25l-4.32.57-2.49-1.49-.34 1.59c-.51 1-.4 2.84-.45 3.9a30 30 0 0 0 .66 7.13c1.05 5.63 9.4 5 10.81 0l7.45-26.58c1.63-5.81-5.26-8.77-9.36-5.46-9.41 7.61-18.52 15.68-22.85 27.31a45.26 45.26 0 0 0-2.62 18.27c.32 5.35 1 11.71 5 15.74s10.28 5.35 15.37 7c6.53 2 13.18 3.74 19.87 5.19a393.88 393.88 0 0 0 40.31 6.22l-2.83-10.44c-5.18 3.14-10.32 6.34-15.53 9.43-5 3-10.12 5.68-16.16 5-5.69-.6-10.92-3.41-15.73-6.35s-9.75-5.9-13.41-10.08a39.86 39.86 0 0 1-7.92-15c-1.39-5.35.94-11.34 2.7-16.4 3.92-11.29 10-21.68 16-32 3.62-6.25-6.06-11.9-9.68-5.65zm-6.89-61.08c-2-13.22 5.25-24.09 13.05-34 3.2-4.06 7.17-8.74 12.58-9.58 6.23-1 13.74 1.42 20 2.23 13.08 1.72 26.33 3.42 38.16 9.66 5.3 2.8 11.41 5.87 15.89 9.88s6.31 11.1 8.27 16.51l8.24-6.32-43.72-27.52c-6.37-4-12.69-8.6-20.09-10.49-7.7-2-16-2-23.92-1.66-5.46.24-7.74 7.52-2.83 10.44a322.93 322.93 0 0 0 49 23.73l1.49-11c-6.45.29-13.21-3.64-19-6.08a616.36 616.36 0 0 1-18.82-8.26c-6.46-2.94-11.89 5.79-5.65 9.68l33.79 21.1L285 62.13a98.62 98.62 0 0 1-29.89-4.33c-7-2.14-9.6 8.29-3 10.8a55.31 55.31 0 0 0 12.06 2.79c7.05 1 10.1-9.78 3-10.81a55.87 55.87 0 0 1-12.06-2.78l-3 10.8A108.91 108.91 0 0 0 285 73.34c5.65 0 7.51-7.52 2.83-10.44L254 41.79l-5.65 9.68q10.66 4.88 21.49 9.39c7 2.92 14.27 6.82 22 6.48 6.56-.29 7.3-8.77 1.49-11A305 305 0 0 1 247 33.73l-2.83 10.45c7.12-.32 14.92-.55 21.82 1.48 7.15 2.11 13.59 7.28 19.83 11.21l40.38 25.44c3.95 2.49 9.92-1.69 8.23-6.33-2.4-6.6-4.82-14.46-9.55-19.82s-12.61-9.42-19-12.85c-15.15-8.16-31.68-9.75-48.42-12.13-7.52-1.06-15.19-3.13-22.57-.24-6.54 2.56-11.24 7.7-15.42 13.15-10.07 13.12-17.11 26.13-14.58 43.14 1.06 7.11 11.87 4.09 10.81-3z" class="cls-3"/><path d="M341.4 98.93c18.9 2.91 38.37 6 54.19 17.55l2.83-10.48a48.25 48.25 0 0 1-25.51-9.37l-4.32 10.24a117.4 117.4 0 0 0 29.11 1.63c6.49-.46 7.39-8.72 1.49-11a578.53 578.53 0 0 1-70.61-33.09c-6.32-3.49-12 6.17-5.66 9.68A320.75 320.75 0 0 0 390.07 102l1.49-11c-31.81-2.38-61.92-13.93-91.09-26.11-5.8-2.42-10.14 7.72-4.32 10.24l22 9.51c5.75 2.49 13.15 4.44 17.17 9.54l4-9.57c-10.11 1.15-19.6-5.53-28.28-9.91-9.29-4.7-18.55-9.44-27.87-14.08-8.58-4.27-17-7.2-26.53-8.29-8.83-1-18.09-2.1-26.32 1.91-6.48 3.17-.81 12.83 5.66 9.68 3.8-1.86 8.21-1.36 12.3-1.09a95.79 95.79 0 0 1 13.31 1.5c9.27 1.92 17.55 6.78 25.92 11L313 88.28c8.24 4.16 16.75 8.66 26.27 7.57 5.06-.58 7.09-5.6 4-9.57-4.38-5.55-11.42-7.82-17.69-10.53l-23.77-10.26-4.32 10.24c30.22 12.62 61.14 24 94.07 26.51 6.43.48 7.41-9.31 1.49-11a307.1 307.1 0 0 1-64.47-26.79l-5.66 9.68a601.73 601.73 0 0 0 73.29 34.22l1.49-11a105.89 105.89 0 0 1-26.13-1.22 5.63 5.63 0 0 0-4.31 10.24 59 59 0 0 0 31.16 10.9c6.07.38 6.89-7.48 2.82-10.45-16.58-12.06-37-15.63-56.86-18.68-7.05-1.09-10.09 9.71-3 10.81z" class="cls-3"/><path d="M396 119.67c15.39 3.54 18.93-17.71 9.33-26.14-5.31-4.66-14.13-6.56-20.8-8.22A117.71 117.71 0 0 0 359.11 82c-7.21-.19-7.21 11 0 11.2a105.07 105.07 0 0 1 26 3.9c3.48 1 9.36 2 12.09 4.38 1.12 1 3.25 7.76 1.75 7.41-7-1.62-10 9.19-3 10.81z" class="cls-3"/><path d="M321.12 236.71c23.73 5.11 50.88-1 68.07-18.85a41.75 41.75 0 0 0 12.18-32 37 37 0 0 1 4.18-19.86c3-5.84 6.16-11.51 8.43-17.69 7.76-21.16 9.13-55.81-14.56-67.44-10.14-5-21.43-5.46-32.35-7.42-13.23-2.4-27.07-6.45-38.82-13.24-5.88-3.4-7.92-9.27-11.78-14.51A54.73 54.73 0 0 0 304 33.47c-10.63-7.56-22.85-9.76-35.67-9.49-7 .14-13.84.25-20.82-.13-6.22-.33-12.69-.51-18.74 1.28-12 3.56-18.85 14-23.58 24.86-5.35 12.37-8.4 24.84-6.09 38.31 2.1 12.21 7.85 23.35 11.5 35.1 4.12 13.29 3.09 24.89-1.72 37.87-4.65 12.52-10.59 24.37-11.83 37.87-1.34 14.72 4.6 27.42 16.26 36.3 11.48 8.75 26.21 15.23 40.79 15.5s26.43-6.26 35.9-17.09c9.81-11.23 20.66-19.1 36.16-19.3 7.33-.09 7.35-11.49 0-11.39a54.41 54.41 0 0 0-31.49 10.22c-8.95 6.56-14.48 17.38-24.33 22.61-10.4 5.51-22.84 4-33.39-.21-10.05-4-22-10.58-26.52-20.92-4.8-10.87-1.11-23.58 2.87-34.09 4.35-11.48 9.86-22.55 11.28-34.9 2.65-23.05-13-41.61-14.88-63.79-1-11.52 3.22-23.4 8.72-33.4 2.45-4.46 5.56-8.91 10.21-11.3 5.54-2.84 12-2.48 18-2.18s11.88.47 17.86.28c6.43-.19 12.94-.49 19.24 1.07a41.54 41.54 0 0 1 25 18.08c2.93 4.64 5.31 9.31 9.73 12.75 4.84 3.78 10.79 6.16 16.43 8.48a144.63 144.63 0 0 0 34 9.33c9.36 1.39 20.2 1.94 28.24 7.48 9.35 6.45 10.45 19.64 10.18 30.05-.31 14.28-5.76 25.75-11.99 38.28-3 6.06-5.37 12.32-5.54 19.17s1.09 12.89-1.61 19.3c-9.73 23.16-41.64 31.11-64 26.28-7.15-1.54-10.2 9.44-3 11z" class="cls-3"/><path d="M327.47 188.32c5.5 4.74 8.63 11.6 15.3 15.05 6.37 3.3 15.34 4.32 22.46 4.13 16.84-.44 26.65-14.72 35.82-27 9.84-13.21 12.38-31.28 14.21-47.32 1.94-16.94-12.52-26.88-28.27-25.88a5.67 5.67 0 0 0-4 9.56c3.46 3.73 10 7 11.67 12 1 2.83.2 6.77.09 9.68l-.52 12.46 11-1.49a66.42 66.42 0 0 0-9.48-24.25l-6.33 8.24c3.55.81.83 10.9.25 13a87.18 87.18 0 0 1-4.67 12.2c-3.36 7.44-7 14.85-11.72 21.5-4.63 6.45-10.72 12.22-18.08 15.43-6.07 2.64-15.12 4.49-19.85-1.37v7.93a92.37 92.37 0 0 1 15.48-11.48q3.93-2.31 8.08-4.24c2-.93 6.37-3.65 8.71-3.11l-3.35-8.23a68 68 0 0 1-24.81 22.61c-6.34 3.43-.69 13.11 5.66 9.68A79.83 79.83 0 0 0 374 180.79a5.64 5.64 0 0 0-3.35-8.23c-7.54-1.76-16.09 3.35-22.54 6.85a104.71 104.71 0 0 0-20.63 14.85c-2.4 2.2-1.83 5.66 0 7.93 6.88 8.51 19.68 8.24 29.14 4.88 11-3.9 19.7-11.83 26.39-21.22 7-9.83 12.52-21.57 16.44-33 3.16-9.19 6.13-27.22-7-30.24-4.54-1-9.08 3.92-6.33 8.23a58.29 58.29 0 0 1 8.35 21.57c1.15 6.45 10.76 4.56 11-1.49.34-8.19 2.58-18.68-.47-26.5-2.68-6.86-9.26-10.37-14.06-15.53l-4 9.56c5.74-.36 12.33.43 15.82 5.65 3.15 4.71.89 11.59 0 16.69-1.19 6.72-2.47 13.48-4.25 20.08-1.56 5.83-4.55 10.46-8.16 15.23-7.2 9.52-14.55 20.73-27.79 20.13-5.26-.24-12.4-.71-16.68-4.14-4.09-3.29-6.53-8.27-10.52-11.71-5.44-4.69-13.4 3.21-7.93 7.92z" class="cls-3"/><path d="M264.06 202.5c11.06 9.71 22.54 19.54 36.81 24.09 7.58 2.42 15.71 3.07 23.62 3.23 7.1.15 15.1 1 20.58-4.35 4.35-4.28 8.44-10.46 7.06-16.82-1.49-6.92-7.85-13-12.67-17.78a112.48 112.48 0 0 0-36.34-24.08c-5.15-2.17-9.56 5.89-5.45 9.37a119.5 119.5 0 0 1 17 17.47 110.18 110.18 0 0 1 6.76 9.72c1 1.66 2 3.35 3 5.05.48.87 2.63 3.79 2.56 4.7l1.64-4c-1.41 1.44-8.81 1.38-10.72 1.4a47 47 0 0 1-10.57-1.14 71.43 71.43 0 0 1-21.63-9.29c-1.73-1.06-3.43-2.17-5.1-3.31l-1.43-1q-3.56-3.39-1.47 4.24c.73 0 3.57-2.28 4.25-2.67a55.3 55.3 0 0 1 5.32-2.7A57.28 57.28 0 0 1 309.5 190l-2.83-10.44c-10.77 5.86-20.35 13.49-29.88 21.14-4.53 3.63.4 10.78 5.45 9.37 16.52-4.63 31-17.51 48.74-17.25l-1.49-11a242.56 242.56 0 0 0-43 21.18c-3.64 2.28-3.75 9.55 1.34 10.24 16.13 2.22 32.24 1.89 48.47 1.29v-11.22l-33.3 3.61c-7 .76-7.36 11.42 0 11.21q20.1-.57 40.06-3c7.08-.88 7.32-10.57 0-11.2a206.59 206.59 0 0 0-25.25-.68c-5.35.17-7.89 7.69-2.83 10.44l12.84 7 1.34-10.24a34.37 34.37 0 0 1-18.5-1.22V220a165.75 165.75 0 0 1 17.47-2.33c4.61-.35 11.76-1.86 16.09 0l1.34-10.25a22.05 22.05 0 0 1-20.71-4c-5.45-4.48-9.51-10.12-15.79-13.61L304.78 200 336 210.23l1.49-11a102.12 102.12 0 0 1-34.66-3.53c-6.95-1.94-9.92 8.87-3 10.81a111.77 111.77 0 0 0 37.64 3.93c6.27-.42 7.64-9 1.49-11l-31.23-10.21c-6.06-2-9.84 7.17-4.32 10.24 7.52 4.19 12 12.12 19.66 16.24a33.58 33.58 0 0 0 25.48 2.52c4.18-1.23 6-8.23 1.34-10.24-6.32-2.72-13.09-2.1-19.84-1.67a191.16 191.16 0 0 0-22.36 2.86c-5.81 1.08-4.81 9.2 0 10.81a45.8 45.8 0 0 0 24.46 1.21c4.71-1 5.45-8 1.34-10.24l-12.84-7-2.83 10.44a210.67 210.67 0 0 1 25.25.68v-11.2q-20 2.48-40.06 3v11.21l33.25-3.61c7-.76 7.35-11.48 0-11.21-15.14.56-30.43 1.18-45.49-.88l1.34 10.24a228.26 228.26 0 0 1 40.33-20c5.7-2.15 5.17-10.91-1.49-11-19.25-.28-33.93 12.67-51.72 17.65l5.45 9.36c8.81-7.06 17.68-14 27.61-19.39 4.9-2.66 2.67-10.52-2.82-10.44a68.8 68.8 0 0 0-24.36 4.69c-5.28 2.11-16.51 6.15-17.93 12.44-1.57 7 8.8 11.44 13.56 14.31a80.48 80.48 0 0 0 23.57 10c9.42 2.12 40.5 4.23 32.1-13a121.81 121.81 0 0 0-30.84-39l-5.46 9.37A97.8 97.8 0 0 1 328 195.39a82.52 82.52 0 0 1 11.27 12.07c1.87 2.58 2.4 4 .66 6.71-1.48 2.3-3 4.05-5.69 4.45-5.6.82-12.19.1-17.82-.4a55 55 0 0 1-16.52-3.9c-10.58-4.46-19.36-12.26-27.9-19.74-5.4-4.74-13.36 3.15-7.92 7.92z" class="cls-3"/><path d="M261.09 199.72a73.75 73.75 0 0 0 8.87 4.49c2.69 1.13 6.13.9 7.67-2 1.26-2.4.87-6.45-2-7.67a73 73 0 0 1-8.87-4.49 5.61 5.61 0 0 0-5.66 9.68z" class="cls-3"/><path d="M301.28 235.53c5.14.31 10.28.67 15.42.93 4.19.22 9.46.46 13.24-1.71a7.69 7.69 0 0 0 3.13-9.81c-1.74-3.95-5.87-6.05-9.74-7.44-17.14-6.14-39.27-6-53.62 6.21-4 3.43-.43 9.2 4 9.56q16.62 1.38 33.29 1.65c7.21.12 7.21-11.09 0-11.21q-16.68-.27-33.29-1.64l4 9.56c9.26-7.86 22.34-7.49 33.61-5.48a53.75 53.75 0 0 1 8.33 1.9 7.24 7.24 0 0 1 1.61.65q2.85 1.86 3.54-3.86c-.26-.24-4 .52-4.53.53-6.28 0-12.64-.67-18.91-1.05-7.2-.44-7.17 10.77 0 11.21z" class="cls-2"/><path d="M360.93 235.71c3.83-3.21 9.48-4.53 14-6.54a79.52 79.52 0 0 0 14-7.85c8.61-6.23 15.59-14.38 18.9-24.61 1.67-5.17 2.71-10.39 4.93-15.38 2.13-4.79 4.61-9.41 6.72-14.21a66.55 66.55 0 0 0 4.91-15c.49-2.76.73-5.56 1.18-8.32.18-1.1.38-2.2.64-3.28a22.38 22.38 0 0 1 .68-2.39q.89-2.08-1.26.7l-5.34.7c4.17.91 1 6.47.06 8.91a40.63 40.63 0 0 0-2.86 16.21c.19 6.11 1.52 12.11 2.25 18.16a92.29 92.29 0 0 1 .14 18.58c-.25 3-.58 5.92-.95 8.87-.31 2.52-.19 6.35-1.43 8.67-2 3.74-8.33 3.29-11.84 3.43q-18.83.78-37.66 1.51c-8.88.36-9 14.05 0 13.87 19.43-.38 39-.83 58.28 2.28 6 1 12.78-6.73 6.75-11.59-12.87-10.35-28.5-9.35-43.54-14L392.5 226c3.4-4.33 8.39-6.77 12.16-10.73 4.28-4.49 7.33-10.07 10-15.63a123.2 123.2 0 0 0 10.94-37.84h-13.88c.06 11.63.14 23.31-1.19 34.88-.46 4-.39 9.42-3.66 12.13-3.59 3-7.19 4.74-10.11 8.57-3.3 4.31 1.21 10.47 6 10.43a70.72 70.72 0 0 0 18-2.47c8.61-2.32 4.95-15.7-3.69-13.37a55.45 55.45 0 0 1-14.32 2l6 10.44c2.52-3.3 7.37-4.61 10.11-8 3.67-4.52 4.33-10.32 5.07-15.9 1.72-12.85 1.74-25.78 1.68-38.72 0-9.19-12.76-8.58-13.87 0a102.33 102.33 0 0 1-9.84 32.46c-2.19 4.4-4.54 9-8.19 12.36s-7.92 5.65-11 9.58-2.34 9.91 3.06 11.59c11.89 3.69 27.29 2.32 37.41 10.46l6.75-11.59c-20.55-3.32-41.23-3.19-62-2.78v13.87l34.76-1.4c8.86-.35 18.74-.44 24.91-7.86 3.22-3.87 3.85-8.49 4.49-13.31.83-6.21 1.64-12.45 1.9-18.72.45-10.81-2.39-21.08-2.7-31.8-.28-9.74 7.09-18.49 4.05-28.25-2.32-7.43-14.23-15.21-19.9-6.64-2.58 3.89-3.16 9.18-3.78 13.68a65 65 0 0 1-3.34 14.56c-3.33 8.76-8.41 16.74-11.31 25.69-1.74 5.37-2.53 10.76-5.59 15.62a38.63 38.63 0 0 1-10.92 11c-9.19 6.34-20.85 8.45-29.38 15.6-6.85 5.74 3 15.5 9.81 9.8zM204 154.63l-2 1.16a7.15 7.15 0 0 0-3.19 4.14 5.22 5.22 0 0 0-.12 2.77 5.14 5.14 0 0 0 .82 2.58 7 7 0 0 0 4.14 3.18 7.24 7.24 0 0 0 5.35-.7l2-1.15a7.25 7.25 0 0 0 3.19-4.15 7.83 7.83 0 0 0-.7-5.34 7.06 7.06 0 0 0-4.15-3.19 7.26 7.26 0 0 0-5.34.7z" class="cls-6"/><path d="M200.67 113.05c4.58 3.85 5 11.58 5.37 17.15a35.91 35.91 0 0 1-1 11c-.52 2.22-1.45 8.45-3.22 9.84l10.89 1.41c-.48-.83 0-5-.05-6.74l-.16-8.88-.32-17.76c-.16-8.91-14-8.94-13.87 0l.39 21.7c.11 5.93-1 13.35 2 18.68 2.44 4.23 7.47 4.09 10.89 1.4 3.84-3 4.88-8.82 6.11-13.31a52.1 52.1 0 0 0 2.13-17.32c-.63-9.25-1.87-20.59-9.42-27-6.79-5.71-16.64 4.05-9.81 9.81z" class="cls-6"/><path d="M243.55 171.08a15.66 15.66 0 0 1-10.72-7.31c-1.9-2.47-6.17-.1-4.26 2.49l.72 1c1.87 2.53 6.15.07 4.27-2.5l-.73-1-4.26 2.49a29.69 29.69 0 0 0 5.82 6.23 24.62 24.62 0 0 0 7.85 3.35c3.06.89 4.36-3.87 1.31-4.76z" class="cls-2"/><path d="M242.84 170.32c-4.9.4-7.35-4.44-9.29-8.16-1.47-2.82-5.74-.32-4.27 2.5 2.76 5.29 6.79 11.15 13.56 10.6 3.14-.26 3.17-5.2 0-4.94z" class="cls-2"/><path d="M236.92 153.6c2.84-2.08 4.75-4.68 6.79-7.52 3.23-4.5 6.82-6.3 12.27-7 7.86-1 9.24 7.73 7.31 13.64a18.54 18.54 0 0 1-4.53 7.06c-1.17 1.19-5 5.12-7 4.17l.5 3.88c6.18-5 13.41-11.85 14.09-20.33.66-8.26-6.08-11.89-13.5-10.74-9.08 1.4-14.51 5.45-17 14.42-2.23 8.17-.73 16.85 5.49 22.85l1.75-4.22c-10.57-.26-3-16.75-.28-21.05 2-3.27 4.84-6.21 8.67-7.26a9.48 9.48 0 0 1 4.58-.18c2.27.5 6.6 3.29 4.15 6.34-1.95 2.43 1.15 5.75 3.49 3.5a12.11 12.11 0 0 0 1-16c-4.15-5.49-12-6.65-18.3-4.95-7.69 2.07-10.11 8.44-11.65 15.63-1.73 8-1.78 15.91 3.47 22.59 1.15 1.47 3.74.59 4.13-1.09 1.3-5.72.52-13.62 4.09-18.33 3.72-4.89 9.55-8.45 15-11l-3.38-3.38a192.12 192.12 0 0 0-17.57 30.55l4.6 1.24c0-8.65 1-18.24 8.85-23.41l-3.38-3.38a110.62 110.62 0 0 0-8.9 25.67 2.49 2.49 0 0 0 4.52 1.91l19.65-31-4.26-2.49c-4.67 10.31-6.32 23.71-16.44 30.41l3.38 3.38c4.12-6.79 11.1-11.16 13.74-18.91 1.86-5.48 4.21-15.51-3.79-17l1.47 3.63c1.08-1.7 3.47-.06 4.23 1.08.88 1.33.89 3.45 1 4.95a31 31 0 0 1-1.2 9.53c-.7 2.62 3.27 4.5 4.51 1.9a22 22 0 0 0 2.18-8.26c.23-3.17-4.71-3.15-4.94 0a14.7 14.7 0 0 1-1.51 5.77l4.52 1.9c1.57-5.88 3-14.73-1.35-19.89-3.2-3.78-9-3.71-11.66.53a2.49 2.49 0 0 0 1.47 3.63c6.34 1.2-2.23 16-4 18.05-3.06 3.52-6.42 6.62-8.87 10.64-1.24 2.05 1.3 4.76 3.38 3.38 11.23-7.44 13-20.75 18.21-32.19 1.3-2.85-2.53-5.23-4.26-2.49l-19.66 31 4.52 1.91a105.59 105.59 0 0 1 8.39-24.5c1-2.06-1.15-4.84-3.37-3.38-9.45 6.2-11.36 17.1-11.3 27.68 0 2.3 3.54 3.57 4.61 1.25a190.6 190.6 0 0 1 17.57-30.55c1.55-2.2-1.37-4.33-3.38-3.37-6.23 3-12.64 7.23-16.83 12.84-4 5.45-3.09 13.13-4.54 19.49l4.13-1.09c-3.46-4.41-3.58-10-2.7-15.29.71-4.3 1.52-10.69 5.44-13.34 3.76-2.53 10-2.62 13.82-.35 4.14 2.43 5.61 8.17 2 11.67l3.49 3.5c3.5-4.36 2-10.43-2.82-13.26-5.84-3.45-13.37-1.37-18.09 3-7.49 7-18 33.35.3 33.81a2.5 2.5 0 0 0 1.75-4.22 17.15 17.15 0 0 1-4.78-15.64 21.86 21.86 0 0 1 3-8.38c1.93-2.78 5.06-3.65 8.17-4.4 2.65-.64 6.84-1.66 9 .64 2.46 2.61.64 7.29-.73 9.83-2.55 4.75-6.66 8.41-10.79 11.76a2.47 2.47 0 0 0 .5 3.87c5.58 2.74 11.59-2.93 14.86-7.07 4.66-5.89 6.5-14 3.23-21s-9.83-6.73-16.46-5.14a16.4 16.4 0 0 0-8.54 4.81c-2.8 3.06-4.53 7-7.93 9.53-2.54 1.86-.07 6.15 2.49 4.26z" class="cls-2"/><path d="M239.54 135.27c-7.4 4-10 13-11 20.78-.45 3.2-1.3 7.08-.34 10.27s3.68 5.13 6.32 6.85 5.15-2.53 2.49-4.27-4.18-3.2-4.19-6.5a44.32 44.32 0 0 1 1-8.37c1.05-5.48 3.07-11.67 8.25-14.49 2.79-1.53.3-5.79-2.5-4.27z" class="cls-2"/><path d="M234.5 166.92a126.94 126.94 0 0 1 2.39-12.53c.75-3.09-4-4.4-4.76-1.31a124.09 124.09 0 0 0-2.39 12.53c-.43 3.11 4.32 4.45 4.76 1.31z" class="cls-2"/><path d="M233.19 172.11a19.57 19.57 0 0 0 18.67-.29c2-1.13 1.26-4.86-1.24-4.6a33.64 33.64 0 0 1-13.16-1.22c-3.05-.91-4.36 3.86-1.31 4.76a37.27 37.27 0 0 0 14.47 1.39l-1.25-4.61a14.36 14.36 0 0 1-13.69.29c-2.83-1.43-5.33 2.83-2.49 4.27zm138.47-58.74c-26.22-6.84-35.34 6.27-47.88-26.22S309 32.44 284.46 70.05c-20.64 31.67 8.78 79.56 9.69 80.37 5.7 5.13 31.34 37 46.16 37 6.55 0 34.23-8.7 43.32-23.93 11.5-19.23 2.67-46.3-11.97-50.12z" class="cls-2"/><path d="M326.69 182.47c3.72-3.67 2.54-10.09-1.94-12.58-4.86-2.69-10.9.43-12.77 5.3-1.68 4.39.37 10.34 5.33 11.44a8.08 8.08 0 0 0 6.71-1.54 7.21 7.21 0 0 0 2.62-7.27c-.38-2.47-3.6-4-5.84-3.32-2.68.87-3.72 3.2-3.32 5.84a2.8 2.8 0 0 1 .39-2.33c.22-.29 1-.67.3-.39.22-.09 1.35-.28.91-.28s.75.13.95.23c.38.21.5.55.78.82.1.29.12.3 0 0s-.08-.24 0 .32c.12-.91 0 .46 0-.11 0-.19.36-1.14 0-.14.13-.37.18-.41 0 0l.17-.15c-.26.2-.19.18.22-.08 0 .07-.77.17 0 .08-.19 0-1.16-.09-.73 0s-.5-.28-.65-.39c-.31-.45-.39-.52-.21-.22s.11.21 0-.07-.11-1.16-.18-.42a2.32 2.32 0 0 1 .52-1.52 4.75 4.75 0 0 0 6.72 6.72z" class="cls-5"/><path d="M377.36 121.54c6.11 0 6.12-9.5 0-9.5s-6.12 9.5 0 9.5zM244 106.15c6.11 0 6.12-9.5 0-9.5s-6.12 9.5 0 9.5z" class="cls-4"/><path d="M340.31 209.27c6.11 0 6.12-9.5 0-9.5s-6.12 9.5 0 9.5z" class="cls-6"/><path d="M225.94 95.7V75.18c0-6.11-9.5-6.12-9.5 0V95.7c0 6.11 9.5 6.12 9.5 0z" class="cls-2"/><path d="M405.05 160.17c5.6-7 7.1-17.19 1.05-24.52-5.45-6.61-15.8-8.34-22.9-3.37-7.86 5.5-8.34 16.47-13 24.18s-9.86 19.19-.69 26.18c8.84 6.75 17.61-2.14 22.73-9 3-4 5.68-8.4 9.37-11.9s7-6.31 6.94-12.09c-.12-9.59-9.1-17.68-18.76-14.94-4.19 1.18-7.24 4.31-9.26 8.05-2.58 4.76-5.07 9.64-7.57 14.44-2.39 4.59-5.38 11.58-3.64 16.83 1.5 4.52 6.92 5 10.39 2.54 4.41-3.08 5.28-8.82 7.35-13.39a35.2 35.2 0 0 1 5.35-8.43c1.05-1.22 5.46-5.85 5.87-5.68l-2.84-2.19c-.95-1.77 1-3.45-1-1.17a27.15 27.15 0 0 0-1.82 2.93q-2.1 3.27-4.37 6.41a131.83 131.83 0 0 1-9.66 11.7c-4.12 4.5 2.58 11.24 6.72 6.72s28.71-30.41 14.77-33.85c-6.11-1.51-12.06 5.51-15.43 9.65a43.94 43.94 0 0 0-5.81 9.12c-.52 1.1-3.35 10.24-4.28 10.19l3.36 1.39c.44.36 1.64-4.44 1.62-4.38a30.09 30.09 0 0 1 2.41-5.06c1.49-2.66 3.13-5.2 4.43-8 1-2.18 1.79-4.92 3.36-6.77a5 5 0 0 1 8.43.65c3.2 5.27-5 10.1-7.89 13.82-3.54 4.55-6.51 10.6-11.3 14-3 2.13-5.3.55-5.19-3 .11-3.35 2.46-6.52 4.14-9.26 3.06-4.95 4.68-10 6.65-15.42 1.74-4.78 5-9.12 10.65-7.24 6 2 6.68 9.65 3.1 14.14-3.78 4.73 2.9 11.49 6.71 6.72z" class="cls-5"/><path d="M379.06 194c3.06 0 3.06-4.75 0-4.75s-3.06 4.75 0 4.75zm-152.74-13.59c3.06 0 3.06-4.75 0-4.75s-3.06 4.75 0 4.75z" class="cls-6"/><path d="M402.44 168.44c3.05 0 3.06-4.75 0-4.75s-3.06 4.75 0 4.75zm-106.01-47.88c3.05 0 3.06-4.75 0-4.75s-3.07 4.75 0 4.75z" class="cls-2"/><path d="M436.72 105.49c-11.5 4.85-15.11 15.43-13.09 27.11 1.21 7.05 2.44 16.78-1.27 23.38-4.07 7.23-13.24 1.91-19.29.92-13.09-2.16-17.49 9.7-23.63 18.65-8.83 12.89-23.3 17.87-38.49 15.2-3-.53-4.27 4.05-1.26 4.58 12.08 2.12 25.09.36 34.94-7.42 5.3-4.18 9-9.83 12.42-15.54 4.3-7.16 8.33-12.57 17.48-10.31 5.2 1.28 10.63 3.61 16 1.65 4.66-1.7 6.92-6.38 7.92-10.94 1.49-6.79 1-13.69-.06-20.48-1.45-9.23-.05-18.15 9.61-22.22 2.77-1.17 1.55-5.77-1.27-4.58z" class="cls-4"/><path d="M297.16 107.18l17.47 6.82c2.85 1.12 4.08-3.48 1.26-4.58l-17.47-6.85c-2.84-1.12-4.08 3.47-1.26 4.58zm-7.79-12.7a17.66 17.66 0 0 1 .17-9.35c.84-2.95-3.74-4.2-4.58-1.26a22.66 22.66 0 0 0-.17 11.87c.74 3 5.32 1.71 4.58-1.26z" class="cls-2"/><path d="M354.75 140.78c3.05 0 3.06-4.75 0-4.75s-3.06 4.75 0 4.75z" class="cls-6"/><path d="M355.51 148.67c12.22 0 12.24-19 0-19s-12.25 19 0 19z" class="cls-6"/><path d="M383.62 109.91c12.23 0 12.25-19 0-19s-12.24 19 0 19z" class="cls-5"/><path d="M300.71 105.36c-2.27-3.79-5.13-7.63-6.65-11.8-1.62-4.44-1.16-9.32-.87-13.93.38-6.11-9.12-6.08-9.5 0-.35 5.48-.59 11.17 1.21 16.45 1.71 5 4.9 9.55 7.61 14.07 3.13 5.24 11.35.47 8.2-4.79z" class="cls-2"/><path d="M296.46 100.92A34.73 34.73 0 0 1 293 74.84c1.52-5.92-7.64-8.45-9.16-2.53a44.7 44.7 0 0 0 4.39 33.4c3 5.33 11.2.55 8.2-4.79z" class="cls-2"/><path d="M296 101.52c-7.46-1.19-7.91-16.7-7.07-22.45 1.1-7.47 6.51-14.4 14.59-14 6.11.3 6.1-9.2 0-9.5-13-.62-22.42 10.61-24 22.74-1.35 10.49.79 30.27 14 32.38 6 1 8.55-8.19 2.52-9.16z" class="cls-2"/><path d="M304.69 49.69c-14-.12-19.7 13.57-21.42 25.37-.87 6 8.28 8.56 9.16 2.52 1-7.07 3-18.47 12.26-18.39 6.11.05 6.12-9.45 0-9.5z" class="cls-2"/><path d="M308.3 52.44c3.53 0 3.54-5.49 0-5.49s-3.54 5.49 0 5.49z" class="cls-6"/><path d="M354.56 71.55c3.06 0 3.06-4.75 0-4.75s-3.06 4.75 0 4.75z" class="cls-4"/><path d="M295.66 156.38a5.33 5.33 0 0 0 3.69-6.6 5.56 5.56 0 0 0-10.86.29 6.66 6.66 0 0 0 2 6.33 7.63 7.63 0 0 0 10.31-.4 6.92 6.92 0 0 0-.23-10.06 8.13 8.13 0 0 0-5.42-2 7.38 7.38 0 0 0-5.93 3.31 4.78 4.78 0 0 0-.48 3.66 4.89 4.89 0 0 0 2.18 2.84c2.48 1.31 4.92.44 6.5-1.7-.6.81-1 1.27-1.77 1.37l.18-.06c.48-.11.25-.08-.68.08 1 .18-.48-.15-.47-.11a2.85 2.85 0 0 1 .39.11c-.82-.38-1-.46-.59-.24.64.39-.9-.83-.34-.27q.48.52-.39-.51l-.31-.79c.13.47.12.24-.05-.68 0 .5 0 .28.12-.65-.17.73.56-1.1.15-.42.54-.65.68-.84.42-.58s-.07.12.57-.42c-1 .42.7-.18.31-.06-1 .28 1.15.05.35 0s1.25.3.47.07q1.23.57.6.24a2.13 2.13 0 0 1 .87.81c.27.38.31.43.13.13a2.78 2.78 0 0 1 .43 1.54 3.89 3.89 0 0 1-5.91 3 3.63 3.63 0 0 1-1.71-2.2c.28-2.08.28-2.74 0-2l1.22-2.1 1.75-1a4.75 4.75 0 1 0 2.52 9.15zM230 84c.41 1.5.56 1.79.44.87-.05-.46-.08-.92-.12-1.38-.07-.92-.12-1.85-.13-2.77a11.5 11.5 0 0 1 .7-4.69c1-2.34.69-5.1-1.7-6.49-2-1.18-5.46-.66-6.5 1.7a23.2 23.2 0 0 0-2 10.4c.1 3.06 0 6.92 2.57 9.08 4.63 4 11.38-2.74 6.72-6.72z" class="cls-5"/><path d="M219.86 66.9a29.8 29.8 0 0 0 2.83 15.24c1.07 2.33 4.45 2.91 6.5 1.71 2.4-1.41 2.78-4.16 1.71-6.5a20.23 20.23 0 0 1-1.54-10.45c.24-2.56-2.35-4.75-4.75-4.75-2.76 0-4.51 2.19-4.75 4.75z" class="cls-5"/><path d="M228.75 84.69c-2.83-5-2.7-11.23-1.83-16.79.91-5.74 6.62-9 10.93-12.3 4.79-3.67.07-11.92-4.79-8.21-6.32 4.84-13.8 9.46-15.29 17.87-1.45 8.13-1.36 16.9 2.78 24.23 3 5.32 11.21.54 8.2-4.8z" class="cls-5"/><path d="M224.05 61.28c12.22 0 12.24-19 0-19s-12.24 19 0 19z" class="cls-4"/><path d="M306.88 192.45c3.05 0 3.06-4.74 0-4.74s-3.07 4.74 0 4.74z" class="cls-2"/><path d="M412.5 194.73c3.05 0 3.06-4.75 0-4.75s-3.06 4.75 0 4.75z" class="cls-5"/><path d="M209.52 62.8c3 0 3.06-4.75 0-4.75s-3.06 4.75 0 4.75z" class="cls-6"/><path d="M240.77 224.37c3 0 3.06-4.75 0-4.75s-3.06 4.75 0 4.75z" class="cls-2"/><path d="M280.47 75.37c6.11 0 6.12-9.5 0-9.5s-6.12 9.5 0 9.5z" class="cls-6"/><path d="M237.15 140.07c-4.7 5.52-9.3 15.49-7.19 23 1.94 6.91 11 4 14.58.06 1.32-1.45.52-4.4-1.75-4.21-2 .16-5.67 2.28-6.33-.65-.48-2.12 2.6-6.84 3.63-8.59A24.55 24.55 0 0 1 256.54 138c3-.62 1.85-4.52-.66-4.85-7.14-1-13.74 1.85-18.73 6.9-2.24 2.26 1.25 5.76 3.49 3.49a17.45 17.45 0 0 1 15.24-5.45l-.65-4.85c-10.48 2.15-17.85 9.56-22 19.17-1.4 3.24-3 7.79-.53 11 2.89 3.65 6.49.76 10.07.48l-1.77-4.23c-.89 1-3 2.61-4.39 2.51-3-.21-2-4.08-1.67-5.88a26.14 26.14 0 0 1 5.66-12.73c2.09-2.4-1.39-5.91-3.45-3.49z" class="cls-2"/><path d="M231.05 161.13c-6.68 11.64 8.81 21.54 19 15.9 3.37-1.86 8.19-7.27 5.65-11.39-3.08-5-12.74-1.18-16.32.88a2.5 2.5 0 0 0-.5 3.87 12.55 12.55 0 0 0 14.74 3.87c1.9-.78 2.55-3.32.59-4.52a19.07 19.07 0 0 0-14.59-2.36c-2.31.51-2.4 4.31 0 4.76a40 40 0 0 0 10.19.66l-.65-4.85c-5.44 1.05-13.19.32-11.19-7.32.91-3.47 2.71-6.52 3.21-10.13.43-3.11-4.33-4.45-4.76-1.31-.85 6.14-6 12.28-2.68 18.5s10.75 6.18 16.73 5c2.71-.52 2.12-5-.66-4.85a34.73 34.73 0 0 1-8.87-.48v4.76a13.9 13.9 0 0 1 10.8 1.88l.59-4.51a7.92 7.92 0 0 1-9.94-2.6l-.5 3.88c2.09-1.2 5.39-2.86 7.93-2.39 1.7.31 1.6-.13.69 1.75a7.16 7.16 0 0 1-3.86 3c-5.73 2.13-15.32-2.57-11.34-9.5 1.59-2.76-2.68-5.25-4.26-2.49z" class="cls-2"/><path d="M275.83 30.15L300 39.76c7.59 3 15.19 6.49 23.11 8.57 15.4 4.05 29.7.5 43.47-6.73 6.48-3.4 14.56-9 22.22-8 7.25 1 12.71 7.94 18 12.42 9 7.63 21.61 13.05 31.88 4.56 3.44-2.85-1.49-7.73-4.91-4.91-11.47 9.49-25-8.12-33.13-14.12C389 23 377.61 27.93 366.09 34c-6.51 3.43-12.95 6.88-20.24 8.36a47.53 47.53 0 0 1-23.58-1.47c-15.17-4.66-29.87-11.55-44.6-17.42-4.15-1.65-5.95 5.06-1.84 6.69z" class="cls-4"/><path d="M235.61 99.76a1.74 1.74 0 0 0 0-3.47 1.74 1.74 0 0 0 0 3.47zm87.77 34.57a1.74 1.74 0 0 0 0-3.47 1.74 1.74 0 0 0 0 3.47zM378.47 58a1.73 1.73 0 0 0 0-3.46 1.73 1.73 0 0 0 0 3.46zm-136.4 155a1.74 1.74 0 0 0 0-3.47 1.74 1.74 0 0 0 0 3.47z" class="cls-6"/><path d="M328.7 59.48a1.73 1.73 0 0 0 0-3.46 1.73 1.73 0 0 0 0 3.46zm-59.65 40.66a1.74 1.74 0 0 0 0-3.47 1.74 1.74 0 0 0 0 3.47zm68-61.14a1.74 1.74 0 0 0 0-3.47 1.74 1.74 0 0 0 0 3.47zm55.48 100.27a1.74 1.74 0 0 0 0-3.47 1.74 1.74 0 0 0 0 3.47zm-1.14 66.49a1.74 1.74 0 0 0 0-3.47 1.74 1.74 0 0 0 0 3.47z" class="cls-2"/><path d="M369.73 220.79c4.46 0 4.47-6.93 0-6.93s-4.47 6.93 0 6.93zM226.11 115.17c4.47 0 4.47-6.94 0-6.94s-4.46 6.94 0 6.94zm177.43 5.7c4.46 0 4.47-6.94 0-6.94s-4.47 6.94 0 6.94zm-8.74 101.82c4.47 0 4.47-6.93 0-6.93s-4.46 6.93 0 6.93zm-119.29-96.5c4.46 0 4.46-6.94 0-6.94s-4.47 6.94 0 6.94zm67.62-48.26c4.47 0 4.47-6.93 0-6.93s-4.47 6.93 0 6.93z" class="cls-5"/><path d="M380.75 218.94c8.92 0 8.94-13.87 0-13.87s-8.94 13.87 0 13.87zM271.33 48.35c8.92 0 8.93-13.87 0-13.87s-8.94 13.87 0 13.87zM391 58.61c8.92 0 8.93-13.87 0-13.87s-8.94 13.87 0 13.87z" class="cls-4"/><path d="M220.68 116.07a74.63 74.63 0 0 0-10-21.32c-4-5.91-13.77-.31-9.68 5.66a65 65 0 0 1 8.92 18.64c2 6.91 12.84 4 10.8-3z" class="cls-3"/><path d="M43.5 67.46c8.93 0 8.94-13.86 0-13.86s-8.94 13.86 0 13.86z" class="cls-4"/><path d="M34.34 65.79c1.09 1-1.6 6.2-2.07 7.85a60.44 60.44 0 0 0-1.87 10.44c-.84 7.51-1.08 15-2.38 22.47-2 11.42-4.56 29-18.11 32l8.53 4.84c-4.59-15-.64-30.76 1.7-45.87q3.8-24.42 5.86-49.1c.55-6.55 2.84-15.76-.53-21.85S14.1 19.46 8.79 23.78C3.13 28.38 2 37.23 1 44a92.32 92.32 0 0 0-.41 24.13c1 8.94 12.75 8.87 13.87 0l2.34-18.57c.31-2.48-.22-9.35 2.69-9.33 3.58 0 5.44 5.79 6.33 8.46a74.62 74.62 0 0 1 3.59 17.48c1.95 23.64-5.66 46.44-16.39 67.18l12.92 3.5c-1.07-17.17 6.44-32.78 10.46-49.11 3.73-15.12 4.6-31.19-3.17-45.23-3.1-5.64-10.68-3.61-12.67 1.66-7.82 20.68-1.3 42.77-5.84 63.89-1.86 8.71 11.5 12.43 13.38 3.69 4.51-21-1.87-43.52 5.83-63.89l-12.67 1.65c7 12.66 3.92 27.75 0 40.9-4.5 15.21-10.24 30.3-9.23 46.44.41 6.42 9.56 10 12.93 3.5 14.49-28 24-60.54 15.24-91.9-3.31-11.81-11.79-26-26.35-21.25C7 29.44 4.73 35.56 3.87 42.13c-1.13 8.66-2.19 17.33-3.28 26h13.87a86.13 86.13 0 0 1-.26-18.58 71.69 71.69 0 0 1 1.56-9.17c.29-1.21 1.46-3.84 1.38-5.09l.47-.93-4.38-.92c-.93.68-.48 7.69-.6 9.17q-.36 4.85-.8 9.69-.91 10.16-2.13 20.3C8.17 85.28 6 97.83 4.1 110.45c-1.81 12.28-2.7 24.62 1 36.66a7.1 7.1 0 0 0 8.5 4.89c19-4.21 24.88-25 27.8-41.71 1.65-9.54 1.6-19.29 3.25-28.71 1.6-8.84 7.56-18-.51-25.59-6.49-6.12-16.31 3.67-9.8 9.8z" class="cls-5"/><path d="M96.38 21.8c-12-2.76-24.21-2.87-36.46-2.33-6.07.27-12.13.59-18.2.88-4.92.24-10.11.13-14.76 1.94-11.6 4.5-9.46 16.17-5 25.29C26.52 57 35 62.49 45.59 61.43c11-1.1 22-6.11 32.18-10.23 7.84-3.17 22.55-8.85 18.44-20.27-4.36-12.14-21.67-4-30.23-3.41-5.71.39-11.52-.57-17.18-1.19-5-.54-10.2-1.58-15.1 0-12.56 3.9-10.21 19.57.36 24.37 5.94 2.7 12.28 1.79 18.35 0 6.59-1.98 13.13-4.21 19.69-6.3 8.47-2.69 4.9-16.08-3.69-13.4-8.92 2.84-18.34 7.11-27.69 7.37a4 4 0 0 1-1.72-.75c-1.88 1.75-2.24 2.36-1.06 1.85a19.22 19.22 0 0 0 3.08-.1c4.8.24 9.61 1.07 14.38 1.55a59.28 59.28 0 0 0 15.29-.05c1.83-.28 3.6-.68 5.39-1.1 2.1-.49 5.18-.6 7.1-1.46q4.83.72-.13-5.14a4.07 4.07 0 0 1-1.55 1.3 30.36 30.36 0 0 1-5.69 2.65c-4.31 1.8-8.67 3.47-13.05 5.06-6.13 2.23-17.65 8.33-24.11 4.63-2.65-1.53-4.18-4.81-5.34-7.56-1.58-3.67-2.76-4.14 1.37-4.67 9.17-1.17 18.81-1 28.07-1.36 10-.37 20.09-.32 30 2 8.68 2 12.39-11.37 3.68-13.37z" class="cls-2"/><path d="M47.05 131.5c3.69-10 1.17-20.24 1.88-30.56a68.08 68.08 0 0 1 3.38-15.3c1-3.38 1.9-9.37 5.13-11.44L47 68.21c-1.56 15.56-8 30.23-7.11 46.09.47 8 10.86 9.12 13.62 1.84q7.53-19.78 14-39.95c2.74-8.51-10.65-12.19-13.36-3.68q-6.46 20.16-14 39.95l13.62 1.84c-.9-15.68 5.56-30.61 7.1-46.09.52-5.23-6.28-8.66-10.43-6-9.19 5.9-12.07 19.55-14.11 29.57a72.24 72.24 0 0 0-1.21 18c.3 6.19.74 12.09-1.44 18-3.09 8.38 10.3 12 13.37 3.68z" class="cls-3"/><path d="M117.32 39c1.21-6.12-1.41-12.7-7.84-14.6-6.68-2-13.21 2.39-14.85 8.93l4.84-4.85c-2 .31-4.2-.54-6.23-.54A22 22 0 0 0 86.7 29a36.19 36.19 0 0 0-10.21 5.69c-7.12 5.2-12.62 11.5-18.68 17.81-5.33 5.55-13.14 7.5-18.5 13.17A42.28 42.28 0 0 0 29 85.78c-2 9.26-1.35 18.61 0 27.91.52 3.65 1.92 8.15.54 11.78-1.3 3.42-4.72 6-7.23 8.53A73.8 73.8 0 0 0 1 176c-.52 3.74.91 7.4 4.84 8.53 3.23.93 8-1.14 8.53-4.84 2.12-15.29 9.09-27.22 19.85-38 5.32-5.36 9.56-11.37 9.66-19.2.1-8.65-2.61-17.12-2.32-25.87.23-7 2-14.49 6.55-20.06s12-7.41 17.29-12.14c5.91-5.22 10.39-11.71 16.63-16.68 2.68-2.14 5.75-4.7 9.1-5.64 3.75-1.06 8.06.29 12-.3 2.26-.34 4.31-2.73 4.84-4.85l-4-1.7C102.24 44 115.6 47.71 117.32 39z" class="cls-3"/><path d="M32 241.81c-6.56-2.32-15.3-2.89-16.23-11.64l-12.92 3.5a26.94 26.94 0 0 0 5.34 6c2.92 2.33 7 2.85 9.8 0 2.42-2.42 2.94-7.46 0-9.81a15.12 15.12 0 0 1-3.17-3.17c-3.48-5.06-13.71-4-12.92 3.5.68 6.41 3 12.32 7.83 16.8 5.44 5.1 11.84 5.83 18.58 8.21 8.43 3 12.06-10.41 3.69-13.37zM198.55 63.65c8.92 0 8.94-13.87 0-13.87s-8.94 13.87 0 13.87z" class="cls-6"/><path d="M148.79 203.74l7.42 22.06a9.86 9.86 0 0 0 9.34 6.71H182a9.86 9.86 0 0 0 9.23-13.31L134.14 66.71a9.85 9.85 0 0 0-9.23-6.4h-19.2a9.85 9.85 0 0 0-9.23 6.42L39.71 219.22A9.86 9.86 0 0 0 49 232.51h16.39a9.86 9.86 0 0 0 9.35-6.74l7.33-22a9.86 9.86 0 0 1 9.35-6.77h48a9.86 9.86 0 0 1 9.37 6.74zM98.2 155.33l7.8-23.49a9.85 9.85 0 0 1 18.69 0l7.89 23.49a9.86 9.86 0 0 1-9.34 13h-15.7a9.85 9.85 0 0 1-9.34-13z" class="cls-3"/><path d="M89.83 245.69c6.07-4.24 12.33-8.3 19.64-10 8-1.84 16.54-1.94 24.67-2.69 7.31-.67 7.08-10.27 0-11.21a78.51 78.51 0 0 0-46.4 8.37l7.67 7.67c2.07-4.41 8.87-7.07 12.81-9.58 3.4-2.17 10.86-9 15.09-7.75l-4.11-5.4c.57-1 .19-.92-1.16.19a20.12 20.12 0 0 1-3.09 1.33 37.09 37.09 0 0 1-6.23 1.55l5.45 9.37a52.84 52.84 0 0 1 8.06-5c6.42-3.36.76-12.91-5.66-9.68a307.76 307.76 0 0 1-45.85 18.59l6.9 6.89c1.55-3.88 7.73-7.1 11-9.46 4.44-3.23 9-6.3 13.6-9.27 9-5.78 18.22-11.16 27.47-16.5l-5.69-9.68a433.87 433.87 0 0 1-65.65 37.32l7.65 7.66c1.77-4 6.71-6.7 10.12-9.28q6-4.53 12.07-8.88c8.13-5.81 16.43-11.36 24.87-16.72l-5.66-9.67a299.63 299.63 0 0 1-43.3 27.41l6.79 8.8c6.35-7.81 14.54-13.72 22.62-19.61 8.6-6.25 17.38-12.23 26.2-18.16l-5.66-9.67a128.7 128.7 0 0 1-16.23 10.73c-2.59 1.43-5.22 2.76-7.91 4-1.71.79-7.2 4.15-9 3.64l3.91 6.89a41.41 41.41 0 0 1 8-13.42l-9.4-5.47-2.58 8.1c-2.2 6.89 8.62 9.84 10.8 3l2.59-8.1c1.66-5.23-5.66-9.65-9.37-5.46A55.79 55.79 0 0 0 74 204.9c-1 2.86 1.18 6.12 3.91 6.89 6.62 1.87 15.08-3.41 20.87-6.29a125.91 125.91 0 0 0 20.94-13.2c5.53-4.26.48-13.8-5.66-9.67-9.34 6.27-18.63 12.61-27.71 19.26C78 208 69.51 214.1 63 222.15c-4 4.85.84 11.85 6.75 8.85a299.25 299.25 0 0 0 43.34-27.42c5.56-4.23.6-13.65-5.66-9.67q-14.24 9-27.91 18.9c-4.3 3.11-8.54 6.3-12.75 9.53-3.89 3-8.39 5.81-10.42 10.47-2.28 5.22 2.36 10.1 7.67 7.66a433.45 433.45 0 0 0 65.65-37.31c5.86-4.05.68-13.34-5.66-9.68-10.83 6.2-21.64 12.52-32.01 19.46q-7.51 5-14.7 10.52c-4.5 3.47-8.29 6.53-10.44 11.9-1.6 4 3.12 8.08 6.89 6.89a325.18 325.18 0 0 0 48.53-19.71l-5.66-9.68a69.17 69.17 0 0 0-10.32 6.76c-4.92 3.8.66 10.22 5.45 9.37 6.73-1.19 19.89-4.85 18.71-13.88-.34-2.55-1.52-4.63-4.12-5.41-8.34-2.5-15.47 3.61-22.08 7.83-6.08 3.88-15.24 7.75-18.48 14.65-2.36 5 2.48 10.35 7.67 7.67a68.36 68.36 0 0 1 40.69-6.85v-11.2c-9.13.84-18.71 1-27.65 3.09-8.22 1.9-15.49 6.35-22.32 11.11-5.87 4.1-.28 13.82 5.66 9.68z" class="cls-3"/><path d="M137.27 188.38c-9.2-7.77-27-6.21-30.37 7-4 15.7 12.63 23.34 24.88 26.1 7 1.58 10-9.23 3-10.81-5.72-1.29-14.86-2.81-16.85-9.42s7.46-8.3 11.44-4.94c5.47 4.63 13.44-3.26 7.92-7.93z" class="cls-2"/><path d="M205.05 119.89c5.78-14.49-.72-29.44-8.56-41.72-3.59-5.62-7.69-11.27-13.68-14.52-6.56-3.56-14.16-3.6-21.42-3.37-2.76.09-6 2.51-5.6 5.61a16.65 16.65 0 0 0 7.46 12.43c4.87 3.33 10.95 4.14 15.85 7.43 8.72 5.84 13.13 16.24 12.28 26.52-.59 7.19 10.62 7.15 11.21 0a40 40 0 0 0-9.44-28.76 37.26 37.26 0 0 0-12-9.52c-3.49-1.71-13.55-3.29-14.12-8.1l-5.6 5.6c5.46-.18 11.53-.61 16.44 2.23 4.46 2.59 7.31 7.38 9.95 11.64 5.93 9.58 10.93 20.36 6.47 31.55-2.68 6.69 8.16 9.6 10.8 3zM130 232c12.4 7.18 25 14.4 38.85 18.47 7.09 2.09 13.73 3.12 20.79.43 6.19-2.35 12.43-5.41 17.37-9.88s8.48-10.18 11.83-15.68c3.59-5.89 6.66-12.26 7.63-19.15 2.09-14.87-8.48-27.6-15.76-39.58-3.1-5.09-9.86-2.46-10.45 2.83-2.37 21.5-5.46 44-13.37 64.29-1.82 4.67-5.63 4.84-10.38 5a35.37 35.37 0 0 1-14.51-2.25c-9.51-3.72-16.14-12.26-22.36-20l-5.45 9.37 26.58 7.45v-10.77c-5.29 1-11-2.59-15.73.69a6.93 6.93 0 0 0-.16 11.66 9.64 9.64 0 0 0 11.64-.77c4-3.42 4.3-9.14 7.53-13.17 7.16-8.95 19.58-12.42 28.12-19.9a62.1 62.1 0 0 0 17.87-28c1.63-5.1-5.79-9.86-9.37-5.45l-24.5 30.15 8.8 6.79a50.12 50.12 0 0 1 9.28-14l-9.34-2.53a89.36 89.36 0 0 1 4 18.5c.49 4.94 7.79 8.37 10.44 2.83a112.42 112.42 0 0 0 6.92-20.11h-10.8l4 18.81c1.12 5.27 9.81 5.43 10.81 0q1.83-10 2.75-20.07l-10.44 2.83 8.26 18.82c2.42 5.52 10.14 2.15 10.45-2.83a28.47 28.47 0 0 0-1.3-10.26c-1.53-5-9.68-5.71-10.81 0A67.75 67.75 0 0 1 188 233.81l9.36 5.45 9.95-25.84c2.44-6.34-6.82-9.09-10.24-4.32l-17.47 24.33 10.4 2.83a102.94 102.94 0 0 1 6.18-24.17l-10.81-3a217.15 217.15 0 0 1-9 25.18l10.24 4.32q4.78-13.87 10.82-27.24c2.93-6.44-6.12-12.1-9.67-5.66l-7.73 14c-2.28 4.14-4.23 9.34-7.93 12.4l9.37 5.46a102.9 102.9 0 0 1 6.77-24.53L178 208.74a90 90 0 0 1-8.28 23.43l10.49 2.83c.31-4.25.76-8.46 1.4-12.67.75-5-5.22-10.06-9.37-5.45a189.34 189.34 0 0 0-14.54 19.05l10.44 2.83a36.19 36.19 0 0 1 3.32-12.63l-10.24-4.32a27.6 27.6 0 0 0-.34 5.37c.09 1.75-.57 3.57 1.12 3.48-5.18.28-8.1 7.77-2.83 10.44 9.77 5 17.12-2.86 22.4-10.33a69.54 69.54 0 0 0 11.69-29.27c.7-4.47-3.71-9.19-8.23-6.33-4.89 3.09-8.56 7.86-12.47 12.06L159 221.74l8.8 6.79 7.51-13.76c3.46-6.34-6.21-12-9.67-5.66l-7.52 13.77c-3 5.43 4.33 11.59 8.8 6.79l12.18-13.07c3.58-3.84 7.1-8.94 11.55-11.76l-8.23-6.32a62.24 62.24 0 0 1-6.16 19.41c-1.13 2.14-8 15.25-11.46 13.49l-2.8 10.45a10 10 0 0 0 8.78-5.36c2.16-3.95.68-7.6 1.25-11.72.76-5.62-7.27-10.67-10.25-4.32a51.68 51.68 0 0 0-4.84 18.29c-.47 6 7.56 7 10.44 2.83a166.77 166.77 0 0 1 12.78-16.78l-9.36-5.46c-.79 5.2-1.41 10.41-1.8 15.65-.41 5.54 7.94 7.63 10.44 2.82a101 101 0 0 0 9.41-26.1c1.22-5.8-7.63-10.5-10.24-4.31a113.56 113.56 0 0 0-7.9 27.2c-.86 5.59 4.87 9.18 9.37 5.45 4.08-3.38 6.27-8.47 8.77-13l8.63-15.67-9.67-5.66q-6.67 14.68-11.95 29.92c-2 5.92 7.72 10.19 10.24 4.32a243.74 243.74 0 0 0 10.1-27.86c2.06-7.05-8.28-9.58-10.81-3a114.77 114.77 0 0 0-6.58 27.15c-.75 6.11 7.62 6.76 10.44 2.82l17.48-24.32-10.25-4.32-9.95 25.84c-2.15 5.59 5.59 8.9 9.37 5.46A77.81 77.81 0 0 0 220 199.5h-10.8a19.27 19.27 0 0 1 .85 7.27l10.44-2.83-8.26-18.82c-2.47-5.62-10-2-10.44 2.83q-.79 8.61-2.36 17.09h10.81l-4-18.81c-1.16-5.51-9.44-5.17-10.8 0-1.57 5.93-3.14 11.88-5.8 17.43l10.44 2.83a102.89 102.89 0 0 0-4.36-21.49c-1.25-3.87-6.36-5.67-9.37-2.47a58.84 58.84 0 0 0-11 16.31c-2.38 5.27 4.44 12.15 8.8 6.79l24.5-30.15-9.39-5.48c-4.28 13.42-13.14 23-25.18 30-5.75 3.32-11.66 6.57-16.37 11.33a30.64 30.64 0 0 0-5.4 7.2 37.56 37.56 0 0 0-1.76 4.07c-.24.67-.48 1.34-.71 2-.83 1.32-.08 1.92 2.24 1.78l.57 4.32-1.48 2.5 1.58.33c1 .51 2.84.4 3.91.46a30.48 30.48 0 0 0 7.12-.67c5.63-1.05 5-9.39 0-10.81l-26.58-7.45c-5.81-1.63-8.77 5.26-5.45 9.37 7.6 9.41 15.67 18.52 27.3 22.84a45.44 45.44 0 0 0 18.27 2.63c5.36-.33 11.71-1 15.75-5s5.35-10.28 6.94-15.37c2-6.54 3.75-13.18 5.2-19.87a394.7 394.7 0 0 0 6.21-40.31L201 172.24c3.15 5.17 6.34 10.32 9.43 15.52 3 5 5.69 10.12 5.05 16.17-.6 5.69-3.41 10.91-6.34 15.72s-5.91 9.75-10.09 13.42A39.62 39.62 0 0 1 184 241c-5.35 1.4-11.34-.94-16.4-2.69-11.29-3.92-21.68-10-32-16-6.26-3.62-11.91 6.06-5.66 9.68zm-61.13 6.85c-13.21 2-24.09-5.25-34-13-4.06-3.19-8.73-7.16-9.58-12.57-1-6.24 1.42-13.75 2.23-19.95 1.72-13.09 3.42-26.33 9.66-38.16 2.8-5.31 5.87-11.42 9.88-15.9s11.11-6.3 16.52-8.27l-6.33-8.23-27.52 43.61c-4 6.37-8.59 12.7-10.49 20.1-2 7.69-2 16-1.66 23.92.24 5.46 7.52 7.74 10.44 2.82a322 322 0 0 0 23.73-49l-11-1.49c.29 6.46-3.64 13.22-6.08 19.05-2.64 6.31-5.41 12.58-8.25 18.81-2.95 6.46 5.78 11.89 9.67 5.66l21.11-33.8-10.45-2.83a98.64 98.64 0 0 1-4.33 29.9c-2.14 7 8.29 9.6 10.81 3A56 56 0 0 0 56 190.41c1-7.06-9.77-10.11-10.8-3a56 56 0 0 1-2.79 12.06l10.81 3A109.32 109.32 0 0 0 58 169.59c-.05-5.64-7.52-7.51-10.44-2.83l-21.1 33.8 9.67 5.66q4.88-10.66 9.39-21.49c2.92-7 6.82-14.27 6.48-22-.29-6.56-8.77-7.3-11-1.49a305.54 305.54 0 0 1-22.6 46.36l10.45 2.83c-.31-7.13-.55-14.92 1.48-21.83 2.11-7.15 7.28-13.59 11.21-19.83l25.45-40.36c2.48-3.95-1.7-9.92-6.33-8.24-6.61 2.4-14.47 4.83-19.83 9.55-5.51 4.86-9.42 12.62-12.85 19-8.16 15.14-9.75 31.68-12.12 48.41-1.07 7.53-3.14 15.2-.25 22.58 2.56 6.53 7.7 11.24 13.15 15.42 13.13 10.07 26.13 17.11 43.15 14.57 7.11-1.06 4.08-11.86-3-10.81z" class="cls-3"/><path d="M83.54 113.17c2.91-18.9 6-38.36 17.56-54.18l-10.45-2.83a48.25 48.25 0 0 1-9.37 25.5L91.53 86a117.82 117.82 0 0 0 1.62-29.11c-.46-6.48-8.71-7.39-11-1.49a578.73 578.73 0 0 1-33.1 70.6c-3.49 6.31 6.17 12 9.68 5.65a320.14 320.14 0 0 0 27.92-67.14L75.64 63c-2.38 31.81-13.92 61.91-26.11 91.08-2.42 5.81 7.73 10.15 10.25 4.32l9.5-22c2.49-5.76 4.44-13.16 9.54-17.18l-9.57-4c1.16 10.11-5.53 19.61-9.91 28.28-4.69 9.29-9.44 18.56-14.08 27.88A77.94 77.94 0 0 0 37 198c-1 8.83-2.11 18.09 1.91 26.32 3.16 6.49 12.83.81 9.67-5.65-1.85-3.81-1.36-8.21-1.09-12.3A97.48 97.48 0 0 1 49 193c1.92-9.27 6.79-17.55 11-25.91l12.91-25.55c4.17-8.24 8.66-16.74 7.57-26.27-.58-5.06-5.6-7.09-9.57-4-5.55 4.38-7.82 11.42-10.53 17.68L50.1 152.76l10.24 4.32C73 126.86 84.39 96 86.85 63c.48-6.44-9.3-7.42-11-1.49A306 306 0 0 1 49.05 126l9.68 5.65A599.54 599.54 0 0 0 93 58.36l-11-1.49A105.89 105.89 0 0 1 80.72 83 5.63 5.63 0 0 0 91 87.32a59.07 59.07 0 0 0 10.9-31.16c.38-6.08-7.48-6.9-10.44-2.83-12.11 16.58-15.67 37.05-18.73 56.86-1.09 7.06 9.71 10.1 10.81 3z" class="cls-3"/><path d="M104.28 58.58c3.54-15.38-17.71-18.93-26.14-9.32-4.65 5.3-6.56 14.13-8.22 20.8a117.54 117.54 0 0 0-3.34 25.4c-.19 7.22 11 7.21 11.21 0a104.59 104.59 0 0 1 3.89-26c1-3.48 2-9.36 4.39-12.09 1-1.11 7.75-3.25 7.4-1.75-1.61 7 9.19 10 10.81 3z" class="cls-3"/><path d="M221.32 133.46c5.12-23.74-1-50.89-18.84-68.07a41.74 41.74 0 0 0-31.95-12.19 37 37 0 0 1-20-4.17c-5.84-3-11.51-6.17-17.69-8.43-21.15-7.76-55.81-9.13-67.44 14.56C60.47 65.29 60 76.58 58 87.5c-2.37 13.23-6.44 27.12-13.21 38.82-3.4 5.88-9.27 7.92-14.51 11.79a54.89 54.89 0 0 0-12.23 12.44c-7.56 10.63-9.75 22.85-9.49 35.67.14 7 .25 13.85-.12 20.82-.34 6.22-.52 12.69 1.27 18.74 3.56 12 14 18.86 24.86 23.58 12.38 5.36 24.84 8.41 38.31 6.09 12.21-2.1 23.35-7.85 35.1-11.49 13.29-4.13 24.89-3.1 37.87 1.72 12.52 4.64 24.37 10.59 37.87 11.82 14.72 1.34 27.42-4.59 36.3-16.25 8.75-11.48 15.23-26.21 15.5-40.8s-6.22-26.45-17.06-35.89c-11.23-9.82-19.1-20.67-19.3-36.17-.09-7.33-11.49-7.35-11.39 0A54.48 54.48 0 0 0 198 159.88c6.56 9 17.39 14.48 22.61 24.34 5.51 10.39 4 22.83-.21 33.38-4 10.05-10.58 22-20.92 26.53-10.86 4.79-23.58 1.11-34.09-2.87-11.48-4.35-22.55-9.86-34.9-11.28-23-2.66-41.6 13.05-63.79 14.88-11.52.95-23.4-3.22-33.4-8.72-4.46-2.46-8.91-5.56-11.3-10.22-2.84-5.53-2.47-12-2.18-18s.46-11.92.28-17.92c-.2-6.43-.5-12.94 1.06-19.23a41.56 41.56 0 0 1 18.09-25c4.63-2.93 9.31-5.32 12.75-9.73 3.77-4.84 6.15-10.8 8.47-16.43a144.23 144.23 0 0 0 9.33-34c1.39-9.35 1.94-20.19 7.48-28.23 6.45-9.38 19.64-10.44 30.05-10.17 14.29.37 25.76 5.82 38.25 12 6.06 3 12.33 5.36 19.17 5.54s12.89-1.09 19.3 1.6c23.17 9.73 31.11 41.65 26.28 64-1.54 7.15 9.45 10.21 11 3z" class="cls-3"/><path d="M172.94 127.1c4.73-5.5 11.59-8.63 15-15.29 3.3-6.38 4.32-15.34 4.14-22.46-.45-16.85-14.73-26.66-27-35.83-13.22-9.84-31.29-12.38-47.33-14.21-16.94-1.93-26.88 12.52-25.88 28.28a5.67 5.67 0 0 0 9.56 4c3.73-3.47 7-10 12-11.68 2.83-.95 6.77-.2 9.68-.08l12.46.51-1.49-11a66.39 66.39 0 0 0-24.24 9.49l8.23 6.32c.82-3.54 10.9-.82 13-.24a87.3 87.3 0 0 1 12.29 4.68c7.43 3.35 14.84 6.95 21.49 11.72C171.27 85.88 177 92 180.24 99.33c2.64 6.07 4.49 15.12-1.36 19.85h7.92a91.77 91.77 0 0 1-11.47-15.48q-2.31-3.93-4.25-8.07c-.93-2-3.65-6.38-3.1-8.72l-8.23 3.35a68.19 68.19 0 0 1 22.6 24.81c3.43 6.35 13.11.7 9.68-5.65a79.94 79.94 0 0 0-26.63-28.84 5.65 5.65 0 0 0-8.23 3.35c-1.76 7.54 3.36 16.1 6.85 22.54a104.82 104.82 0 0 0 14.86 20.64c2.19 2.4 5.65 1.83 7.92 0 8.51-6.88 8.24-19.69 4.89-29.14-3.91-11-11.84-19.7-21.22-26.39a131.08 131.08 0 0 0-33-16.44c-9.2-3.16-27.23-6.14-30.25 7-1 4.54 3.92 9.08 8.23 6.33A58.36 58.36 0 0 1 137 60.1c6.45-1.14 4.56-10.76-1.49-11-8.18-.33-18.68-2.58-26.5.47-6.86 2.68-10.37 9.27-15.53 14.06l9.57 4c-.37-5.75.42-12.34 5.64-15.82 4.72-3.15 11.59-.89 16.69 0 6.76 1.19 13.53 2.44 20.12 4.19 5.83 1.57 10.46 4.55 15.23 8.16 9.52 7.21 20.73 14.56 20.13 27.8-.24 5.26-.71 12.39-4.14 16.68-3.28 4.09-8.27 6.52-11.71 10.52-4.69 5.44 3.21 13.4 7.93 7.92z" class="cls-3"/><path d="M187.11 190.52c9.71-11.06 19.54-22.55 24.09-36.81 2.42-7.58 3.07-15.71 3.24-23.63.14-7.1 1-15.09-4.36-20.58-4.27-4.35-10.46-8.43-16.82-7.06-6.92 1.49-12.95 7.85-17.78 12.67a112.29 112.29 0 0 0-24.07 36.34c-2.17 5.15 5.88 9.57 9.36 5.45a118.92 118.92 0 0 1 17.47-17 109 109 0 0 1 9.73-6.77c1.65-1 3.34-2 5.05-3 .87-.48 3.78-2.62 4.69-2.55l-4-1.64c1.43 1.4 1.37 8.8 1.39 10.71a46.89 46.89 0 0 1-1.1 10.6 71.49 71.49 0 0 1-9.29 21.64c-1.06 1.73-2.16 3.42-3.3 5.1l-1 1.43q-3.37 3.54 4.25 1.47c0-.74-2.29-3.57-2.68-4.25a56.49 56.49 0 0 1-2.7-5.32 57.32 57.32 0 0 1-4.68-22.24l-10.44 2.83c5.87 10.76 13.49 20.34 21.14 29.88 3.63 4.53 10.78-.4 9.37-5.46-4.63-16.52-17.5-31-17.24-48.74l-11 1.49a242.52 242.52 0 0 0 21.17 43c2.28 3.64 9.55 3.75 10.25-1.34 2.21-16.12 1.89-32.24 1.28-48.46h-11.2l3.61 33.24c.76 7 11.41 7.37 11.2 0q-.56-20.1-3-40c-.88-7.08-10.57-7.32-11.21 0a208.44 208.44 0 0 0-.68 25.24c.18 5.35 7.69 7.89 10.44 2.83l7-12.83-10.29-1.38a34.24 34.24 0 0 1-1.22 18.49h10.81a165.73 165.73 0 0 1-2.32-17.47c-.35-4.61-1.87-11.76 0-16.09L192 109a22.1 22.1 0 0 1-4 20.71c-4.48 5.45-10.12 9.52-13.62 15.8l10.24 4.32 10.21-31.23-11-1.49a102.33 102.33 0 0 1-3.52 34.65c-1.95 7 8.86 9.93 10.8 3a111.71 111.71 0 0 0 3.89-37.68c-.42-6.28-9-7.64-11-1.49l-10.21 31.23c-2 6.05 7.17 9.83 10.25 4.31 4.18-7.51 12.11-12 16.24-19.66a33.62 33.62 0 0 0 2.54-25.47c-1.23-4.18-8.23-6-10.24-1.34-2.72 6.32-2.1 13.09-1.67 19.84a193 193 0 0 0 2.86 22.36c1.08 5.82 9.2 4.82 10.81 0a45.77 45.77 0 0 0 1.22-24.45c-1-4.71-8-5.46-10.25-1.34l-7 12.83 10.45 2.82a208.44 208.44 0 0 1 .68-25.24h-11.19q2.47 20 3 40.05h11.2l-3.61-33.24c-.76-7-11.48-7.36-11.2 0 .56 15.14 1.18 30.42-.89 45.48l10.24-1.34a227.53 227.53 0 0 1-20-40.33c-2.15-5.7-10.92-5.17-11 1.49-.28 19.26 12.66 33.94 17.64 51.72l9.37-5.45c-7.06-8.8-14-17.67-19.39-27.61-2.67-4.89-10.53-2.66-10.45 2.83a68.53 68.53 0 0 0 4.7 24.35c2.1 5.29 6.15 16.51 12.43 17.93 6.95 1.57 11.44-8.8 14.31-13.55a80.27 80.27 0 0 0 10-23.58c2.12-9.41 4.24-40.49-13-32.09a121.77 121.77 0 0 0-39 30.84l9.36 5.45a98.11 98.11 0 0 1 17.8-27.84 82.41 82.41 0 0 1 12.06-11.26c2.58-1.87 4-2.41 6.72-.66 2.29 1.47 4 3 4.44 5.68.82 5.61.1 12.19-.4 17.82a54.93 54.93 0 0 1-3.89 16.52c-4.47 10.59-12.26 19.37-19.75 27.9-4.74 5.41 3.15 13.36 7.92 7.93z" class="cls-3"/><path d="M184.33 193.48a72.3 72.3 0 0 0 4.49-8.87c1.14-2.69.9-6.13-2-7.66-2.4-1.27-6.45-.88-7.67 2a73.69 73.69 0 0 1-4.48 8.87 5.6 5.6 0 1 0 9.67 5.65z" class="cls-3"/><path d="M257.71 156.16c1.7-7.55 5-16.3 4.07-24.09-1.14-9.6-8.83-15.5-18.07-16.36-13.13-1.23-27.41 4.65-35.58 15-9 11.4-15.59 26.73-6.21 40 7.89 11.18 21.54 16.7 34.16 20.58 5.69 1.75 11.6-2.09 13.27-7.54a154.69 154.69 0 0 0 6.48-36.15c.35-5.83-5.21-10.79-10.79-10.79-6.13 0-10.44 4.95-10.79 10.79a129.77 129.77 0 0 1-5.71 30.4l13.28-7.54a77.51 77.51 0 0 1-12.08-4.57 55.81 55.81 0 0 1-5.21-3 9.7 9.7 0 0 1-2.74-2.11l-1.42-1.42c-.41-.41-1.47-2.1-.33-.33-.68-1.05-1.23-3.16-.8-1.05-.84-4.1.81-6.88 3.09-10.38a49.99 49.99 0 0 1 2.14-3.09c-.7.93-.24.27.22-.25a24.49 24.49 0 0 1 3.18-3.13 23.6 23.6 0 0 1 9.55-3.82c.17 0 4.8-.19 4.82-.24-.17.4-2.35-2.43-1.79-2.58-.51.14-1.34 6-1.51 6.76l-2 9.09c-3 13.53 17.76 19.3 20.81 5.74z" class="cls-2"/><path d="M220.32 93.65c-3.21-3.83-4.53-9.48-6.54-14a78.19 78.19 0 0 0-7.85-14c-6.23-8.62-14.38-15.6-24.61-18.9-5.16-1.67-10.39-2.72-15.38-4.94-4.79-2.12-9.41-4.61-14.21-6.71a65.4 65.4 0 0 0-15-4.91c-2.76-.49-5.56-.73-8.32-1.19-1.1-.18-2.19-.37-3.27-.63a22.55 22.55 0 0 1-2.4-.68c-1.39-.59-1.15-.17.7 1.25l.7 5.35c.92-4.17 6.47-1 8.91-.06a40.85 40.85 0 0 0 16.22 2.85c6.11-.18 12.1-1.52 18.15-2.25a92.29 92.29 0 0 1 18.58-.08c3 .24 5.92.58 8.87.94 2.52.31 6.35.2 8.67 1.43 3.74 2 3.29 8.33 3.43 11.85q.78 18.83 1.52 37.66c.35 8.88 14 9 13.86 0-.38-19.43-.82-39 2.29-58.29 1-5.95-6.73-12.78-11.59-6.74-10.36 12.87-9.36 28.5-14 43.53l11.59-3.06c-4.34-3.39-6.78-8.39-10.73-12.16-4.5-4.28-10.08-7.32-15.63-10A122.9 122.9 0 0 0 146.44 29v13.85c11.63-.05 23.31-.14 34.88 1.2 4 .45 9.42.38 12.14 3.66 3 3.58 4.73 7.18 8.56 10.11 4.31 3.29 10.48-1.21 10.43-6a71.29 71.29 0 0 0-2.46-18c-2.33-8.6-15.71-5-13.38 3.69a56 56 0 0 1 2 14.33l10.43-6c-3.3-2.52-4.6-7.37-8-10.1-4.51-3.68-10.32-4.33-15.9-5.08-12.84-1.72-25.78-1.73-38.72-1.67-9.19 0-8.58 12.76 0 13.86a102.84 102.84 0 0 1 32.46 9.84c4.4 2.2 9 4.55 12.36 8.19s5.65 7.92 9.58 11 9.91 2.34 11.59-3.06c3.69-11.89 2.32-27.3 10.46-37.42l-11.57-6.74c-3.31 20.54-3.19 41.22-2.77 62h13.86L221 51.86c-.36-8.86-.44-18.73-7.87-24.91-3.86-3.22-8.49-3.85-13.3-4.49-6.22-.82-12.45-1.63-18.72-1.9-10.82-.45-21.09 2.4-31.8 2.7-9.75.28-18.49-7.08-28.25-4-7.44 2.31-15.22 14.22-6.65 19.9 3.89 2.57 9.18 3.15 13.68 3.78a65.12 65.12 0 0 1 14.5 3.36c8.75 3.32 16.73 8.4 25.68 11.3 5.38 1.74 10.76 2.53 15.63 5.59a39.05 39.05 0 0 1 11 10.93c6.33 9.19 8.44 20.85 15.59 29.37 5.74 6.85 15.5-3 9.8-9.8z" class="cls-6"/><path d="M290.51 175.18c-5.85 16.57-21.7 15.64-25.57 20.72a12.58 12.58 0 0 1-7.06 4.71l-26 6.23a12.25 12.25 0 0 1-15.09-11.92v-12.06a12.25 12.25 0 0 1 10.11-12.07c21.38-3.79 68.93-10.67 63.61 4.39z" class="cls-4"/><path d="M139.24 250.57l1.16 2a7.26 7.26 0 0 0 4.14 3.19 5.33 5.33 0 0 0 2.77.12 5.23 5.23 0 0 0 2.58-.82 7 7 0 0 0 3.18-4.15 7.25 7.25 0 0 0-.69-5.34l-1.16-2a7.19 7.19 0 0 0-4.15-3.18 7.68 7.68 0 0 0-5.34.7 7 7 0 0 0-3.18 4.14 7.25 7.25 0 0 0 .69 5.34z" class="cls-6"/><path d="M97.66 253.9c3.85-4.57 11.58-5 17.15-5.36a36 36 0 0 1 11 1c2.21.53 8.44 1.45 9.84 3.23l1.4-10.89c-.83.48-5 0-6.74 0l-8.88.15-17.75.32c-8.92.16-9 14 0 13.87l21.7-.39c5.92-.11 13.35 1 18.67-2 4.24-2.44 4.1-7.47 1.4-10.89-3-3.83-8.82-4.88-13.31-6.11a52.36 52.36 0 0 0-17.32-2.13c-9.24.63-20.59 1.87-27 9.43-5.71 6.78 4.05 16.64 9.81 9.8z" class="cls-6"/><path d="M159.8 164.07c16.56 5.85 15.63 21.7 20.71 25.56a12.53 12.53 0 0 1 4.71 7.06l6.23 26a12.25 12.25 0 0 1-11.91 15.1h-12.07a12.26 12.26 0 0 1-12.06-10.12c-3.81-21.37-10.68-68.92 4.39-63.6z" class="cls-4"/><path d="M155.69 211a21.28 21.28 0 0 1-2.39 6 21.17 21.17 0 0 1-4.92 4.71c-2.47 1.9-.1 6.17 2.49 4.27l1-.73c2.53-1.86.07-6.15-2.49-4.26l-1 .72 2.49 4.27a29.74 29.74 0 0 0 6.23-5.83 24.47 24.47 0 0 0 3.35-7.84c.89-3.06-3.87-4.37-4.76-1.32z" class="cls-2"/><path d="M154.93 211.74c.4 4.89-4.44 7.35-8.15 9.29-2.82 1.47-.33 5.73 2.49 4.26 5.29-2.76 11.15-6.78 10.6-13.55-.26-3.15-5.2-3.18-4.94 0z" class="cls-2"/><path d="M138.22 217.65a31.37 31.37 0 0 0-7.52-6.78c-4.51-3.24-6.31-6.83-7-12.28-1-7.85 7.74-9.24 13.64-7.3a18.52 18.52 0 0 1 7.06 4.52c1.19 1.18 5.13 5.05 4.17 7l3.88-.5c-5-6.17-11.85-13.41-20.33-14.08-8.26-.66-11.89 6.08-10.74 13.5 1.41 9.07 5.46 14.5 14.42 17 8.17 2.23 16.85.73 22.85-5.49l-4.22-1.75c-.26 10.57-16.75 3-21 .29-3.27-2-6.21-4.85-7.26-8.68a9.48 9.48 0 0 1-.18-4.58c.51-2.27 3.29-6.6 6.35-4.15 2.42 2 5.74-1.14 3.49-3.49a12.12 12.12 0 0 0-16-1c-5.48 4.16-6.65 12-5 18.3 2.07 7.7 8.44 10.11 15.63 11.66 8 1.72 15.91 1.78 22.59-3.47 1.47-1.15.59-3.75-1.09-4.13-5.72-1.3-13.62-.52-18.33-4.1-4.89-3.71-8.45-9.55-11.05-15l-3.38 3.38a190.6 190.6 0 0 0 30.55 17.57l1.25-4.6c-8.65.05-18.25-1-23.42-8.84l-3.36 3.35a110.7 110.7 0 0 0 25.68 8.9 2.48 2.48 0 0 0 1.9-4.51l-31-19.66-2.52 4.27c10.31 4.68 23.71 6.33 30.41 16.45l3.38-3.38c-6.78-4.13-11.15-11.11-18.91-13.75-5.48-1.86-15.51-4.21-17 3.8l3.62-1.48c-1.7-1.08-.06-3.47 1.09-4.23 1.32-.88 3.44-.88 4.94-1a31 31 0 0 1 9.53 1.21c2.62.7 4.5-3.28 1.91-4.51A22.22 22.22 0 0 0 129 184c-3.17-.23-3.16 4.71 0 4.94a14.78 14.78 0 0 1 5.76 1.51l1.91-4.51c-5.88-1.58-14.74-3-19.9 1.34-3.78 3.21-3.71 9 .53 11.67a2.49 2.49 0 0 0 3.63-1.48c1.2-6.33 16 2.24 18 4 3.52 3 6.62 6.42 10.64 8.86 2 1.25 4.76-1.29 3.38-3.38-7.44-11.22-20.75-13-32.19-18.21-2.85-1.29-5.23 2.53-2.49 4.26l31 19.66 1.9-4.51a105.31 105.31 0 0 1-24.5-8.4c-2-1-4.83 1.16-3.38 3.38 6.2 9.44 17.11 11.35 27.69 11.29 2.29 0 3.56-3.54 1.24-4.6a192 192 0 0 1-30.54-17.57c-2.21-1.56-4.34 1.37-3.38 3.37 3 6.23 7.23 12.65 12.84 16.83 5.45 4.06 13.13 3.1 19.49 4.54l-1.09-4.13c-4.4 3.46-10 3.59-15.29 2.71-4.3-.72-10.69-1.53-13.33-5.45-2.54-3.76-2.62-10-.36-13.81 2.43-4.14 8.17-5.62 11.68-2l3.49-3.49c-4.36-3.5-10.43-2-13.26 2.82-3.45 5.85-1.37 13.37 3 18.09 7 7.5 33.35 18 33.81-.3a2.49 2.49 0 0 0-4.21-1.74 17.19 17.19 0 0 1-15.65 4.78 21.94 21.94 0 0 1-8.37-3c-2.79-1.93-3.66-5.06-4.41-8.17-.64-2.64-1.66-6.83.64-9 2.61-2.46 7.29-.63 9.84.73 4.75 2.55 8.4 6.67 11.75 10.8a2.49 2.49 0 0 0 3.88-.5c2.73-5.58-2.94-11.59-7.08-14.87-5.88-4.66-14-6.5-21-3.23s-6.67 9.77-5.06 16.44a16.38 16.38 0 0 0 4.82 8.55c3 2.8 7 4.52 9.52 7.92 1.86 2.54 6.15.08 4.27-2.49z" class="cls-2"/><path d="M119.88 215c4 7.4 13 10 20.78 11.05 3.2.44 7.08 1.3 10.27.34s5.13-3.69 6.85-6.33-2.53-5.14-4.26-2.49-3.21 4.18-6.51 4.19a45.25 45.25 0 0 1-8.37-1c-5.48-1.06-11.67-3.07-14.49-8.25-1.52-2.79-5.79-.3-4.27 2.49z" class="cls-2"/><path d="M151.53 220.07a124.09 124.09 0 0 1-12.53-2.39c-3.08-.75-4.4 4-1.31 4.77q6.21 1.5 12.53 2.39c3.11.43 4.45-4.33 1.31-4.77z" class="cls-2"/><path d="M156.72 221.39a19.59 19.59 0 0 0-.29-18.68c-1.13-2-4.85-1.25-4.6 1.25a33.48 33.48 0 0 1-1.21 13.16c-.9 3 3.86 4.35 4.76 1.31a37.08 37.08 0 0 0 1.39-14.43l-4.6 1.24a14.44 14.44 0 0 1 .29 13.7c-1.44 2.82 2.82 5.33 4.26 2.49zM98 82.91c-6.84 26.22 6.27 35.34-26.22 47.88s-54.71 14.82-17.09 39.33c31.67 20.63 79.55-8.79 80.36-9.69 5.13-5.7 37.05-31.35 37.05-46.17 0-6.54-8.71-34.22-23.94-43.31C128.87 59.44 101.8 68.27 98 82.91z" class="cls-2"/><path d="M167.08 127.89c-3.67-3.73-10.09-2.55-12.57 1.93-2.7 4.86.42 10.91 5.29 12.77 4.39 1.69 10.34-.36 11.44-5.32a8 8 0 0 0-1.54-6.72 7.22 7.22 0 0 0-7.27-2.62c-2.47.38-4.05 3.6-3.32 5.85.87 2.68 3.2 3.72 5.84 3.31a2.84 2.84 0 0 1-2.33-.38c-.29-.23-.67-1-.38-.31-.1-.21-.29-1.35-.29-.9s.13-.75.24-.95c.2-.39.54-.51.82-.79.28-.1.29-.11 0 0s-.25.08.31 0c-.91-.12.47 0-.1 0-.19 0-1.15-.37-.15 0-.37-.13-.41-.18 0 0-.33-.35-.38-.41-.16-.16s.18.18-.07-.22c.07-.05.16.77.07 0 0 .18-.09 1.15 0 .73s-.29.5-.39.64c-.45.32-.53.39-.23.22s.21-.12-.07 0-1.16.11-.42.18a2.27 2.27 0 0 1-1.52-.52 4.75 4.75 0 1 0 6.72-6.71z" class="cls-5"/><path d="M101.4 82c6.11 0 6.12-9.49 0-9.49s-6.12 9.49 0 9.49zM86 215.33c6.11 0 6.12-9.49 0-9.49s-6.12 9.49 0 9.49z" class="cls-4"/><path d="M189.13 119c6.11 0 6.12-9.49 0-9.49s-6.12 9.49 0 9.49z" class="cls-6"/><path d="M86.5 239.75c1.65-8.34-4.21-12.76-11.07-15.91a101 101 0 0 0-12-4.65c-3.22-1-7.26-2.66-10.52-1.05-5.27 2.59-5.56 10.57-3.69 15.28 2.4 6.05 8 8.64 14.15 9.36 3.15.37 6.81.07 9.71 1.57 2.49 1.28 3.76 2.5 6.74 1.47 3.25-1.13 6.86-3.72 9.71-5.71a9.92 9.92 0 0 0 4.58-6.64c.93-6.05-4-11.09-9.75-11.82-7.9-1-15.3 7.19-22.72 3.09-5.35-3-10.15 5.24-4.79 8.2 7.76 4.28 13.63 2 21.25-.82 1.17-.44 5.28-2.22 6.27-.63.6.95-1.36 1.48-2.2 2s-6.68 3.13-3.17 3.4c-1.06-.08-2.94-1.64-4.09-2-4.6-1.54-16.53.48-17.28-6.34a4.51 4.51 0 0 1 .37-2.45c-1 1.27-.6 1.85 1.22 1.74 1.31.87 3.64 1.12 5.12 1.64 2.15.76 13.74 4.21 13 7.74-1.18 6 8 8.53 9.16 2.53z" class="cls-2"/><path d="M80.31 228.63H59.8c-6.12 0-6.13 9.5 0 9.5h20.51c6.12 0 6.13-9.5 0-9.5z" class="cls-2"/><path d="M76.36 227.28a18.77 18.77 0 0 0-9.75-17.94c-3.45-1.93-7.29-3-10.69-5a32.47 32.47 0 0 1-9.17-8.58c-4.3-5.74-9-10.95-16.9-9.78-6.82 1-12.26 6.1-14.67 12.41-5.9 15.43 6.75 25.4 19.09 31.58a32.83 32.83 0 0 0 11.27 3.64c4.89.5 9.7-.78 14.57.13 3.12.59 6.13 1.12 8.84-1a8.81 8.81 0 0 0 3.18-8.13c-1.27-9.34-11.65-8.79-18.63-9.38a33.38 33.38 0 0 1-13.93-4.29c-3-1.76-9.48-6.37-7.57-10.73l-6.5 1.7c6.27 2.79 9 9.74 14.1 14a29.45 29.45 0 0 0 8.7 5 36.25 36.25 0 0 0 4.42 1.34c1.37.31 4 .16 5.13 1l-2.18-2.84.14.84.48-3.66c.69-1.05-2 .05-2.9.19a38 38 0 0 1-3.83.43 28.31 28.31 0 0 1-9.66-.85c-5.38-1.56-9.77-5.24-11.24-10.75-1.57-5.9-10.73-3.39-9.15 2.53 2.23 8.39 8.88 14.51 17.05 17.14a36.7 36.7 0 0 0 14.7 1.29c4.06-.39 9.54-.59 12.36-3.95a5.83 5.83 0 0 0-1.35-8.84c-3.45-2.13-8.46-1.66-12.27-3.4-8.39-3.85-11.21-13.83-19.71-17.61-2.12-.94-5.38-.84-6.49 1.71-6.17 13.96 9.28 24.67 21.2 27.82a49.77 49.77 0 0 0 11 1.53h3.18a6.6 6.6 0 0 1 3.13.68c3.24-.86-1.41-1.4-2.14-1.51-4-.62-7.94.33-12 .21-4.79-.14-8.82-2.27-12.9-4.58-5.69-3.22-12.59-6.91-12-14.48.5-6.58 7.68-13.67 13.35-7.19 4.74 5.41 8.19 10.69 14.53 14.51 6.62 4 16.44 4.91 15.74 14.77-.44 6.1 9.06 6.07 9.49 0zm68.42-177.76c-7-5.59-17.18-7.1-24.51-1.05-6.61 5.46-8.35 15.8-3.38 22.91 5.5 7.85 16.48 8.34 24.18 13 7.86 4.76 19.19 9.86 26.18.7 6.75-8.85-2.14-17.61-9-22.74-4-3-8.4-5.68-11.9-9.37s-6.31-7-12.09-6.94c-9.59.13-17.68 9.1-14.94 18.76 1.19 4.19 4.31 7.24 8 9.27 4.76 2.57 9.64 5.06 14.45 7.57 4.58 2.39 11.57 5.37 16.82 3.63 4.52-1.49 5-6.91 2.55-10.39-3.08-4.41-8.82-5.28-13.4-7.34a35.52 35.52 0 0 1-8.43-5.35c-1.22-1.06-5.85-5.47-5.68-5.87l-2.18 2.84c-1.77 1-3.46-1-1.18 1a24.33 24.33 0 0 0 2.93 1.82q3.27 2.1 6.41 4.38A131.85 131.85 0 0 1 151.39 76c4.5 4.12 11.23-2.58 6.71-6.72s-30.41-28.71-33.85-14.77c-1.51 6.11 5.51 12.07 9.65 15.44a44.63 44.63 0 0 0 9.1 5.78c1.11.52 10.24 3.34 10.19 4.28l1.39-3.36c.36-.45-4.44-1.65-4.38-1.63a30.09 30.09 0 0 1-5.06-2.41c-2.65-1.48-5.2-3.12-7.95-4.42-2.19-1-4.92-1.79-6.78-3.37a5 5 0 0 1 .65-8.42c5.27-3.2 10.1 5 13.82 7.88 4.55 3.54 10.6 6.52 14 11.3 2.12 3 .54 5.31-3 5.19-3.35-.1-6.53-2.45-9.27-4.14-5-3-10-4.68-15.42-6.65-4.78-1.74-9.12-5-7.24-10.65 2-6 9.65-6.68 14.14-3.09 4.73 3.78 11.5-2.9 6.72-6.72z" class="cls-5"/><path d="M176.21 77.89c3.06 0 3.06-4.75 0-4.75s-3.06 4.75 0 4.75zm-13.56 152.74c3 0 3.06-4.75 0-4.75s-3.06 4.75 0 4.75z" class="cls-6"/><path d="M150.68 54.51c3 0 3.06-4.75 0-4.75s-3.06 4.75 0 4.75zM102.8 160.52c3.06 0 3.06-4.75 0-4.75s-3.06 4.75 0 4.75z" class="cls-2"/><path d="M90.1 17.85C95 29.35 105.54 33 117.22 31c7-1.22 16.77-2.44 23.37 1.26 7.24 4.07 1.91 13.25.92 19.3-2.16 13.09 9.7 17.49 18.65 23.62 12.89 8.84 17.87 23.3 15.2 38.49-.52 3 4 4.27 4.58 1.27 2.13-12.09.36-25.1-7.42-34.95-4.18-5.29-9.82-9-15.54-12.41-7.16-4.31-12.56-8.33-10.31-17.49 1.28-5.2 3.62-10.63 1.66-16-1.7-4.65-6.38-6.92-11-7.92-6.78-1.49-13.69-1-20.48.07-9.22 1.44-18.14 0-22.22-9.61-1.17-2.77-5.77-1.56-4.58 1.26z" class="cls-4"/><path d="M91.79 157.42l6.85-17.48c1.12-2.84-3.47-4.08-4.58-1.26l-6.85 17.47c-1.11 2.85 3.48 4.08 4.58 1.27zm-12.7 7.79a17.87 17.87 0 0 1-9.35-.17c-2.94-.84-4.2 3.74-1.26 4.58a22.76 22.76 0 0 0 11.87.17c3-.74 1.71-5.33-1.26-4.58z" class="cls-2"/><path d="M123 102.2c3.06 0 3.06-4.75 0-4.75s-3.06 4.75 0 4.75z" class="cls-6"/><path d="M123.78 108.57c12.22 0 12.24-19 0-19s-12.24 19 0 19z" class="cls-6"/><path d="M85 80.45c12.22 0 12.24-19 0-19s-12.25 19 0 19zM195.21 236.6c12.22 0 12.24-19 0-19s-12.25 19 0 19z" class="cls-5"/><path d="M90 153.87c-3.79 2.26-7.63 5.13-11.8 6.65-4.43 1.61-9.31 1.16-13.93.87-6.1-.39-6.08 9.11 0 9.5 5.48.34 11.17.58 16.46-1.21 5-1.72 9.54-4.9 14.06-7.61 5.24-3.14.47-11.36-4.79-8.2z" class="cls-2"/><path d="M85.53 158.12a34.73 34.73 0 0 1-26.08 3.43c-5.92-1.52-8.45 7.63-2.52 9.15a44.68 44.68 0 0 0 33.39-4.38c5.33-3 .55-11.21-4.79-8.2z" class="cls-2"/><path d="M86.14 158.58c-1.2 7.46-16.71 7.92-22.46 7.07-7.47-1.09-14.39-6.51-14-14.59.29-6.11-9.21-6.09-9.5 0-.63 13 10.6 22.42 22.74 24 10.48 1.35 30.27-.78 32.38-13.94 1-6-8.2-8.55-9.16-2.53z" class="cls-2"/><path d="M34.3 149.88c-.12 14.05 13.57 19.71 25.37 21.43 6 .87 8.56-8.28 2.53-9.16-7.08-1-18.48-3-18.4-12.27.05-6.11-9.44-6.12-9.5 0z" class="cls-2"/><path d="M34.31 149c3.53 0 3.54-5.49 0-5.49s-3.54 5.49 0 5.49z" class="cls-6"/><path d="M53.78 102.39c3.06 0 3.07-4.75 0-4.75s-3.06 4.75 0 4.75z" class="cls-4"/><path d="M141 158.91a5.34 5.34 0 0 0-6.61-3.69 5.57 5.57 0 0 0 .29 10.87 6.68 6.68 0 0 0 6.33-2 7.63 7.63 0 0 0-.45-10.34 6.91 6.91 0 0 0-10.06.23 8.12 8.12 0 0 0-2 5.42 7.33 7.33 0 0 0 3.32 5.92 4.71 4.71 0 0 0 3.65.48 4.79 4.79 0 0 0 2.84-2.18c1.31-2.48.44-4.92-1.7-6.5.81.6 1.27 1 1.37 1.78l-.06-.19c-.1-.47-.08-.24.08.69.18-1-.15.48-.11.47s.07-.26.11-.39c-.37.81-.45 1-.24.59.39-.65-.82.9-.27.33q.53-.47-.51.39l-.79.32c.47-.14.24-.12-.68 0 .5 0 .28 0-.65-.11.73.17-1.1-.57-.42-.16-.65-.54-.84-.68-.58-.42s.12.08-.41-.57c.42 1-.18-.7-.07-.3.28 1 .06-1.16 0-.36s.3-1.25.07-.47c.39-.81.47-1 .24-.59a2.15 2.15 0 0 1 .81-.88c.39-.26.43-.3.13-.12a2.81 2.81 0 0 1 1.54-.44 3.89 3.89 0 0 1 3 5.91 3.57 3.57 0 0 1-2.2 1.71c-2.08-.28-2.74-.27-2 0l-2.09-1.22-1-1.74a4.75 4.75 0 0 0 9.16-2.53zm-72.37 65.68c1.49-.42 1.78-.56.87-.44l-1.38.11c-.93.07-1.85.13-2.78.13a11.28 11.28 0 0 1-4.68-.7c-2.35-1-5.1-.68-6.5 1.71-1.18 2-.65 5.45 1.7 6.49a23.11 23.11 0 0 0 10.41 2c3.06-.1 6.91 0 9.07-2.57 4-4.62-2.74-11.37-6.71-6.71z" class="cls-5"/><path d="M51.51 234.71a29.66 29.66 0 0 0 15.24-2.83c2.34-1.07 2.91-4.44 1.71-6.5-1.4-2.39-4.16-2.77-6.5-1.7a20.12 20.12 0 0 1-10.45 1.53c-2.51-.21-4.75 2.36-4.75 4.79 0 2.77 2.19 4.52 4.75 4.75z" class="cls-5"/><path d="M69.3 225.82c-5 2.84-11.23 2.71-16.79 1.83-5.74-.9-9-6.61-12.3-10.93-3.66-4.79-11.92-.06-8.2 4.8 4.83 6.32 9.45 13.8 17.86 15.29 8.13 1.44 16.9 1.36 24.23-2.78 5.32-3 .54-11.22-4.8-8.21z" class="cls-5"/><path d="M36.4 240c12.22 0 12.24-19 0-19s-12.25 19 0 19z" class="cls-4"/><path d="M174.69 150.07c3.06 0 3.06-4.75 0-4.75s-3.06 4.75 0 4.75z" class="cls-2"/><path d="M177 44.45c3.06 0 3.06-4.75 0-4.75s-3.06 4.75 0 4.75zM80.56 4.75c3.06 0 3.07-4.75 0-4.75s-3.06 4.75 0 4.75z" class="cls-5"/><path d="M45 247.43c3.06 0 3.06-4.75 0-4.75s-3.06 4.75 0 4.75z" class="cls-6"/><path d="M206.61 216.18c3 0 3.06-4.75 0-4.75s-3.06 4.75 0 4.75z" class="cls-2"/><path d="M55.24 178.86c6.11 0 6.12-9.5 0-9.5s-6.13 9.5 0 9.5z" class="cls-6"/><path d="M43.34 196.5a22.92 22.92 0 0 1-7-6.95 4.83 4.83 0 0 0-7.46-1c-5.62 5 1.33 12.38 5.64 15.23a4.75 4.75 0 0 0 4.8-8.2 11.87 11.87 0 0 1-2.19-1.93 7.69 7.69 0 0 1-1-1.41c.6.9.42 1.91-.56 3l-7.46-1a33.63 33.63 0 0 0 10.43 10.46 4.75 4.75 0 0 0 4.8-8.2z" class="cls-5"/><path d="M124.68 217.43c5.52 4.69 15.49 9.29 23 7.18 6.91-1.93 4-11 .06-14.57-1.45-1.33-4.39-.52-4.21 1.74.16 2.05 2.29 5.68-.65 6.34-2.12.47-6.84-2.61-8.59-3.64A24.55 24.55 0 0 1 122.63 198c-.61-3-4.51-1.85-4.85.66-1 7.14 1.86 13.74 6.9 18.74 2.27 2.23 5.76-1.26 3.5-3.5a17.46 17.46 0 0 1-5.46-15.24l-4.85.66c2.16 10.48 9.57 17.85 19.17 22 3.25 1.39 7.79 3 11 .52 3.66-2.88.76-6.49.48-10.07l-4.22 1.75c1 .9 2.61 3 2.51 4.4-.2 3-4.08 2-5.87 1.67a26.08 26.08 0 0 1-12.73-5.67c-2.44-2.04-5.95 1.44-3.53 3.51z" class="cls-2"/><path d="M145.74 223.53c11.64 6.68 21.54-8.82 15.9-19-1.86-3.37-7.27-8.2-11.39-5.65-5 3.07-1.18 12.74.88 16.32a2.51 2.51 0 0 0 3.88.5 12.58 12.58 0 0 0 3.86-14.75c-.78-1.9-3.32-2.54-4.51-.59a19 19 0 0 0-2.36 14.57c.51 2.31 4.31 2.4 4.76 0a40.45 40.45 0 0 0 .67-10.19l-4.86.66c1.05 5.43.32 13.18-7.32 11.18-3.47-.9-6.52-2.71-10.13-3.21-3.1-.43-4.45 4.33-1.31 4.77 6.14.85 12.28 6 18.5 2.68s6.18-10.75 5-16.73c-.53-2.72-5-2.13-4.85.65a34.84 34.84 0 0 1-.49 8.88h4.76a13.94 13.94 0 0 1 1.87-10.78l-4.51-.59a7.93 7.93 0 0 1-2.6 9.94l3.88.5c-1.2-2.1-2.85-5.39-2.39-7.93.31-1.71-.13-1.61 1.75-.69a7.15 7.15 0 0 1 3 3.86c2.12 5.72-2.58 15.31-9.5 11.33-2.77-1.58-5.26 2.69-2.5 4.27z" class="cls-2"/><path d="M173.09 265.49a69.8 69.8 0 0 0 8.19-26.78c.84-8.86 1.29-18.46-1-27.14-2.12-8.11-7.61-14.88-16.1-16.51-2.92-.56-9.53.17-11.5-2.72-1.13-1.66-.19-4.42 0-6.22a20.44 20.44 0 0 0-.46-6.66c-4.72-18.51-26.8-19.62-42-18.07-8.6.88-20.84 3.62-24.91-6.37-3.63-8.92.31-19 1.21-28.11 1.86-19.29-7.52-38.06-22.87-49.43-4.92-3.63-9.66 4.61-4.8 8.2A46.07 46.07 0 0 1 76.7 129c-1.92 13.84-6.23 34.43 10.73 41.15 16.27 6.45 37.7-7.61 51.85 5.87a11.57 11.57 0 0 1 4 8.6c0 4.24-1.28 8 .91 12 4.17 7.57 12.2 5.88 19.15 8 10 3.05 9.23 17.88 8.93 26.14-.39 10.64-2.26 20.54-7.37 30-2.91 5.38 5.29 10.18 8.2 4.8z" class="cls-6"/><path d="M14.76 178.75l9.61-24.12c3-7.6 6.49-15.19 8.58-23.12 4-15.4.49-29.69-6.74-43.46-3.4-6.48-9-14.57-8-22.22 1-7.25 7.94-12.72 12.42-18C38.28 38.92 43.7 26.26 35.21 16c-2.85-3.44-7.73 1.48-4.9 4.9 9.48 11.47-8.12 25-14.12 33.13C7.65 65.62 12.54 77 18.6 88.48 22 95 25.49 101.43 27 108.72a47.45 47.45 0 0 1-1.47 23.59c-4.66 15.16-11.55 29.86-17.41 44.6-1.66 4.14 5.05 5.94 6.68 1.84z" class="cls-4"/><path d="M82.64 220.7a1.74 1.74 0 0 0 0-3.47 1.74 1.74 0 0 0 0 3.47zm34.57-87.77a1.74 1.74 0 0 0 0-3.47 1.74 1.74 0 0 0 0 3.47zM40.84 77.84a1.74 1.74 0 0 0 0-3.47 1.74 1.74 0 0 0 0 3.47zM26.41 36.81a1.74 1.74 0 0 0 0-3.47 1.74 1.74 0 0 0 0 3.47zm55.09 0a1.74 1.74 0 0 0 0-3.47 1.74 1.74 0 0 0 0 3.47zm114.36 177.43a1.74 1.74 0 0 0 0-3.47 1.74 1.74 0 0 0 0 3.47z" class="cls-6"/><path d="M42.36 127.61a1.74 1.74 0 0 0 0-3.47 1.74 1.74 0 0 0 0 3.47zM83 187.26a1.74 1.74 0 0 0 0-3.47 1.74 1.74 0 0 0 0 3.47zm39.15-123.48a1.73 1.73 0 0 0 0-3.46 1.73 1.73 0 0 0 0 3.46zm66.49 1.14a1.73 1.73 0 0 0 0-3.46 1.73 1.73 0 0 0 0 3.46z" class="cls-2"/><path d="M201.93 88.31c4.47 0 4.47-6.93 0-6.93s-4.46 6.93 0 6.93zM96.31 231.93c4.47 0 4.47-6.94 0-6.94s-4.47 6.94 0 6.94zM67.82 36.26c4.46 0 4.47-6.93 0-6.93s-4.47 6.93 0 6.93zM102 54.5c4.46 0 4.47-6.94 0-6.94s-4.47 6.94 0 6.94zm101.83 8.74c4.47 0 4.47-6.94 0-6.94s-4.46 6.94 0 6.94zm-96.5 119.3c4.46 0 4.47-6.94 0-6.94s-4.47 6.94 0 6.94zm-48.25-67.63c4.46 0 4.47-6.94 0-6.94s-4.47 6.94 0 6.94z" class="cls-5"/><path d="M163.94 38.59c8.92 0 8.94-13.87 0-13.87s-8.94 13.87 0 13.87z" class="cls-2"/><path d="M196.62 80.76c8.92 0 8.93-13.87 0-13.87s-8.94 13.87 0 13.87zM26 190.18c8.92 0 8.93-13.87 0-13.87s-8.94 13.87 0 13.87zM36.28 70.5c8.93 0 8.94-13.86 0-13.86s-8.93 13.86 0 13.86z" class="cls-4"/><path d="M189.09 188.48a69.88 69.88 0 0 0 26.77 8.19c8.86.83 18.46 1.29 27.15-1 8.1-2.12 14.88-7.61 16.5-16.1.56-2.92-.17-9.53 2.72-11.5 1.66-1.14 4.43-.2 6.23-.05a20.74 20.74 0 0 0 6.66-.46c18.5-4.72 19.62-26.81 18.07-42-.88-8.6-3.62-20.85 6.37-24.92 8.91-3.62 19 .32 28.1 1.22 19.3 1.92 38.07-7.43 49.43-22.81 3.64-4.92-4.6-9.67-8.2-4.8a46.1 46.1 0 0 1-43.28 17.85c-13.84-1.93-34.43-6.23-41.15 10.73-6.45 16.26 7.62 37.7-5.87 51.85a11.54 11.54 0 0 1-8.6 4c-4.24 0-8-1.29-12 .91-7.56 4.17-5.87 12.2-8 19.15-3 10.05-17.87 9.23-26.13 8.93-10.65-.39-20.55-2.26-30-7.37-5.38-2.91-10.18 5.29-4.79 8.2zm147.25 41.14c3.24-11.09-2.72-22.41-12.11-28.45-4.81-3.1-10.9-4.88-16.63-4a17 17 0 0 0-8.17 3.56c-2.69 2.12-4.67 5.23-7.71 6.9-5.8 3.19-13.29.94-19.4 0s-12-1.16-17.89 1.07c-6.67 2.53-12.31 7.12-18.68 10.27a72.64 72.64 0 0 1-22.63 6.83c-4.35.59-4.41 7.53 0 6.94a84.49 84.49 0 0 0 33.55-12c5.63-3.46 11.1-7 18-6.94 5.57 0 11 1.53 16.53 2.06 4.78.45 9.82.11 14.07-2.31 5.32-3 8.11-9.51 14.84-9.75 11.83-.42 23 12.36 19.6 23.91-1.26 4.29 5.43 6.13 6.68 1.85z" class="cls-6"/><path d="M227.47 220.09c12.22 0 12.24-19 0-19s-12.24 19 0 19zM216.53 79.37c8.17.53 16.11-2.74 20.76-9.63 2.22-3.29 3.48-7.12 5.76-10.38a35.19 35.19 0 0 1 10.67-9.54c6.44-4 13.08-8.93 11.65-17.46-1.24-7.4-7.45-12.59-14.23-14.95a27.43 27.43 0 0 0-20.53.89c-7.41 3.57-12.4 11-16.55 17.85a30.35 30.35 0 0 0-4.51 11.42c-.66 4.74 1 9.56 0 14.23-.81 3.77-1.73 7.36 1.27 10.51 2.51 2.63 6.72 3.45 10.16 2.59 10.69-2.68 8.18-13.81 10-21.88s9.34-21.31 19.36-17.55l-3.1-7.62c-3.11 6-10.74 8.43-15.59 12.85a28.58 28.58 0 0 0-6.44 8.81 33.85 33.85 0 0 0-2.12 5.66c-.27 1-.5 2-.67 3-.65 2.2-.13 2.12 1.54-.24l4 .52c-1.1-.61-1.08-7.7-1.07-8.91a19.67 19.67 0 0 1 2-9c2.48-4.89 7.06-7.81 12.3-9 6.52-1.42 3.76-11.42-2.75-10a27.5 27.5 0 0 0-19.65 16.26 32.33 32.33 0 0 0-2 16c.48 4.23.94 9.84 4.54 12.7a6.75 6.75 0 0 0 10.15-1.84c1-1.81 1-4 1.46-6a22 22 0 0 1 3.19-7.38c5.3-7.64 15.64-9.63 20.1-18.22 1.65-3.17.12-6.41-3.1-7.62-15.35-5.75-28.7 10.92-32 24-1 4.07-.57 8.15-1.26 12.2-.11.67-1.86 6.84-.31 2.84a16 16 0 0 0 .69-4.88c.14-4.74-1.41-9.23.38-13.84 1.45-3.74 4.08-7.19 6.39-10.44 4.5-6.33 10.21-10.35 18.22-8.85a14.46 14.46 0 0 1 8.12 4.11c3.34 3.74 1.16 6.37-2.34 8.64-6.75 4.38-12.89 8.62-17.37 15.5-2 3.08-3.11 6.79-5.33 9.72-2.88 3.78-7.27 4.78-11.8 4.48-6.66-.43-6.64 10 0 10.38z" class="cls-5"/><path d="M219.4 101c8.34 1.65 12.76-4.22 15.91-11.08a97.71 97.71 0 0 0 4.65-12c1-3.22 2.66-7.26 1-10.52-2.59-5.27-10.56-5.56-15.28-3.69-6 2.41-8.63 8-9.35 14.15-.37 3.15-.08 6.81-1.57 9.71-1.29 2.5-2.5 3.77-1.47 6.74 1.13 3.25 3.71 6.86 5.71 9.71 1.66 2.37 3.73 4.13 6.63 4.58 6 .93 11.09-4 11.82-9.75 1-7.9-7.18-15.3-3.08-22.71 3-5.36-5.25-10.16-8.21-4.8-4.28 7.76-2 13.64.83 21.25.43 1.17 2.22 5.28.63 6.28-1 .59-1.49-1.37-2-2.2s-3.14-6.69-3.41-3.18c.08-1 1.64-2.94 2-4.09 1.54-4.6-.48-16.53 6.33-17.28a4.54 4.54 0 0 1 2.44.34q-1.92-1.5-1.74 1.22c-.88 1.31-1.13 3.64-1.65 5.12-.76 2.15-4.21 13.75-7.74 13-6-1.19-8.53 8-2.53 9.16z" class="cls-2"/><path d="M250 35.94l.29.56-.65-2.39c.12 1.2-.79 3.12-1.19 4.42l-1.67 5.36c-1.82 5.85 7.35 8.35 9.16 2.52l2.31-7.41c.85-2.74 1.36-5.15-.05-7.84-2.84-5.42-11-.62-8.2 4.79z" class="cls-5"/><path d="M246.92 134.68c-8.72-3.23-20-6.13-29.28-4.16-10.49 2.22-15.47 12.91-13 22.86 2.45 9.74 11.14 17.29 21.48 15.86 11.39-1.59 16.94-11.53 18-22 .6-5.8-5.39-10.79-10.79-10.79-6.33 0-10.19 5-10.79 10.79.06-.64-.3 1.62-.52 1.31-1.32-1.86 8.41 2.09 4 .49-.61-.22-.19-1.22-.45-.76-.05.85-.07.59-.05-.77.16 1.08-.43 1.86-1.76 2.34-2.81 2.84-1.75 1.74 1.23 1.91 1.4.09 2.79.23 4.18.45a62.78 62.78 0 0 1 12 3.32c5.47 2 11.83-2.26 13.28-7.54 1.65-6-2.05-11.24-7.54-13.27z" class="cls-2"/></pattern></defs><path id="Spots_Face" d="M226.68 135.77s19 60 73.5 48c0 0 6.25-32.5-15.5-60.5 0 0-12.54-37.38-22.27-47.44s-17-.06-17-.06-16.48 59.75-18.73 60zm-3.16 1.17s5.66 29.33-6 44.33-35.34 34-35.34 34-15.33-26.33-16.66-38.66-.42-12-.42-12l-10.25-45s-.33-17.67 3.67-18.67 26.33 4.33 32.33 17.33 21.58 21 21.58 21" class="cls-7"/><g id="Cat"><path d="M178.73 22.74l6.89 2.51 15 21.84s.18 26.31-10.86 30.07c-5.01 1.71-11.03-54.42-11.03-54.42z" class="cls-4"/><path d="M186.5 75.66s18.14-8.61 9.37-34.69l22.56 32S205.81 99.23 194.78 103c-5 1.71-5.15-4.54-6-11-1.07-7.84-2.28-16.34-2.28-16.34z" class="cls-2"/><path d="M219.36 464.38h-15.8s-16.56-3-26.59-18.06-23.57-51.16-21.57-70.72 5.52-80.25 36.62-148c0 0-26.58-23.07-26.58-61.19 0 0-22.07-70.23-2-64.21s41.63 32.1 41.63 32.1 6.86-14.71 33.27-10.7c0 0 4.35-44.47 8.86-48.48s11.54-2.51 15.55 2.51 15.05 20.06 22.07 46.64c0 0 16.55 21.57 16.55 43.64s-1.5 31.1 1 38.12S345 278.8 355 363.06s-35.61 99.32-43.13 100.82a45.08 45.08 0 0 1-14 .5" class="cls-8"/><path d="M189.39 103s31.05-11.79 22.27-37.87l22.57 32s-6.6 20.46-17.63 24.22-21.32 11.79-21.32 11.79l-2.76-15.67z" class="cls-5"/><path d="M265.75 464.38h-16.3" class="cls-9"/><path d="M316.91 328s2 30.43-1 41.47-21.74 64.87-25.08 70.89l-3.34 6s8 2.35 9 8 1 14.71-6.35 17.39-24.07-2.34-26.08-10 1.34-56.51 2.34-79.25-3.68-29.43-8.36-29.09-12-.67-12 19.72 7.36 73.57 7.36 73.57-1 16-6.69 19.39-15.71 6-21.4 3.68-10.36-8.69-3.68-21.4l5.69-2.67s-43.81-84.6-34.11-115m35.09-157.9l6.69 3.01 4.68-6.02m-4.67 6.02s1.34 8 2.67 8.69c.75.38 4.15 3.26 7.36 4.28 2.53.8 4.94-.17 5.83-.17" class="cls-8"/><path d="M237.66 184.5a19 19 0 0 1-3.31 6.28 12.15 12.15 0 0 1-5.33 3.16" class="cls-8"/><ellipse cx="254.22" cy="148.05" class="cls-10" rx="12.21" ry="8.36" transform="rotate(-20.49 254.285 148.09)"/><ellipse cx="203.05" cy="164.44" class="cls-10" rx="12.21" ry="8.36" transform="rotate(-11.75 203.118 164.486)"/><path d="M250.56 146.4a3.62 3.62 0 0 1 6.34-2.66 7.44 7.44 0 0 1 1.66 2.73 16.12 16.12 0 0 1 .31 3.25 3.63 3.63 0 0 1-6 2.82 4.4 4.4 0 0 1-1.34-1.73 17.58 17.58 0 0 1-.97-4.41zm-51.63 16.5a3.62 3.62 0 0 1 6.34-2.66 7.31 7.31 0 0 1 1.66 2.73 15.35 15.35 0 0 1 .32 3.25 3.63 3.63 0 0 1-6 2.82 4.59 4.59 0 0 1-1.34-1.73 17.58 17.58 0 0 1-.98-4.41z" class="cls-11"/><path d="M194 131.59s41.63-17.31 32.85-43.39l22.56 32s-10 12.94-21.06 16.7-28.84 6.27-28.84 6.27l-4.39-1.23z" class="cls-3"/><path d="M249.44 120.15c1.45 3.63-9.52 11.44-24.52 17.44s-28.32 7.93-29.77 4.3" class="cls-12"/><path d="M195.15 141.89l-16-117.39a2.91 2.91 0 0 1 5.3-2l65 97.66" class="cls-13"/><path d="M181.75 25.09l4.24-23.59m-4.44 23.1L178.4 5.9m4.34 16.78l11.8-14.85m-11.81 19.23L201 21.98M163.59 32.5l18.27-5.08m-2.09-3.87l-16.51-9.34m18.5 11.72l19.7-13.66m-19.73 12.3L166.62 5.96m15.05 19.99l-23.58-4.29" class="cls-14"/><path d="M234 192.94s.5 12.5 7.33 11.5c2.56-.37 6-.69 7.17-2.33 2-2.74.6-7.67-.34-11.83m-10.14-3.92l2.75 6.25" class="cls-8"/><path d="M344.52 309.11s14-21 3-49-18-22.33-21-53c-5.06-51.68 30-16 26-2s9 19 20 49-11 76-14 82-4.5 17-4.5 17z" class="cls-11"/><path d="M79.39 292.67l-3 11" class="cls-15"/><path d="M60.39 121.67l-3 11" class="cls-16"/><path d="M128.3 243.46l5.09 10.21" class="cls-17"/><path d="M9.4 216.85l-6.9 9.08m120.89-61.26l-10.87 3.44" class="cls-18"/><path d="M69.39 216.67l-9.26-6.65" class="cls-19"/><path d="M124.42 74.9l2.1 11.21" class="cls-17"/><path d="M421.29 201.14l5.78 9.91" class="cls-15"/><path d="M400.84 30.11l5.77 9.92m94.61 170.26l-5.12 10.26" class="cls-16"/><path d="M364.52 164.11l-2.95 11.22m89.95 131.78l-2.95 11.22" class="cls-17"/><path d="M477.21 109.46l9.44 7.04M344.52 88.11l12.29.54" class="cls-18"/><path d="M413.84 124.73l8.21-8.85M2.32 70.45l8.2-8.84" class="cls-19"/><path d="M292.52 63.11l.44 11.43" class="cls-17"/><path d="M304.85 214.78s-19 5.33-11.67 25.33 29.34 16 24.34 33.67 21.33 18.66 21.33 18.66-26.67-77-34-77.66z" class="cls-7"/><path d="M102.68 349.73c3.21 0 3.22-5 0-5s-3.23 5 0 5zm-2.5-212.96c3.22 0 3.23-5 0-5s-3.22 5 0 5zm263.34-3.33c3.22 0 3.22-5 0-5s-3.22 5 0 5z" class="cls-4"/><path d="M445.52 257.11c3.22 0 3.22-5 0-5s-3.22 5 0 5z" class="cls-6"/><path d="M334.52 28.11c3.22 0 3.22-5 0-5s-3.22 5 0 5zm-202 193c3.22 0 3.22-5 0-5s-3.22 5 0 5zm281 78c3.22 0 3.22-5 0-5s-3.22 5 0 5zm-377-18c3.22 0 3.22-5 0-5s-3.22 5 0 5z" class="cls-2"/><path d="M324.52 150.11c3.22 0 3.22-5 0-5s-3.22 5 0 5zm-282-72c3.22 0 3.22-5 0-5s-3.22 5 0 5zm458 230c3.22 0 3.22-5 0-5s-3.22 5 0 5z" class="cls-5"/><path d="M441.52 142.11c3.22 0 3.22-5 0-5s-3.22 5 0 5zm-26-70c3.22 0 3.22-5 0-5s-3.22 5 0 5zm-276 244c3.22 0 3.22-5 0-5s-3.22 5 0 5z" class="cls-6"/><path d="M391.52 238.11c3.22 0 3.22-5 0-5s-3.22 5 0 5z" class="cls-4"/><path d="M35.52 344.11c3.22 0 3.22-5 0-5s-3.22 5 0 5z" class="cls-3"/></g><g id="Spots"><path d="M332 450.11s-15.5-11.5 0-27-7.25-23.25 0-30.5c3.78-3.79 10.16-8.26 15.39-11.66a5.57 5.57 0 0 1 8.61 4.66v9.74a4.53 4.53 0 0 1 0 .52c-.29 3.06-3.2 32.2-9.54 38.36a6.62 6.62 0 0 0-.76.83c-2.07 2.87-13.23 18.23-13.7 15.05zM180.58 256.29S195 255 195.84 270s-18.84 32-16.97 48-17.69 34.49-22.45 29.74c0-.03 12.93-67.32 24.16-91.45zm14.94 117.82s-13.5-1.5-7 18 9 19.5 6.5 32 25 6.5 25 6.5z" class="cls-7"/><path d="M12.52 144.11c3.22 0 3.22-5 0-5s-3.22 5 0 5zm62-112c3.22 0 3.22-5 0-5s-3.22 5 0 5z" class="cls-2"/></g></svg>