<svg xmlns="http://www.w3.org/2000/svg" id="Layer_1" viewBox="0 0 947.79 131.6" width="947.79" height="131.6"><defs><style>.cls-1{fill:#93b6e0}.cls-2{fill:#a1dbe8}.cls-3{fill:#97d2b1}.cls-4{fill:#f7c644}.cls-5{fill:#f29620}</style></defs><path d="M7 94.1V15.9h27.4q14.2 0 21.6 5.45t7.36 16a17.64 17.64 0 0 1-3 10.12 17.06 17.06 0 0 1-8.22 6.42 16.57 16.57 0 0 1 9.48 6.07 18 18 0 0 1 3.48 11.15q0 11.28-7.2 17.08T37.38 94.1zm16.1-45.44H35q12.19-.21 12.19-9.72c0-3.54-1-6.1-3.09-7.65S38.81 29 34.38 29H23.1zm0 11.39v21.11h13.8c3.79 0 6.76-.91 8.89-2.71A9.31 9.31 0 0 0 49 71q0-10.74-11.11-10.9z" class="cls-1"/><path d="M109.84 94.1a17 17 0 0 1-1.56-5.21 18.79 18.79 0 0 1-14.66 6.29q-8.55 0-14.15-5a15.86 15.86 0 0 1-5.62-12.46q0-9.22 6.85-14.18t19.79-5h7.15v-3.27a9.57 9.57 0 0 0-2.07-6.45q-2.07-2.41-6.57-2.41a9.23 9.23 0 0 0-6.15 1.88 6.39 6.39 0 0 0-2.23 5.15H75.14a15.56 15.56 0 0 1 3.12-9.34 20.49 20.49 0 0 1 8.81-6.74 32 32 0 0 1 12.78-2.45q10.74 0 17.05 5.4t6.31 15.17v25.19q.06 8.28 2.31 12.52v.91zM97 83.31a13.5 13.5 0 0 0 6.34-1.53 10.19 10.19 0 0 0 4.3-4.11v-10h-5.8q-11.66 0-12.41 8l-.05.92a6.2 6.2 0 0 0 2 4.78A7.93 7.93 0 0 0 97 83.31z" class="cls-2"/><path d="M159.31 82.66a10.21 10.21 0 0 0 7-2.36 8.28 8.28 0 0 0 2.77-6.3h14.56a20 20 0 0 1-3.22 10.83 21.3 21.3 0 0 1-8.68 7.62 27.14 27.14 0 0 1-12.16 2.72q-12.47 0-19.66-7.93t-7.2-21.88v-1q0-13.44 7.14-21.43t19.61-8q10.91 0 17.48 6.21t6.69 16.51h-14.56a10.66 10.66 0 0 0-2.79-7.37 10.39 10.39 0 0 0-15.29 1.1q-2.77 4-2.77 12.83v1.61q0 9 2.74 12.91t8.34 3.93z" class="cls-3"/><path d="M213.61 70.79L208 76.38V94.1h-15.5V11.6H208v45.71l3-3.87L225.91 36h18.64l-21 24.22 22.82 33.88h-17.83z" class="cls-4"/><path d="M335.32 29h-24v65.1h-16.07V29h-23.63V16h63.7z" class="cls-5"/><path d="M329.89 64.51a34.47 34.47 0 0 1 3.33-15.42 24.39 24.39 0 0 1 9.59-10.47 28 28 0 0 1 14.53-3.71q11.76 0 19.2 7.2t8.3 19.55l.11 4q0 13.38-7.47 21.46t-20 8.09q-12.57 0-20.07-8.06t-7.49-21.91zm15.53 1.1q0 8.28 3.11 12.67a11.19 11.19 0 0 0 17.72 0q3.18-4.33 3.17-13.85 0-8.13-3.17-12.59a10.3 10.3 0 0 0-8.91-4.46 10.15 10.15 0 0 0-8.81 4.43q-3.12 4.49-3.11 13.8z" class="cls-1"/><path d="M478.56 29h-23.95v65.1H438.5V29h-23.64V16h63.7z" class="cls-2"/><path d="M501.88 42.32a19.36 19.36 0 0 1 15.52-7.41q18.9 0 19.17 22V94.1h-15.52V57.31q0-5-2.15-7.39t-7.14-2.39q-6.83 0-9.88 5.27v41.3h-15.53V11.6h15.53z" class="cls-3"/><path d="M575 95.18q-12.78 0-20.81-7.85t-8-20.89v-1.5a35 35 0 0 1 3.38-15.66 24.87 24.87 0 0 1 9.59-10.64 27 27 0 0 1 14.15-3.73q11.93 0 18.77 7.52t6.85 21.32v6.34h-37a14.42 14.42 0 0 0 4.54 9.13 13.69 13.69 0 0 0 9.59 3.44q9 0 14-6.5l7.63 8.54a23.23 23.23 0 0 1-9.46 7.71A31.06 31.06 0 0 1 575 95.18zm-1.77-47.75a9.71 9.71 0 0 0-7.5 3.13q-2.87 3.12-3.68 8.95h21.6v-1.24q-.12-5.18-2.8-8t-7.59-2.84z" class="cls-4"/><path d="M691.8 29h-24v65.1h-16.07V29H628.1V16h63.7z" class="cls-5"/><path d="M729.13 50.54a43.47 43.47 0 0 0-5.59-.43q-8.81 0-11.55 6v38h-15.52V36h14.66l.43 6.93q4.68-8 13-8a16.39 16.39 0 0 1 4.83.7z" class="cls-1"/><path d="M762.32 95.18q-12.78 0-20.81-7.85t-8-20.89v-1.5a35 35 0 0 1 3.38-15.66 24.87 24.87 0 0 1 9.59-10.64 27 27 0 0 1 14.15-3.73q11.92 0 18.77 7.52t6.85 21.32v6.34h-37a14.42 14.42 0 0 0 4.54 9.13 13.69 13.69 0 0 0 9.59 3.44q9 0 14-6.5L785 84.7a23.23 23.23 0 0 1-9.46 7.71 31.06 31.06 0 0 1-13.22 2.77zm-1.77-47.75a9.71 9.71 0 0 0-7.5 3.13q-2.87 3.12-3.67 8.95H771v-1.24q-.12-5.18-2.8-8t-7.65-2.84z" class="cls-2"/><path d="M828.71 94.1a17 17 0 0 1-1.56-5.21 18.79 18.79 0 0 1-14.66 6.29q-8.55 0-14.16-5a15.88 15.88 0 0 1-5.61-12.46q0-9.22 6.85-14.18t19.79-5h7.14v-3.27a9.62 9.62 0 0 0-2.06-6.45q-2.07-2.41-6.53-2.41a9.23 9.23 0 0 0-6.15 1.88 6.36 6.36 0 0 0-2.23 5.15H794a15.62 15.62 0 0 1 3.11-9.34 20.61 20.61 0 0 1 8.81-6.74 32.13 32.13 0 0 1 12.79-2.45q10.74 0 17 5.4t6.31 15.17v25.19q.06 8.28 2.31 12.52v.91zm-12.84-10.79a13.52 13.52 0 0 0 6.34-1.53 10.16 10.16 0 0 0 4.29-4.11v-10h-5.8q-11.66 0-12.4 8l-.06.92a6.23 6.23 0 0 0 2 4.78 8 8 0 0 0 5.63 1.94z" class="cls-3"/><path d="M872.59 21.7V36h9.93v11.37h-9.93v29q0 3.23 1.23 4.62c.83.93 2.4 1.39 4.73 1.39a24.93 24.93 0 0 0 4.57-.37v11.77a32 32 0 0 1-9.4 1.4q-16.34 0-16.65-16.49V47.37h-8.49V36h8.49V21.7z" class="cls-4"/><path d="M922.65 78a5 5 0 0 0-2.82-4.48 31.82 31.82 0 0 0-9.05-2.93Q890 66.28 890 53a16 16 0 0 1 6.42-12.91q6.42-5.19 16.79-5.19 11.06 0 17.69 5.21a16.42 16.42 0 0 1 6.64 13.54h-15.48a7.53 7.53 0 0 0-2.15-5.51c-1.44-1.45-3.67-2.17-6.72-2.17a9.32 9.32 0 0 0-6.07 1.77 5.58 5.58 0 0 0-2.12 4.52 4.76 4.76 0 0 0 2.44 4.16q2.45 1.59 8.24 2.74a66.88 66.88 0 0 1 9.78 2.61q12.3 4.51 12.3 15.63 0 7.95-6.82 12.86t-17.64 4.92a30.68 30.68 0 0 1-13-2.61 21.83 21.83 0 0 1-8.89-7.14 16.62 16.62 0 0 1-3.22-9.81h14.71A8.11 8.11 0 0 0 906 82a12.11 12.11 0 0 0 7.62 2.21q4.46 0 6.74-1.7a5.23 5.23 0 0 0 2.29-4.51z" class="cls-5"/></svg>