<svg xmlns="http://www.w3.org/2000/svg" viewBox="0 0 2552.39 229.18" width="2552.39" height="229.18"><defs><style>.cls-1{fill:#3a3e3c}</style></defs><path id="Layer_1" d="M0 226.24V11.78h75.12q39 0 59.21 15t20.18 43.82q0 15.77-8.1 27.76a46.83 46.83 0 0 1-22.54 17.61q16.5 4.13 26 16.64t9.5 30.64q0 30.93-19.74 46.84t-56.26 16.2zm44.19-124.61h32.7Q110.31 101 110.32 75q0-14.58-8.47-21t-26.73-6.43H44.19zm0 31.23v57.88H82q15.61 0 24.38-7.44t8.76-20.54q0-29.46-30.49-29.9zm237.87 93.38a47 47 0 0 1-4.27-14.24q-15.46 17.24-40.21 17.23-23.42 0-38.81-13.55t-15.39-34.17q0-25.34 18.78-38.88t54.27-13.7H276v-9.13q0-11.06-5.67-17.68t-17.89-6.63q-10.76 0-16.87 5.16t-6.11 14.14h-42.55a42.8 42.8 0 0 1 8.54-25.63q8.55-11.82 24.16-18.54t35-6.7q29.46 0 46.77 14.81t17.31 41.61v69.07q.13 22.69 6.33 34.32v2.51zm-35.2-29.61a36.76 36.76 0 0 0 17.38-4.19A27.65 27.65 0 0 0 276 181.17v-27.4h-15.89q-32 0-34 22.09l-.15 2.51a17.06 17.06 0 0 0 5.6 13.11q5.58 5.16 15.3 5.15zm170.85-1.77q11.79 0 19.15-6.48t7.66-17.23h39.92a54.64 54.64 0 0 1-8.84 29.68 58.22 58.22 0 0 1-23.79 20.91 74.4 74.4 0 0 1-33.36 7.44q-34.17 0-53.91-21.72t-19.73-60v-2.8q0-36.82 19.59-58.77t53.76-22q29.89 0 47.94 17t18.34 45.3h-39.92q-.3-12.44-7.66-20.21t-19.44-7.78q-14.88 0-22.46 10.85t-7.59 35.18v4.42q0 24.65 7.51 35.41t22.83 10.8zm148.91-32.55l-15.31 15.32v48.61h-42.57V0h42.57v125.34l8.24-10.6 40.8-47.87h51.11l-57.59 66.43 62.6 92.94h-48.9zM900.38 47.57h-65.69v178.67h-44.18V47.57H725.7V11.78h174.68zm-14.87 97.51q0-23.72 9.13-42.27a66.84 66.84 0 0 1 26.29-28.72q17.16-10.17 39.84-10.17 32.26 0 52.66 19.74t22.76 53.61l.29 10.9q0 36.68-20.47 58.84t-54.94 22.17q-34.47 0-55-22.09T885.51 147zm42.56 3q0 22.72 8.55 34.74t24.45 12q15.46 0 24.15-11.87t8.69-38q0-22.27-8.69-34.52t-24.45-12.19q-15.62 0-24.15 12.17t-8.55 37.69zm365.14-100.51h-65.7v178.67h-44.18V47.57h-64.81V11.78h174.69zm63.92 36.68q16.93-20.32 42.57-20.33 51.84 0 52.58 60.25v102.07h-42.57v-100.9q0-13.7-5.89-20.25t-19.59-6.55q-18.7 0-27.1 14.43v113.27h-42.57V0h42.57zm200.61 144.93q-35.06 0-57.08-21.5t-22-57.3v-4.12q0-24 9.28-42.94a68.26 68.26 0 0 1 26.29-29.16q17-10.23 38.82-10.24 32.68 0 51.48 20.62t18.75 58.46v17.4H1521.8q2.06 15.61 12.45 25t26.29 9.42q24.6 0 38.44-17.82l20.92 23.42a64 64 0 0 1-25.9 21.18 85 85 0 0 1-36.26 7.58zm-4.86-130.94q-12.68 0-20.55 8.59t-10.09 24.55h59.21V128q-.3-14.2-7.66-22t-20.91-7.76zM1878 47.57h-65.69v178.67h-44.19V47.57h-64.81V11.78H1878zm102.31 59.22a114.87 114.87 0 0 0-15.31-1.18q-24.16 0-31.67 16.35v104.28h-42.57V66.87H1931l1.18 19q12.81-21.95 35.5-22a44.45 44.45 0 0 1 13.25 1.92zm91.03 122.39q-35.06 0-57.08-21.5t-22-57.3v-4.12q0-24 9.28-42.94a68.26 68.26 0 0 1 26.29-29.16q17-10.23 38.82-10.24 32.7 0 51.48 20.62t18.75 58.46v17.4H2035.4q2.05 15.61 12.45 25t26.29 9.42q24.6 0 38.44-17.82l20.92 23.42a64 64 0 0 1-25.93 21.14 85 85 0 0 1-36.23 7.62zm-4.86-130.94q-12.67 0-20.55 8.59t-10.09 24.55h59.21V128q-.28-14.2-7.66-22t-20.91-7.76zm186.91 128a47 47 0 0 1-4.27-14.29q-15.47 17.24-40.21 17.23-23.41 0-38.81-13.55t-15.39-34.17q0-25.34 18.77-38.88t54.28-13.7h19.59v-9.13q0-11.06-5.67-17.68t-17.9-6.63q-10.74 0-16.86 5.16t-6.11 14.14h-42.57a42.8 42.8 0 0 1 8.54-25.63q8.55-11.77 24.16-18.49t35-6.7q29.46 0 46.77 14.81t17.31 41.61v69.07q.13 22.69 6.33 34.32v2.51zm-35.2-29.61a36.76 36.76 0 0 0 17.38-4.19 27.65 27.65 0 0 0 11.78-11.27v-27.4h-15.91q-32 0-34 22.09l-.15 2.51a17.06 17.06 0 0 0 5.6 13.11q5.58 5.16 15.3 5.15zm155.54-168.94v39.18H2401V98.1h-27.24v79.53q0 8.84 3.38 12.67t13 3.83a67.55 67.55 0 0 0 12.51-1v32.25a87.32 87.32 0 0 1-25.77 3.83q-44.78 0-45.66-45.21V98.1h-23.27V66.87h23.27V27.69zM2511 182.2q0-7.81-7.73-12.3t-24.82-8q-56.86-11.93-56.85-48.31 0-21.21 17.59-35.42t46-14.22q30.34 0 48.54 14.29t18.27 37.09h-42.57a20.63 20.63 0 0 0-5.89-15.1q-5.89-6-18.41-6-10.76 0-16.65 4.86a15.33 15.33 0 0 0-5.89 12.37q0 7.06 6.7 11.41t22.61 7.51a185.9 185.9 0 0 1 26.81 7.15q33.72 12.38 33.73 42.86 0 21.8-18.71 35.28t-48.31 13.47q-20 0-35.57-7.14t-24.38-19.59a45.53 45.53 0 0 1-8.83-26.88h40.35q.6 11.34 8.4 17.38t20.92 6q12.21 0 18.48-4.64a14.44 14.44 0 0 0 6.21-12.07z" class="cls-1"/></svg>