<svg height="155.79" viewBox="0 0 155.79 155.79" width="155.79" xmlns="http://www.w3.org/2000/svg"><rect fill="#f7c645" height="154.79" rx="43.28" stroke="#f7c645" stroke-miterlimit="10" width="154.79" x=".33" y=".55"/><path d="m25.31 111.46v-71.09h24.9q12.95 0 19.63 5t6.69 14.53a16.06 16.06 0 0 1 -2.69 9.2 15.5 15.5 0 0 1 -7.47 5.84 15 15 0 0 1 8.63 5.46 16.34 16.34 0 0 1 3.15 10.16q0 10.26-6.54 15.53t-18.61 5.37zm14.69-41.31h10.8q11.09-.2 11.08-8.84c0-3.22-.93-5.54-2.81-7s-4.82-2.12-8.86-2.12h-10.21zm0 10.35v19.19h12.51q5.18 0 8.08-2.46a8.5 8.5 0 0 0 2.9-6.82q0-9.76-10.1-9.91zm72.52 31.94q-11.62 0-18.92-7.13t-7.3-19v-1.31a31.93 31.93 0 0 1 3.07-14.24 22.64 22.64 0 0 1 8.72-9.76 24.48 24.48 0 0 1 12.91-3.35q10.85 0 17.07 6.84t6.22 19.38v5.76h-33.69a13.1 13.1 0 0 0 4.13 8.3 12.43 12.43 0 0 0 8.71 3.13q8.16 0 12.75-5.91l6.93 7.76a21.15 21.15 0 0 1 -8.59 7 28.17 28.17 0 0 1 -12.01 2.53zm-1.61-43.44a8.85 8.85 0 0 0 -6.82 2.84 14.76 14.76 0 0 0 -3.34 8.16h19.63v-1.11c-.07-3.14-.91-5.57-2.54-7.29a9.12 9.12 0 0 0 -6.93-2.6zm-12.37-28.49h23.97v8.29h-23.97z" fill="none" stroke="#fff" stroke-linecap="round" stroke-linejoin="round" stroke-width="4"/></svg>