<svg xmlns="http://www.w3.org/2000/svg" id="Layer_1" viewBox="0 0 155.79 155.79" width="155.79" height="155.79"><defs><style>.cls-1{fill:#97d2b1;stroke:#97d2b1;stroke-miterlimit:10}.cls-2{fill:none;stroke:#fff;stroke-linecap:round;stroke-linejoin:round;stroke-width:4px}</style></defs><rect width="154.79" height="154.79" x=".5" y=".5" class="cls-1" rx="43.28" ry="43.28"/><path d="M25.48 111.41V40.32h24.91q12.93 0 19.62 5T76.7 59.8A16.1 16.1 0 0 1 74 69a15.54 15.54 0 0 1-7.47 5.83 15 15 0 0 1 8.62 5.52 16.28 16.28 0 0 1 3.14 10.15q0 10.26-6.54 15.53T53.1 111.4zM40.13 70.1H51q11.09-.19 11.09-8.83 0-4.85-2.81-7c-1.87-1.42-4.83-2.13-8.86-2.13H40.13zm0 10.36v19.18h12.55q5.18 0 8.08-2.46a8.45 8.45 0 0 0 2.91-6.81q0-9.77-10.11-9.91zm72.56 31.93q-11.62 0-18.92-7.13t-7.3-19V84.9a31.76 31.76 0 0 1 3.08-14.23A22.51 22.51 0 0 1 98.26 61a24.5 24.5 0 0 1 12.87-3.4q10.83 0 17.06 6.84t6.23 19.38v5.77h-33.64a13.11 13.11 0 0 0 4.12 8.3 12.5 12.5 0 0 0 8.72 3.12q8.14 0 12.74-5.91l6.94 7.77a21.22 21.22 0 0 1-8.6 7 28.14 28.14 0 0 1-12.01 2.52zM111.08 69a8.8 8.8 0 0 0-6.81 2.85 14.73 14.73 0 0 0-3.35 8.15h19.63v-1.16q-.09-4.71-2.54-7.28a9.09 9.09 0 0 0-6.93-2.56zM98.71 40.46h23.97v8.29H98.71z" class="cls-2"/></svg>