<svg xmlns="http://www.w3.org/2000/svg" viewBox="0 0 842.59 217.93" width="842.59" height="217.93"><defs><style>.cls-1{fill:#3a3e3c}</style></defs><path id="Layer_1" d="M204.4 121.64q-1.67 22.92-16.93 36.09t-40.23 13.17q-27.32 0-43-18.39T88.61 102v-8.65q0-20.47 7.22-36.09t20.63-23.95Q129.87 25 147.63 25q24.57 0 39.6 13.17t17.36 37h-29.26q-1.08-13.76-7.66-20t-20-6.19Q133 49 125.73 59.45T118.26 92v10.73q0 23 7 33.65t22 10.63q13.55 0 20.24-6.19t7.65-19.17zm11.17-6.44q0-15.7 6.05-28a44.22 44.22 0 0 1 17.41-19q11.37-6.73 26.39-6.73 21.36 0 34.87 13.07T315.36 110l.2 7.22q0 24.28-13.56 39t-36.38 14.68q-22.83 0-36.44-14.63t-13.61-39.8zm28.19 2q0 15.06 5.66 23t16.2 8q10.23 0 16-7.86t5.76-25.16q0-14.75-5.76-22.86t-16.19-8.11q-10.34 0-16 8.06t-5.67 24.93zm110.71-53.79l.88 12.19q11.32-14.14 30.34-14.14 16.77 0 25 9.85t8.39 29.46V169h-28.22v-67.5q0-9-3.9-13t-13-4.05q-11.89 0-17.85 10.14V169h-28.17V63.41zm117.3-25.95v25.95h18v20.68h-18v52.67c0 3.9.74 6.7 2.24 8.39s4.36 2.54 8.59 2.54a44.53 44.53 0 0 0 8.29-.69v21.37a58.08 58.08 0 0 1-17.07 2.53q-29.65 0-30.24-29.94V84.09h-15.42V63.41h15.42V37.46zM566.68 169a31.4 31.4 0 0 1-2.83-9.46q-10.25 11.41-26.63 11.41-15.51 0-25.7-9a28.86 28.86 0 0 1-10.2-22.63q0-16.78 12.44-25.75t36-9.08h13v-6q0-7.32-3.75-11.71t-11.86-4.39c-4.74 0-8.47 1.14-11.16 3.41a11.61 11.61 0 0 0-4 9.37h-28.32a28.31 28.31 0 0 1 5.65-17q5.66-7.81 16-12.25a58.27 58.27 0 0 1 23.22-4.43q19.5 0 31 9.8T591 98.82v45.75q.09 15 4.19 22.72V169zm-23.31-19.61a24.31 24.31 0 0 0 11.51-2.77 18.32 18.32 0 0 0 7.8-7.47V121h-10.53q-21.18 0-22.54 14.63l-.09 1.66a11.27 11.27 0 0 0 3.7 8.68q3.71 3.38 10.15 3.37zm109.16-1.22q7.8 0 12.68-4.29a15 15 0 0 0 5.07-11.41h26.44a36.15 36.15 0 0 1-5.86 19.65A38.59 38.59 0 0 1 675.11 166a49.37 49.37 0 0 1-22.11 4.9q-22.62 0-35.7-14.38t-13.07-39.76v-1.85q0-24.39 13-38.92t35.6-14.53q19.8 0 31.75 11.26t12.15 30h-26.45q-.19-8.23-5.07-13.39t-12.88-5.15q-9.86 0-14.87 7.18t-5 23.3v2.93q0 16.32 5 23.45t15.07 7.13zm94.03-110.71v25.95h18.05v20.68h-18.05v52.67q0 5.85 2.25 8.39t8.58 2.54a44.45 44.45 0 0 0 8.29-.69v21.37a58.08 58.08 0 0 1-17.07 2.53q-29.61 0-30.24-29.9V84.09H703V63.41h15.41V37.46z" class="cls-1"/></svg>