<svg height="123.91" viewBox="0 0 379.92 123.91" width="379.92" xmlns="http://www.w3.org/2000/svg"><path d="m68.37 75.28q-.91 12.61-9.31 19.87t-22.16 7.25q-15 0-23.66-10.12t-8.62-27.8v-4.78a46.86 46.86 0 0 1 4-19.87 29.86 29.86 0 0 1 11.38-13.19 31.86 31.86 0 0 1 17.16-4.59q13.55 0 21.81 7.25t9.56 20.36h-16.16q-.6-7.57-4.22-11t-11-3.41q-8.05 0-12 5.78t-4.15 17.97v5.91q0 12.67 3.84 18.53t12.06 5.8q7.47 0 11.14-3.41t4.22-10.55zm6.16-3.55a34.45 34.45 0 0 1 3.33-15.41 24.37 24.37 0 0 1 9.58-10.47 28 28 0 0 1 14.56-3.71q11.77 0 19.21 7.2t8.29 19.55l.11 4q0 13.38-7.46 21.46t-20 8.08q-12.57 0-20.06-8.05t-7.56-21.95zm15.52 1.11q0 8.28 3.12 12.66a11.18 11.18 0 0 0 17.72.06q3.17-4.34 3.17-13.85 0-8.13-3.17-12.59a10.3 10.3 0 0 0 -8.89-4.47 10.11 10.11 0 0 0 -8.8 4.44q-3.15 4.44-3.15 13.75zm60.95-29.63.48 6.72q6.24-7.78 16.71-7.79 9.23 0 13.75 5.42t4.62 16.23v37.54h-15.56v-37.17c0-3.29-.71-5.68-2.15-7.17s-3.81-2.23-7.14-2.23a10.68 10.68 0 0 0 -9.83 5.59v41h-15.48v-58.14zm64.59-14.28v14.28h9.94v11.39h-9.94v29c0 2.15.41 3.69 1.24 4.62s2.4 1.4 4.72 1.4a24 24 0 0 0 4.57-.38v11.76a32 32 0 0 1 -9.4 1.39q-16.33 0-16.65-16.49v-31.3h-8.49v-11.39h8.49v-14.28zm52.26 72.4a17.36 17.36 0 0 1 -1.55-5.21 18.79 18.79 0 0 1 -14.67 6.28q-8.53 0-14.15-4.94a15.89 15.89 0 0 1 -5.61-12.46q0-9.24 6.84-14.18t19.8-5h7.14v-3.32a9.57 9.57 0 0 0 -2.07-6.45q-2.07-2.41-6.52-2.42a9.24 9.24 0 0 0 -6.15 1.88 6.4 6.4 0 0 0 -2.23 5.16h-15.52a15.58 15.58 0 0 1 3.11-9.35 20.63 20.63 0 0 1 8.81-6.74 32.08 32.08 0 0 1 12.78-2.44q10.74 0 17.06 5.4t6.31 15.17v25.19q0 8.28 2.31 12.52v.91zm-12.85-10.8a13.34 13.34 0 0 0 6.35-1.53 10 10 0 0 0 4.3-4.11v-10h-5.8q-11.66 0-12.41 8.06l-.05.91a6.2 6.2 0 0 0 2 4.78 7.9 7.9 0 0 0 5.61 1.89zm60.12-.64a10.19 10.19 0 0 0 7-2.36 8.33 8.33 0 0 0 2.8-6.29h14.55a19.85 19.85 0 0 1 -3.22 10.82 21.23 21.23 0 0 1 -8.67 7.63 27.14 27.14 0 0 1 -12.17 2.71q-12.47 0-19.66-7.92t-7.2-21.89v-1q0-13.42 7.15-21.43t19.6-8q10.91 0 17.49 6.2t6.68 16.52h-14.57a10.72 10.72 0 0 0 -2.8-7.37 10.37 10.37 0 0 0 -15.28 1.12q-2.76 3.95-2.76 12.83v1.61q0 9 2.74 12.91t8.32 3.91zm51.78-60.96v14.28h9.94v11.39h-9.94v29q0 3.23 1.23 4.62c.83.94 2.4 1.4 4.73 1.4a24 24 0 0 0 4.57-.38v11.76a32 32 0 0 1 -9.4 1.39q-16.33 0-16.65-16.49v-31.3h-8.49v-11.39h8.49v-14.28z" fill="#3a3e3c"/></svg>