<svg xmlns="http://www.w3.org/2000/svg" id="Layer_1" viewBox="0 0 380.92 123.91" width="380.92" height="123.91"><defs><style>.cls-1{fill:#93b6e0}.cls-2{fill:#a1dbe8}.cls-3{fill:#97d2b1}.cls-4{fill:#f7c644}.cls-5{fill:#f29620}</style></defs><path d="M68.37 74.78q-.91 12.61-9.31 19.87T36.9 101.9q-15 0-23.66-10.12T4.62 64v-4.8a46.86 46.86 0 0 1 4-19.87A29.86 29.86 0 0 1 20 26.14a31.86 31.86 0 0 1 17.16-4.59q13.55 0 21.81 7.25t9.56 20.36H52.37q-.6-7.57-4.22-11t-11-3.41q-8.05 0-12 5.78T21 58.45v5.91Q21 77 24.79 82.89t12.11 5.85q7.47 0 11.15-3.41t4.21-10.55z" class="cls-1"/><path d="M74.53 71.23a34.45 34.45 0 0 1 3.33-15.41 24.33 24.33 0 0 1 9.59-10.47A28 28 0 0 1 102 41.64q11.77 0 19.21 7.2t8.29 19.55l.11 4q0 13.38-7.46 21.46t-20 8.08q-12.57 0-20.06-8.05t-7.56-21.95zm15.52 1.11q0 8.28 3.12 12.66a11.18 11.18 0 0 0 17.72.06q3.17-4.34 3.17-13.85 0-8.13-3.17-12.59a10.3 10.3 0 0 0-8.89-4.47 10.11 10.11 0 0 0-8.8 4.44Q90.05 63 90.05 72.34z" class="cls-2"/><path d="M151 42.71l.48 6.72q6.24-7.78 16.71-7.79 9.23 0 13.75 5.42t4.62 16.23v37.54H171V63.66c0-3.29-.71-5.68-2.15-7.17s-3.81-2.23-7.14-2.23a10.68 10.68 0 0 0-9.83 5.59v41H136.4V42.71z" class="cls-3"/><path d="M215.59 28.43v14.28h9.94V54.1h-9.94v29c0 2.15.41 3.69 1.24 4.62s2.4 1.4 4.72 1.4a24 24 0 0 0 4.57-.38v11.77a32 32 0 0 1-9.4 1.39q-16.32 0-16.65-16.49V54.1h-8.49V42.71h8.49V28.43z" class="cls-4"/><path d="M267.85 100.83a17.36 17.36 0 0 1-1.55-5.21 18.79 18.79 0 0 1-14.67 6.28q-8.53 0-14.15-4.94a15.89 15.89 0 0 1-5.61-12.46q0-9.24 6.85-14.18t19.79-5h7.14V62a9.57 9.57 0 0 0-2.07-6.45c-1.37-1.61-3.55-2.42-6.52-2.42a9.24 9.24 0 0 0-6.15 1.87 6.4 6.4 0 0 0-2.23 5.16h-15.52a15.58 15.58 0 0 1 3.11-9.35 20.63 20.63 0 0 1 8.81-6.74 32.11 32.11 0 0 1 12.78-2.44q10.74 0 17.06 5.4t6.31 15.17v25.2q0 8.28 2.31 12.52v.91zM255 90a13.34 13.34 0 0 0 6.33-1.53 10 10 0 0 0 4.3-4.11v-10h-5.8q-11.66 0-12.41 8.06l-.05.91a6.2 6.2 0 0 0 2 4.78A7.9 7.9 0 0 0 255 90z" class="cls-5"/><path d="M315.12 89.39a10.19 10.19 0 0 0 7-2.36 8.29 8.29 0 0 0 2.8-6.29h14.55a19.85 19.85 0 0 1-3.22 10.82 21.23 21.23 0 0 1-8.67 7.63 27.14 27.14 0 0 1-12.17 2.71q-12.47 0-19.66-7.92t-7.19-21.89v-1q0-13.42 7.14-21.43t19.6-8q10.91 0 17.49 6.2t6.68 16.52H324.9a10.67 10.67 0 0 0-2.8-7.38 10.37 10.37 0 0 0-15.28 1.12q-2.76 3.95-2.76 12.83v1.61q0 9 2.74 12.91t8.32 3.92z" class="cls-1"/><path d="M366.9 28.43v14.28h9.94V54.1h-9.94v29q0 3.23 1.23 4.62c.83.94 2.4 1.4 4.73 1.4a24 24 0 0 0 4.57-.38v11.77a32 32 0 0 1-9.4 1.39q-16.33 0-16.65-16.49V54.1h-8.49V42.71h8.49V28.43z" class="cls-2"/></svg>