<svg xmlns="http://www.w3.org/2000/svg" viewBox="0 0 677.07 187.04">
  <defs>
    <style>
      .cls-1 {
        fill: #3a3e3c;
      }
    </style>
  </defs>
  <title>icon</title>
  <g id="Layer_1" data-name="Layer 1">
    <g>
      <path class="cls-1" d="M115.79,96.67q-1.67,22.92-16.93,36.09T58.63,145.93q-27.31,0-43-18.39T0,77.06V68.38Q0,47.89,7.22,32.29T27.85,8.34Q41.26,0,59,0q24.57,0,39.6,13.17t17.36,37H86.72q-1.08-13.76-7.66-19.95T59,24q-14.64,0-21.9,10.48T29.65,67V77.74q0,23,7,33.66t22,10.63q13.54,0,20.24-6.19t7.65-19.17Z"/>
      <path class="cls-1" d="M127,90.23q0-15.7,6-28a44.33,44.33,0,0,1,17.41-19q11.37-6.72,26.39-6.73,21.36,0,34.87,13.07t15.07,35.51l.2,7.22q0,24.28-13.56,39T177,145.93q-22.81,0-36.43-14.63T127,91.5Zm28.19,2q0,15,5.66,23t16.19,8q10.25,0,16-7.86t5.76-25.16q0-14.75-5.76-22.86t-16.19-8.11q-10.34,0-16,8.06T155.15,92.23Z"/>
      <path class="cls-1" d="M265.86,38.43l.88,12.2q11.33-14.15,30.34-14.15,16.77,0,25,9.85t8.39,29.46V144H302.25V76.48q0-9-3.9-13t-13-4.05q-11.89,0-17.85,10.14V144H239.33V38.43Z"/>
      <path class="cls-1" d="M383.16,12.49V38.43h18V59.11h-18v52.68c0,3.9.74,6.7,2.24,8.39s4.36,2.53,8.58,2.53a44.62,44.62,0,0,0,8.3-.68v21.36a58.09,58.09,0,0,1-17.07,2.54q-29.65,0-30.24-29.95V59.11H339.55V38.43H355V12.49Z"/>
      <path class="cls-1" d="M478.07,144a31.49,31.49,0,0,1-2.83-9.46Q465,145.94,448.61,145.93q-15.51,0-25.7-9a28.88,28.88,0,0,1-10.2-22.64q0-16.77,12.44-25.75t36-9.07h13v-6c0-4.87-1.25-8.78-3.75-11.7s-6.46-4.39-11.86-4.39c-4.74,0-8.47,1.14-11.16,3.41a11.61,11.61,0,0,0-4.05,9.37h-28.2a28.35,28.35,0,0,1,5.66-17q5.66-7.8,16-12.24a58.27,58.27,0,0,1,23.22-4.44q19.5,0,31,9.81t11.46,27.55v45.75q.09,15,4.19,22.73V144Zm-23.31-19.61a24.32,24.32,0,0,0,11.51-2.78,18.24,18.24,0,0,0,7.8-7.46V96H463.54Q442.36,96,441,110.62l-.1,1.66a11.3,11.3,0,0,0,3.71,8.68Q448.31,124.38,454.76,124.37Z"/>
      <path class="cls-1" d="M563.92,123.2q7.8,0,12.68-4.29a15,15,0,0,0,5.07-11.41h26.44a36.17,36.17,0,0,1-5.86,19.65A38.57,38.57,0,0,1,586.5,141a49.25,49.25,0,0,1-22.1,4.93q-22.62,0-35.7-14.39T515.63,91.79V89.94q0-24.39,13-38.92t35.61-14.54q19.8,0,31.75,11.27t12.15,30H581.67q-.2-8.22-5.07-13.38t-12.88-5.15q-9.86,0-14.87,7.18t-5,23.3v2.93q0,16.32,5,23.45T563.92,123.2Z"/>
      <path class="cls-1" d="M658,12.49V38.43h18V59.11H658v52.68q0,5.85,2.25,8.39t8.58,2.53a44.59,44.59,0,0,0,8.29-.68v21.36A58.09,58.09,0,0,1,660,145.93q-29.65,0-30.24-29.95V59.11H614.35V38.43h15.41V12.49Z"/>
    </g>
  </g>
</svg>
