<svg xmlns="http://www.w3.org/2000/svg" viewBox="0 0 88.02 121" width="88.02" height="121"><defs><style>.cls-1,.cls-2,.cls-3,.cls-4,.cls-5,.cls-6{fill:none;stroke-linecap:round;stroke-linejoin:round;stroke-width:5px}.cls-1{stroke:#97d6e4}.cls-2{stroke:#f08a1d}.cls-3{stroke:#333735}.cls-4{stroke:#f6be3c}.cls-5{stroke:#8ccba7}.cls-6{stroke:#88addb}</style></defs><g id="Layer_6"><path d="M69.36 76.7v34.43" class="cls-1"/><path d="M63.54 20.15v33.84" class="cls-2"/><path d="M14.18 47.63H24.3m-9.54-8.68h16.77m-17.06-6.94h9.25m-9.54-7.81h9.54m-9.25-8.1h17.35" class="cls-3"/><path d="M42.42 53.12V2.79H11.76V53.7" class="cls-4"/><path d="M73.95 19.86L64.12 2.5 52.83 19.86h21.12" class="cls-5"/><path d="M73.95 53.12V19.86H52.83V53.7" class="cls-2"/><path d="M81.18 69v41.1a8.36 8.36 0 0 1-8.36 8.37H15.21a8.37 8.37 0 0 1-8.37-8.37V69h74.34" class="cls-6"/><rect width="83.02" height="14.75" x="2.5" y="53.99" class="cls-6" rx="5.06" ry="5.06"/></g></svg>