<svg height="121" viewBox="0 0 88.02 121" width="88.02" xmlns="http://www.w3.org/2000/svg"><g fill="none" stroke-linecap="round" stroke-linejoin="round" stroke-width="5"><path d="m69.36 76.7v34.43" stroke="#97d6e4"/><path d="m63.54 20.15v33.84" stroke="#f08a1d"/><path d="m14.18 47.63h10.12m-9.54-8.68h16.77m-17.06-6.94h9.25m-9.54-7.81h9.54m-9.25-8.1h17.35" stroke="#333735"/><path d="m42.42 53.12v-50.33h-30.66v50.91" stroke="#f6be3c"/><path d="m73.95 19.86-9.83-17.36-11.29 17.36z" stroke="#8ccba7"/><path d="m73.95 53.12v-33.26h-21.12v33.84" stroke="#f08a1d"/><g stroke="#88addb"><path d="m81.18 69v41.1a8.36 8.36 0 0 1 -8.36 8.37h-57.61a8.37 8.37 0 0 1 -8.37-8.37v-41.1z"/><rect height="14.75" rx="5.06" width="83.02" x="2.5" y="53.99"/></g></g></svg>