<svg xmlns="http://www.w3.org/2000/svg" viewBox="0 0 155.79 155.79" width="155.79" height="155.79"><defs><style>.cls-1{fill:#8ccba7;stroke:#8ccba7;stroke-miterlimit:10}.cls-2{fill:none;stroke:#fff;stroke-linecap:round;stroke-linejoin:round;stroke-width:3.86px}</style></defs><g id="Layer_1"><rect width="154.79" height="154.79" x=".5" y=".5" class="cls-1" rx="43.28" ry="43.28"/><path d="M42 38a7.69 7.69 0 0 1 2.35-5.78 8.8 8.8 0 0 1 6.39-2.26 8.84 8.84 0 0 1 6.37 2.26A7.67 7.67 0 0 1 59.44 38 7.65 7.65 0 0 1 57 43.79a8.81 8.81 0 0 1-6.34 2.27 8.83 8.83 0 0 1-6.34-2.27A7.65 7.65 0 0 1 42 38zm16.57 73.48H42.88v-58.4h15.65zm25.82-58.4l.49 6.74Q91.14 52 101.66 52q9.27 0 13.81 5.45t4.64 16.29v37.71h-15.59V74.12q0-5-2.16-7.21t-7.18-2.23a10.72 10.72 0 0 0-9.87 5.61v41.16H69.72V53.08z" class="cls-2"/></g></svg>