<svg xmlns="http://www.w3.org/2000/svg" viewBox="0 0 415.56 593.21" width="415.56" height="593.21"><defs><style>.cls-1{fill:#88addb}.cls-2{fill:#8ccba7}.cls-3{fill:#f08a1d}.cls-4{fill:#97d6e4}.cls-5{fill:#f6be3c}.cls-6{fill:#fff}.cls-7{fill:#333735}</style></defs><g id="Layer_1"><path d="M252.6 354h-87a17.85 17.85 0 0 0-16.94 12.21l-13.29 39.88a17.88 17.88 0 0 1-17 12.21H88.58a17.85 17.85 0 0 1-16.73-24.09l102.88-276.37a17.84 17.84 0 0 1 16.73-11.62h34.8A17.85 17.85 0 0 1 243 117.81l103.43 276.37a17.86 17.86 0 0 1-16.72 24.12h-29.8A17.86 17.86 0 0 1 283 406.14l-13.46-40A17.86 17.86 0 0 0 252.6 354zm-57.8-52.09h28.44a17.86 17.86 0 0 0 16.93-23.54l-14.3-42.58c-5.46-16.26-28.47-16.22-33.88.06l-14.14 42.58a17.85 17.85 0 0 0 16.95 23.48z" class="cls-1"/><path d="M177.45 147.18c-12.39 47.51 11.36 64-47.52 86.77s-99.16 26.86-31 71.28c57.4 37.39 144.19-15.93 145.66-17.57 9.29-10.33 67.14-56.81 67.14-83.67 0-11.86-15.78-62-43.38-78.51-34.92-20.84-83.98-4.84-90.9 21.7z" class="cls-2"/><path d="M289.48 294.26c30 10.6 28.35 39.33 37.55 46.34a22.81 22.81 0 0 1 8.54 12.79l11.28 47.19a22.19 22.19 0 0 1-21.59 27.36h-21.87a22.2 22.2 0 0 1-21.86-18.33c-6.9-38.81-19.36-124.99 7.95-115.35z" class="cls-3"/><path d="M302.68 228.69c-6.65-6.75-18.28-4.61-22.78 3.5-4.89 8.81.77 19.77 9.59 23.15 8 3 18.75-.66 20.74-9.66a14.55 14.55 0 0 0-2.8-12.16c-3.34-4.29-7.94-5.55-13.18-4.75-4.46.69-7.32 6.53-6 10.59 1.57 4.86 5.8 6.75 10.59 6-1.61.25-3 .26-4.23-.7-.53-.4-1.22-1.75-.7-.55-.16-.39-.52-2.45-.51-1.64s.24-1.36.43-1.72c.37-.7 1-.92 1.48-1.42.52-.19.54-.22.07-.07-.63.15-.44.14.57 0-1.65-.21.85.07-.18.08-.35 0-2.08-.66-.27 0-.67-.23-.75-.32 0 0-.59-.64-.68-.73-.28-.29s.33.33-.13-.4c.12-.09.29 1.39.13 0 0 .33-.16 2.09.06 1.32.29-1-.52.91-.7 1.17-.82.57-.95.7-.41.39s.38-.21-.12 0c-.58.06-2.11.19-.77.32a4.14 4.14 0 0 1-2.75-.94 8.61 8.61 0 1 0 12.17-12.17z" class="cls-4"/><path d="M183.65 145.45c11.08 0 11.09-17.21 0-17.21s-11.1 17.21 0 17.21zm-27.89 241.73c11.08 0 11.09-17.22 0-17.22s-11.1 17.22 0 17.22z" class="cls-3"/><path d="M342.65 212.6c11.08 0 11.09-17.21 0-17.21s-11.1 17.21 0 17.21z" class="cls-5"/><path d="M156.65 431.43c6.28-21.89-23.74-31.32-39.21-36.42-9.08-3-20.81-7.73-27.06 2.43-4.6 7.47-4.15 17.44-.21 25.05s11.52 12.23 19.85 13.76c7.35 1.36 16.6 0 23.15 4 4.59 2.85 8.28 3.83 13.4 1.26a150.76 150.76 0 0 0 14.78-9c8.21-5.4 12-14.52 7.05-23.67-5.45-10-17.34-12.09-27.57-9.26-10 2.75-18.94 10.62-29.26 4.58-9.58-5.61-18.25 9.27-8.69 14.86a32.88 32.88 0 0 0 20.55 4.55c7.06-.82 12.95-4.3 19.54-6.63 2.37-.83 6-2.24 8.55-1.22.49.2.89.48 1.36.69 1.5.69-.3 2.11.75.52-.82 1.24-3.47 2.25-4.68 3-3.26 2-6.93 5-10.45 6.42h4.57c-1.71-.48-3.9-2.43-5.72-3.16a32.9 32.9 0 0 0-6.75-1.91c-5.21-.88-10.51-.82-15.71-1.62-3.55-.54-7.27-1.51-9.23-4.75a9.59 9.59 0 0 1-1.37-4.39 21 21 0 0 1 .12-2.26c0-.93 1.1-1.78 0-1.18l-4.35 1.18c3.91-.32 9.06 2.08 12.78 3.31s7.61 2.63 11.32 4.19c3.41 1.44 17.31 6 15.87 11.05-3.07 10.67 13.54 15.22 16.6 4.58z" class="cls-2"/><path d="M145.43 411.28h-37.19c-11.08 0-11.1 17.22 0 17.22h37.19c11.08 0 11.09-17.22 0-17.22z" class="cls-2"/><path d="M138.27 408.82c1.41-14.56-7.15-27.51-20-33.7-6-2.88-12.26-4.92-17.94-8.48a55.48 55.48 0 0 1-14.22-13c-3.79-4.88-7-10.18-11.86-14.11a25.93 25.93 0 0 0-21.39-5.48c-12.64 2.22-22.2 12.46-26.16 24.27a36.75 36.75 0 0 0 5.67 34.22c8.22 10.45 21.88 17.83 33.88 23.08 6.87 3 13.87 5 21.42 4.91 3.72 0 7.42-.55 11.13-.77a41.87 41.87 0 0 1 12 1.21c7.05 1.52 14.18-.1 18-6.72a16.88 16.88 0 0 0-2.47-19.55c-5.55-6.16-13.81-7.38-21.66-7.53-7.63-.13-14.83-.84-22.14-3.19-6.69-2.15-13.52-5.57-18.65-10.45-3.21-3.05-8.26-9-5.93-13.84l-9.72 4c4.4 1.81 7.73 6.26 10.59 9.86 3.64 4.58 7 9.44 11.4 13.36a55.45 55.45 0 0 0 17.29 10.25c6 2.32 12.57 2.29 18.53 4.35l-3.8-2.22.83.75-2.21-3.8.32 1v-4.57l-.26 1 2.21-3.8c-.85 1.07-4.19 1.24-5.79 1.52a70.51 70.51 0 0 1-9.72 1 47.35 47.35 0 0 1-18.18-2.53c-8.44-3.11-15.38-9.75-17.53-18.59-2.62-10.76-19.22-6.2-16.6 4.58 3.69 15.19 16.33 26.42 30.91 31.07a66.54 66.54 0 0 0 26 2.4c8-.74 19.79-1.13 24.4-9a10.65 10.65 0 0 0-1.41-12.42c-3.23-3.44-7.33-3.45-11.63-4.17-7-1.19-14.18-3.43-19.89-7.82-5.47-4.21-9.28-10.3-13.6-15.59a43.23 43.23 0 0 0-17.31-13.19c-3.25-1.35-8.22.85-9.72 3.95-11.44 23.56 14.54 42.78 34.08 49.32a82.91 82.91 0 0 0 16.79 3.53c5.36.61 11.39-.34 16.6 1 .1 0 3.38 1.73 3.24 1.75-1.11.18 1-2.12 1-1.7.2-1.15 2.86.54-1-.95-6.35-2.44-13.88-1.44-20.46-.93-6 .46-11.4.3-17.11-1.81-5.51-2-10.65-5.19-15.71-8.13-7.74-4.49-16.88-9.91-18.27-19.6-1-7.07 1.72-15.21 7.5-19.62 3.12-2.38 7.66-4.11 11.48-2.49 4 1.71 6.76 6.42 9.23 9.77 7.5 10.19 16.71 18.77 28.27 24.15 5.77 2.69 12.7 4.4 17.52 8.75 4.25 3.83 5.48 9.27 4.94 14.78-.45 4.63 4.28 8.61 8.61 8.61 5 0 8.16-4 8.61-8.61zm124-322.16c-12.83-10.74-32.35-12.7-45.44-1.1-11.92 10.57-13.83 30.07-3.76 42.44 10.33 12.64 28.47 13.26 41.76 21.38 8 4.92 16 10 25.56 11 8.59.87 17.41-2.37 22.71-9.32 13.32-17.45-6.64-34.17-19.66-43.54-6.83-4.92-13.88-9.57-19.53-15.9-2.85-3.2-5.18-6.69-9.12-8.72A25.12 25.12 0 0 0 241 80.5c-17.41 1.75-30.7 18.91-24 36.15 3.29 8.4 10.59 13.2 18.51 16.75 8.23 3.7 15.65 8.72 23.75 12.64a59.05 59.05 0 0 0 15.74 5.24c5.38.91 11.84 2 16.27-2.06 9.08-8.31 0-19.8-8.25-24-8.13-4.07-16.7-6-24.41-11.11a68 68 0 0 1-14.95-13.75c-.48-.62-1-1.44-1.46-2-1.34-1.42.27-.37-.17.81l-2.21 3.8.56-.61-3.8 2.22-.07.16-4.34-1.18c15.38 7.75 29.52 19.36 42.11 31 8.14 7.5 20.34-4.64 12.17-12.17a265.51 265.51 0 0 0-32.3-25.49c-5.36-3.58-12.29-9.56-19-9.52-7.15 0-11.17 7.06-10.1 13.5 1 6 5.53 10.89 9.5 15.21a83 83 0 0 0 14.08 12A81.62 81.62 0 0 0 265 136.7c2.82 1.1 5.8 1.88 8.56 3.11a25.28 25.28 0 0 1 2.63 1.38c2.44 1.45.59 1.21 1.4-1.1l2.21-3.8-.79.76 3.8-2.21c-3.58 1.11-10.07-1.56-13.33-2.93-5.35-2.25-10.18-5.65-15.22-8.47-4.17-2.33-8.57-4.08-12.86-6.16-3.3-1.6-7.33-3.44-8.57-7.19-2.39-7.22 4.77-13.17 11.62-12.52 4 .38 6.25 5.24 8.89 8a100.48 100.48 0 0 0 12.15 10.2c7.42 5.52 16.56 10.46 22.26 17.94 2 2.62 3.53 5.72.56 8.11-3.39 2.71-8.54 1.43-12.15 0-9.16-3.65-16.73-10.28-26-13.81-7.46-2.83-17.29-4.07-23.07-10-5.13-5.27-4.25-14.37 1-19.32 5.85-5.56 16.1-4.76 22 .22 3.56 3 8.68 3.49 12.17 0 3.06-3.07 3.58-9.18 0-12.17z" class="cls-4"/><path d="M319.24 138.06c5.53 0 5.54-8.6 0-8.6s-5.55 8.6 0 8.6zM294.65 414.9c5.54 0 5.55-8.61 0-8.61s-5.55 8.61 0 8.61z" class="cls-5"/><path d="M273 95.7c5.53 0 5.54-8.61 0-8.61s-5.55 8.61 0 8.61zm-86.82 192.14c5.54 0 5.55-8.61 0-8.61s-5.54 8.61 0 8.61z" class="cls-2"/><path d="M163.17 29.25c6.26 15.64 21.74 26.36 38.83 25.2 11.39-.77 22.15-3.82 33.7-3.2 7.57.41 20.17 1.19 24.31 8.94 3.94 7.37-.43 16.86-2.37 24.18-2.14 8.08-2.91 16.41 1 24.09 4.08 8 12.12 12.76 19.55 17.17 8.8 5.24 17.72 10.59 24.76 18.14 14.56 15.6 18.47 38.6 14.73 59.06-1 5.42 7.3 7.74 8.3 2.29 3.26-17.83 1.64-36.56-6.69-52.85-9.38-18.33-26.37-27-42.85-37.79-8.71-5.71-13.55-13.07-11.51-23.68 1.57-8.13 5.33-15.93 5.13-24.35-.49-20.09-22.18-23.76-38.27-23.94a104 104 0 0 0-18.55 1.6c-6.16 1-12.38 2.55-18.64 1.47A31 31 0 0 1 171.47 27c-2-5.08-10.36-2.87-8.3 2.28z" class="cls-3"/><path d="M166.23 282.2l12.42-31.66c2-5.16-6.3-7.4-8.3-2.29l-12.42 31.67c-2 5.15 6.3 7.39 8.3 2.28zm-23.02 14.13a32.24 32.24 0 0 1-16.94-.31c-5.34-1.52-7.62 6.78-2.29 8.3a41.23 41.23 0 0 0 21.52.31c5.37-1.35 3.09-9.65-2.29-8.3z" class="cls-2"/><path d="M222.83 182.13c5.54 0 5.55-8.6 0-8.6s-5.55 8.6 0 8.6z" class="cls-5"/><path d="M224.21 193.67c9 0 17.63-7.92 17.21-17.22s-7.56-17.21-17.21-17.21c-9 0-17.63 7.92-17.22 17.21s7.57 17.22 17.22 17.22z" class="cls-5"/><path d="M154 142.71c9 0 17.63-7.92 17.22-17.21s-7.57-17.22-17.22-17.22c-9 0-17.63 7.92-17.21 17.22s7.56 17.21 17.21 17.21zm199.67 283.02c9 0 17.63-7.92 17.21-17.22s-7.56-17.21-17.21-17.21c-9 0-17.64 7.91-17.22 17.21s7.56 17.22 17.22 17.22z" class="cls-4"/><path d="M162.93 275.77c-7 4.21-14.36 9.79-22.21 12.32s-16.29 1.83-24.42 1.31c-11.06-.71-11 16.51 0 17.22 9.64.62 19.67 1.08 29-1.93s17.86-9 26.32-14.05c9.49-5.69.85-20.58-8.69-14.87z" class="cls-2"/><path d="M154.88 283.47a62.12 62.12 0 0 1-47.26 6.22c-10.72-2.86-15.29 13.74-4.58 16.6a80 80 0 0 0 60.53-8c9.6-5.52.94-20.41-8.69-14.87z" class="cls-2"/><path d="M155.67 286.61c-.7 6.49-13.38 8.26-17.94 9.24-7.59 1.63-15.66 2.46-23.36 1.12-13-2.25-25.5-12-24.47-26.28.79-11.06-16.42-11-17.22 0-1.69 23.51 19.56 40.7 41.11 43.48 11.78 1.52 23.92-.14 35.3-3.39 12.27-3.51 22.34-10.77 23.8-24.17.5-4.63-4.32-8.61-8.61-8.61-5.07 0-8.1 4-8.61 8.61z" class="cls-2"/><path d="M62 268.55c-.33 10.72 5.19 20.56 13.45 27.12 9.33 7.42 21 10.06 32.53 11.71 4.59.66 9.24-1.13 10.59-6 1.11-4-1.39-9.93-6-10.59-12.48-1.79-33.85-5.5-33.34-22.23.34-11.08-16.87-11.07-17.21 0z" class="cls-2"/><path d="M62.05 267c6.41 0 6.42-9.95 0-9.95s-6.41 9.95 0 9.95z" class="cls-5"/><path d="M97.35 182.47c5.53 0 5.54-8.61 0-8.61s-5.55 8.61 0 8.61z" class="cls-3"/><path d="M238.29 269.78s-3.49-34.17-15.46-49.48c-7.92-10.14-24.89-5.18-27.89-1.12-12.64 17.11-17.09 55.7-17.09 55.7s-2.56 13.14 2.6 18.17 62-3.15 62-3.15z" class="cls-6"/><path d="M313.58 478.08a125 125 0 0 0 15.08-51.63c1.15-16.19 2.18-33.84-3-49.48-2.38-7.19-6.35-14.18-12.23-19.08-7-5.84-14.93-7.53-23.81-8.42-5.49-.56-14-.82-13.86-8 .16-7.69 1.79-14.39-.9-21.94-5-13.95-17.49-23.33-31.05-28.13-17.14-6.08-35.71-2.62-53.3-1.08-8 .71-17.58 2-25.31-.81-5.45-2-9-6.79-11.05-12.09-5.88-15.5.33-32.7 2.19-48.39 4.21-35.48-12.5-70.84-41.13-91.68-3.76-2.73-9.59-.64-11.77 3.09-2.55 4.35-.68 9 3.09 11.78 22.71 16.53 35.33 45.22 33 73.09-1.41 16.84-7.06 33-3.78 50 2.69 13.95 11.63 26.83 25.67 31 29.05 8.66 67.1-14.25 91.6 10.17 3.7 3.69 6.32 8.26 6.53 13.57.33 8.46-2.73 16.05 2.1 24 3.89 6.36 11.16 10.11 18.32 11.45s15.9.26 21.89 5c12.3 9.79 10.76 31.49 10.19 45.34-.78 18.95-4.12 36.74-13.32 53.53-5.33 9.72 9.53 18.41 14.86 8.69z" class="cls-5"/><path d="M255.41 284.92a9.68 9.68 0 0 0-12-6.69 10.08 10.08 0 0 0 .53 19.69 12.09 12.09 0 0 0 11.48-3.57 13.83 13.83 0 0 0-.82-18.74c-4.93-4.94-13.62-5.12-18.24.42a14.77 14.77 0 0 0-3.65 9.82c.09 4.6 2.4 8.08 6 10.74 1.69 1.25 4.71 1.4 6.64.87a8.76 8.76 0 0 0 5.14-4c2.38-4.49.79-8.9-3.09-11.77 1.47 1.08 2.31 1.78 2.48 3.22l-.1-.34c-.19-.86-.14-.45.15 1.24.32-1.84-.28.87-.2.85a5.56 5.56 0 0 1 .19-.7c-.67 1.48-.82 1.83-.43 1.06.71-1.17-1.49 1.63-.49.61.63-.57.33-.33-.92.71l-1.43.57c.85-.25.43-.22-1.24.08.91 0 .51-.06-1.18-.21 1.33.31-2-1-.76-.28-1.18-1-1.53-1.23-1-.76s.21.14-.76-1c.76 1.79-.32-1.27-.12-.55.51 1.74.1-2.1 0-.65s.55-2.26.13-.85c.7-1.48.84-1.84.43-1.08a3.93 3.93 0 0 1 1.45-1.61c.7-.49.78-.56.23-.23a5.07 5.07 0 0 1 2.81-.79c4.43 0 8.34 5.73 5.36 10.71a6.54 6.54 0 0 1-4 3.1q-5.67-.76-3.57 0l-3.8-2.22-1.83-3.16c1.16 4.35 6.19 7.44 10.59 6a8.77 8.77 0 0 0 6-10.59zM124.24 404q4.08-1.12 1.58-.8c-.83.08-1.66.15-2.5.21-1.67.12-3.35.23-5 .24a21 21 0 0 1-8.49-1.27c-4.25-1.88-9.24-1.24-11.77 3.08-2.15 3.67-1.19 9.89 3.08 11.78a42 42 0 0 0 18.86 3.53c5.54-.18 12.54-.07 16.45-4.65 7.15-8.38-5-20.62-12.18-12.17z" class="cls-4"/><path d="M93.23 422.3a53.84 53.84 0 0 0 27.62-5.13c4.23-1.94 5.27-8.05 3.09-11.78-2.54-4.34-7.53-5-11.77-3.09a36.6 36.6 0 0 1-18.94 2.78c-4.64-.42-8.61 4.27-8.61 8.61 0 5 4 8.18 8.61 8.61z" class="cls-4"/><path d="M125.47 406.19c-8.85 5.25-19.89 4.69-29.77 3.43-10.91-1.4-16.78-11.82-23-19.93-2.77-3.69-7.37-5.64-11.7-3.09-3.63 2.13-5.92 8.06-3.08 11.78 9.23 12.11 17.74 25.62 34 28 14.23 2.06 29.56 2.27 42.31-5.29 9.53-5.64.88-20.52-8.69-14.86z" class="cls-4"/><path d="M65.83 431.92c9 0 17.63-7.92 17.22-17.21s-7.57-17.22-17.22-17.22c-9 0-17.63 7.92-17.21 17.22s7.56 17.21 17.21 17.21z" class="cls-3"/><path d="M316.48 268.9c5.54 0 5.55-8.61 0-8.61s-5.55 8.61 0 8.61z" class="cls-2"/><path d="M320.61 77.47c5.54 0 5.55-8.61 0-8.61s-5.54 8.61 0 8.61zM181.52 8.61c5.54 0 5.54-8.61 0-8.61s-5.55 8.61 0 8.61z" class="cls-4"/><path d="M81 456.2c5.54 0 5.55-8.61 0-8.61s-5.55 8.61 0 8.61z" class="cls-5"/><path d="M374.32 388.71c5.54 0 5.55-8.6 0-8.6s-5.54 8.6 0 8.6z" class="cls-2"/><path d="M100 321.06c11.07 0 11.09-17.21 0-17.21s-11.1 17.21 0 17.21z" class="cls-5"/><path d="M78.41 353a41.54 41.54 0 0 1-12.59-12.59 8.74 8.74 0 0 0-13.52-1.74c-10.19 9.07 2.41 22.43 10.23 27.6 3.87 2.56 9.52.77 11.77-3.09 2.46-4.21.8-9.2-3.09-11.77a22.27 22.27 0 0 1-4-3.51 9.46 9.46 0 0 1-1.09-1.43 9.88 9.88 0 0 1-.67-1.13q1.65 2.46-1 5.5L51 349.14a60.87 60.87 0 0 0 18.76 18.77c3.93 2.49 9.5.81 11.78-3.09A8.76 8.76 0 0 0 78.41 353z" class="cls-4"/><path d="M340.75 345c11.07 0 11.09-17.22 0-17.22s-11.1 17.22 0 17.22z" class="cls-3"/><path d="M64.6 571.34h-36l-6.83 20.5H0l37.05-99.53h19l37.26 99.53H71.5zm-30.42-16.62h24.88l-12.51-37.25zm82.37-36.84l.62 8.27q7.86-9.64 21.26-9.64 14.28 0 19.62 11.28 7.78-11.28 22.21-11.28 12 0 17.91 7t5.88 21.09v47.23h-19.82v-47.15c0-4.2-.82-7.26-2.46-9.2s-4.54-2.9-8.68-2.9q-8.9 0-12.31 8.47l.07 50.79h-19.76v-47.1q0-6.42-2.53-9.29c-1.68-1.92-4.55-2.87-8.61-2.87q-8.4 0-12.17 7v52.29H98v-74zm169.33 37.66q0 17.78-7.59 27.72t-21.19 10a23.11 23.11 0 0 1-19.21-9.26l-.89 7.86h-17.77v-105H239v37.67q6.84-8 18-8 13.55 0 21.23 10t7.69 28zm-19.76-1.43q0-11.22-3.55-16.37T252 532.58q-9.43 0-13 7.72v29.19q3.63 7.78 13.13 7.79t12.58-9.43q1.41-4.51 1.41-13.74zm65.97 39.1q-16.27 0-26.49-10t-10.22-26.59v-1.92a44.67 44.67 0 0 1 4.31-19.92 31.62 31.62 0 0 1 12.2-13.54 34.22 34.22 0 0 1 18-4.75q15.18 0 23.89 9.57t8.72 27.14v8.07h-47.1a18.34 18.34 0 0 0 5.78 11.62 17.48 17.48 0 0 0 12.2 4.37q11.42 0 17.84-8.27l9.71 10.87a29.81 29.81 0 0 1-12 9.81 39.46 39.46 0 0 1-16.84 3.54zm-2.26-60.77a12.35 12.35 0 0 0-9.53 4q-3.66 4-4.68 11.4h27.48v-1.58q-.15-6.59-3.56-10.2t-9.71-3.62zm85.45 3.96a54.37 54.37 0 0 0-7.11-.54q-11.21 0-14.69 7.58v48.4h-19.76v-74h18.66l.55 8.82q5.94-10.19 16.47-10.19a20.85 20.85 0 0 1 6.16.89z" class="cls-7"/></g></svg>