<svg xmlns="http://www.w3.org/2000/svg" id="Layer_1" viewBox="0 0 324.39 123.91" width="324.39" height="123.91"><defs><style>.cls-1{fill:#93b6e0}.cls-2{fill:#a1dbe8}.cls-3{fill:#97d2b1}.cls-4{fill:#f7c644}.cls-5{fill:#f29620}</style></defs><path d="M51.13 84.88H22.88L17.51 101H.38l29.11-78.21h14.93L73.69 101H56.56zm-23.9-13h19.55L37 42.56z" class="cls-1"/><path d="M93.32 42.88l.48 6.5q6.18-7.58 16.71-7.57 11.22 0 15.41 8.86 6.13-8.87 17.46-8.86 9.45 0 14.07 5.5t4.62 16.57V101H146.5V63.93q0-4.93-1.94-7.22t-6.82-2.28q-7 0-9.67 6.66l.06 39.91H112.6V64c0-3.37-.66-5.8-2-7.31s-3.58-2.25-6.77-2.25q-6.61 0-9.56 5.48V101h-15.5V42.88z" class="cls-2"/><path d="M222.51 72.47q0 14-6 21.78t-16.65 7.82a18.15 18.15 0 0 1-15.09-7.25l-.7 6.18h-14V18.5h15.52v29.59a17.67 17.67 0 0 1 14.12-6.28q10.64 0 16.68 7.81t6 22zM207 71.35c0-5.88-.93-10.16-2.79-12.87s-4.64-4-8.33-4q-7.41 0-10.2 6.07v22.88q2.85 6.12 10.31 6.12t9.88-7.41c.75-2.36 1.13-5.96 1.13-10.79z" class="cls-3"/><path d="M257.17 102.07q-12.78 0-20.81-7.84t-8-20.9v-1.5a35.19 35.19 0 0 1 3.38-15.66 24.9 24.9 0 0 1 9.59-10.63 26.89 26.89 0 0 1 14.15-3.73q11.93 0 18.78 7.52t6.84 21.32V77h-37a14.43 14.43 0 0 0 4.53 9.13 13.75 13.75 0 0 0 9.59 3.43q9 0 14-6.49l7.63 8.54a23.29 23.29 0 0 1-9.46 7.7 30.88 30.88 0 0 1-13.22 2.76zm-1.77-47.75a9.67 9.67 0 0 0-7.49 3.13q-2.88 3.13-3.68 9h21.59v-1.29q-.1-5.17-2.79-8c-1.79-1.9-4.34-2.84-7.63-2.84z" class="cls-4"/><path d="M321.33 57.44a41.74 41.74 0 0 0-5.59-.43q-8.81 0-11.55 6v38h-15.52V42.88h14.67l.42 6.93q4.68-8 12.95-8a16.39 16.39 0 0 1 4.83.69z" class="cls-5"/></svg>