<svg xmlns="http://www.w3.org/2000/svg" id="Layer_1" viewBox="0 0 1027.27 1400.67" width="1027.27" height="1400.67"><defs><style>.cls-1{fill:#88addb}.cls-2{fill:#8ccba7}.cls-3{fill:#f08a1d}.cls-4{fill:#97d6e4}.cls-5{fill:#f6be3c}.cls-6{fill:#fff}</style></defs><path d="M661.67 1028.17H408.86a51.87 51.87 0 0 0-49.21 35.47L321 1179.47a51.87 51.87 0 0 1-49.21 35.47h-86.51a51.87 51.87 0 0 1-48.61-70l298.8-802.7a51.88 51.88 0 0 1 48.61-33.77h101.07a51.86 51.86 0 0 1 48.57 33.69l300.47 802.7a51.87 51.87 0 0 1-48.58 70h-86.53a51.88 51.88 0 0 1-49.16-35.32l-39.1-116.13a51.86 51.86 0 0 0-49.15-35.24zM493.78 876.89h82.6a51.87 51.87 0 0 0 49.17-68.38L584 684.84c-15.86-47.22-82.69-47.11-98.39.16l-41.06 123.67a51.87 51.87 0 0 0 49.23 68.22z" class="cls-1"/><path d="M443.39 427.47c-36 138 33 186-138 252s-288 78-90 207c166.71 108.61 418.77-46.27 423-51 27-30 195-165 195-243 0-34.44-45.83-180.17-126-228-101.39-60.55-243.89-14.08-264 63z" class="cls-2"/><path d="M768.79 854.67C856 885.46 851.11 968.9 877.85 989.25c12.23 9.3 21.22 22.21 24.79 37.15l32.77 137.07a64.48 64.48 0 0 1-62.71 79.47h-63.53a64.49 64.49 0 0 1-63.49-53.24c-20.02-112.7-56.22-363.04 23.11-335.03z" class="cls-3"/><path d="M807.12 664.21c-14.12-15.2-38.73-15.22-54.59-3C734.61 675.09 731.72 699 742 718.5c8.68 16.56 27.87 27.61 46.61 26.26 21.84-1.57 41.48-17.15 41.59-40.38a43.24 43.24 0 0 0-12-29.62c-9.56-9.88-22.31-12.73-35.5-10.3-12.89 2.37-21.37 18.68-17.46 30.75 4.46 13.81 16.94 20 30.75 17.46-4.62.39-5.91.59-3.89.62q2 .08-1.74-.24c-1.25-.14-8.38-3.43-5.37-1.47-5.74-3.74-3.63-3.05-2.14-1.46 2 2.1-3.62-5.25-1.59-1.89s-1.8-5.06-.94-2.28c1.43 4.67-.45-2.73-.15-2.71s-.5 6.26.27.07q.64-3.84 0-1.12l1.62-3.9c-1.52 3.44 3.32-3.5 1.29-1.64s5.53-3.59 1.64-1.25c-3.39 2.05 4.71-.92 2-.75-.82.06-2.3 1.07-3.07.77 1 .39 6.64-1.08 2.16-.56-2.9.34-2.6-2 2.11.45a10.45 10.45 0 0 0-3.17-.82c-2-.14 5.07 3 1.78.75a8.89 8.89 0 0 0-2.2-1.34q4.39 3.58 2.3 1.67a18 18 0 0 1-1.52-1.51c-2.46-2.44 1.17.84 1.28 1.67-.39-.6-.76-1.21-1.09-1.84q-1.35-2.57 1 2.75a21.56 21.56 0 0 0-.86-2.69c-1.53-4.5.16 5.83.17 1.13 0-3.57-.08 2-.48 2.54.24-.35 1.67-5.61 0-.85q-1.46 3.19-.12.84l-2.48 3.25c-.11-.27 4.42-3.79.08-.32-3.5 2.81-.36.79.44.16-3.76 3-4.92 1.85-2.14 1.18s-6.69.34-2.67.39-5.65-1.2-2.75-.48c3.91 1-1.44-.76-2.37-1.16 3.62 1.57-4.51-4.2-1.6-1.06 8.92 9.6 26.45 9.7 35.36 0 9.44-10.29 9.52-25.11 0-35.36z" class="cls-4"/><path d="M461.39 422.47c13.08 0 25.61-11.5 25-25s-11-25-25-25c-13.07 0-25.6 11.49-25 25s11 25 25 25zm-81.01 702.07c13.08 0 25.61-11.5 25-25s-11-25-25-25c-13.07 0-25.6 11.5-25 25s11 25 25 25z" class="cls-3"/><path d="M923.2 617.5c13.08 0 25.6-11.5 25-25s-11-25-25-25c-13.08 0-25.61 11.5-25 25s11 25 25 25z" class="cls-5"/><path d="M383 1253.06c5.25-15.15 1.83-33.7-7.18-46.81-8.6-12.54-20.51-21.62-33.9-28.6a485.85 485.85 0 0 0-75.63-31.28c-13.42-4.32-28.13-9.86-42.29-10.74-20.82-1.29-33.45 14.63-39.63 32.45-8.68 25-1.14 53.1 15.11 73.09 16.54 20.33 42.8 26.12 67.54 28.45 4.93.47 9.87.79 14.81 1.17 2.46.19 4.92.38 7.38.61 1.46.14 2.92.31 4.39.46 4.77.46-5.93-1-.87-.13a105.17 105.17 0 0 1 13.92 3.1c1.09.34 2.86 1.36 4 1.38-.4 0-5.71-2.73-2.11-.88a69.1 69.1 0 0 1 7.35 4.17c8.61 5.85 17 9.27 27.7 7.15 7.75-1.53 15-7.14 21.69-11.18 11.4-6.91 23.37-13.33 34.28-21 14.14-9.94 24.5-23.67 24.32-41.69-.15-14.26-6.51-27.93-16.31-38.11-11.8-12.24-29-18-45.82-17.69-17.43.26-33.2 6.19-49 13q-5 2.15-9.93 4.36c-5.69 2.54 5.11-2-.68.3-1.68.65-3.34 1.33-5 2a104.94 104.94 0 0 1-10.24 3.25c-1.45.37-2.91.7-4.37 1-6.66 1.31 4-.07-1.05.18a83.83 83.83 0 0 1-10.15 0 26.17 26.17 0 0 1-3.37-.32c3.84.54 4.39.57 1.63.1-1.11-.21-2.21-.46-3.31-.73s-2.19-.57-3.27-.89-2.15-.67-3.22-1q-3.81-1.46 1.25.65c-2.56 0-6.84-3.47-8.95-4.77-11.14-6.89-28-2.77-34.21 9-6.46 12.23-2.92 26.85 9 34.2a95.1 95.1 0 0 0 75.07 10.38c11.88-3.3 23.23-8.69 34.44-13.73 5.47-2.45-3.71 1.47-.15.05 1.1-.44 2.2-.91 3.31-1.34 2.45-1 4.93-1.85 7.44-2.64s5.07-1.5 7.65-2.09c1.14-.26 2.3-.42 3.44-.7q2.88-.5-2.34.24c.86-.11 1.73-.19 2.59-.25a76.49 76.49 0 0 1 7.72-.06c4.56.14-1.08.11-1.57-.27.46.36 2.59.54 3.33.74.93.24 5.39 2.43 1.69.32s.07.14.68.49a16.06 16.06 0 0 0 2.18 1.38q-4.69-3.78-2.5-1.93c.5.42 1 .85 1.45 1.31.63.6 1.19 1.27 1.81 1.87 2.7 2.63-1.36-1.54-1.49-2a28.27 28.27 0 0 0 3.19 5.58c-.34-.45-1.87-6-1.19-2.42.15.77.4 1.68.62 2.42 1.16 4-.71-3.19-.4-3 .51.31-.13 3 0 3.64-.58-5.35 1-5.32.06-2.49s2.62-5.2 1.12-2.55c-2.15 3.82.91-1 1-.83a30.21 30.21 0 0 1-2.25 2.33c-3.38 3.51 1.23-1.15 1.25-.83s-3 2-3.41 2.3c-2.51 1.6-5.07 3.11-7.62 4.66l-30.6 18.41a61.53 61.53 0 0 0-6.27 3.76c10.4-8.19 24.39 4 16.83-1.62-.77-.57-1.52-1.16-2.3-1.7-5.06-3.56-10.76-5.93-16.47-8.22-9.86-4-20.41-5.34-30.9-6.58-9.07-1.07-18.21-1.46-27.3-2.32-1.93-.18-3.92-.61-5.86-.63 8 .09.89.1-1.28-.3a83.66 83.66 0 0 1-13.13-3.43c-.82-.29-1.78-.8-2.65-1 5.82 1.44 3.53 1.5 1.47.45s-3.71-2.12-5.54-3.25c-3.32-2 1.56 1.21 1.82 1.5-.55-.62-1.39-1.17-2-1.75-.82-.76-1.61-1.54-2.37-2.35s-3.81-4.59-1.07-1-1.17-2-1.78-3c-.88-1.52-1.46-3.33-2.44-4.77 3.16 4.62 1.64 4 .79 1.6-.29-.84-.57-1.7-.82-2.56-.63-2.16-1.58-4.93-1.59-7.21 0 .15.61 6.76.45 2.64 0-.89-.11-1.78-.13-2.68 0-2 .12-4 .23-6 .18-3.33-1.41 6.74-.24 2 .22-.86.36-1.74.58-2.61.64-2.54 3.8-8.29.1-1.6.6-1.08 4.08-6.93 1.49-3.42l-1.11 1.41q4.65-4.39-6.56 3.39a61.17 61.17 0 0 1-6.22.08c.94-.66 5.88 1.44 7.15 1.77q4.94 1.28 9.85 2.66 18.3 5.14 36.14 11.76c5.73 2.12 11.77 4.07 17.26 6.77-5.26-2.59-1.39-.58 0 0s2.84 1.23 4.25 1.86c3.11 1.37 6.2 2.79 9.28 4.23 5.57 2.62 11.15 5.29 16.55 8.25 2.43 1.33 4.82 2.73 7.14 4.24a17.88 17.88 0 0 0 2.72 1.87c-2.64-2.11-3.23-2.58-1.8-1.4.64.51 1.27 1.05 1.88 1.6.81.73 1.61 1.48 2.37 2.26s1.52 1.6 2.23 2.44l-2-2.57a18.12 18.12 0 0 0 1.75 2.66c.54.91 1.05 1.85 1.52 2.8l-1.25-3c-.09.08 1.08 3.33 1.19 3.76a23.06 23.06 0 0 1 .51 2.3c-.43-3.82-.59-4.74-.48-2.78-.12 1.74-1 3.43.29.54q.58-3.45 0-.27a22.3 22.3 0 0 1-.92 3c-4.29 12.37 4.89 27.89 17.46 30.75 13.93 3.17 26.16-4.22 30.76-17.46z" class="cls-2"/><path d="M350.38 1194.55h-108c-13.08 0-25.6 11.5-25 25s11 25 25 25h108c13.08 0 25.61-11.5 25-25s-11-25-25-25z" class="cls-2"/><path d="M329.59 1187.4c2.41-20.15-3.06-41.85-13.64-59.08-11.24-18.31-28.12-31.39-47.51-40.16-5.83-2.64-11.75-5.07-17.67-7.5l-6.28-2.58c-1.64-.68-3.77-.65 1.28.55a24.13 24.13 0 0 1-3.87-1.69 183.21 183.21 0 0 1-24.09-13c-3.95-2.54-7.76-5.28-11.55-8-2.71-2 3.7 3 1.13.86-.85-.71-1.72-1.39-2.57-2.09q-2.88-2.39-5.65-4.87a184.14 184.14 0 0 1-19.43-20.36c.14.17-2.13-2.49-2.07-2.59-.11.19 3.27 4.32 1.12 1.43-1.17-1.58-2.34-3.15-3.5-4.74-2.62-3.6-5.22-7.23-7.89-10.8-5.92-7.91-11.93-16-19.25-22.65a86.77 86.77 0 0 0-28.24-17.43c-12-4.64-25.14-4.42-37.66-2.48-37.94 5.85-67.08 37.89-77.74 73.44-5.19 17.33-5.63 35.26-2.69 53 3.05 18.34 12.25 34.73 24.18 48.73 12.84 15 29.94 26.38 46.82 36.39 18.09 10.72 36.4 21 55.86 29A141.56 141.56 0 0 0 192.9 1221c10.1-.69 20.17-1.93 30.3-2.12 4.18-.08 10.56-.92 14.5.61-4.61-1.79-3.11-.53-1.26-.07 1.47.37 3 .63 4.42 1 2.59.66 5.15 1.45 7.74 2.09 15.87 4 31.15 2.57 44-8.07 9.65-8 14.19-20.13 15.22-32.28 2.17-25.65-18.47-45.1-40.78-53-20-7.11-42.56-3.59-63.37-5.76-1.11-.11-2.23-.25-3.34-.37-4.45-.47 1.07.1 1.63.24-2.16-.51-4.46-.68-6.66-1.06-5-.87-9.92-1.91-14.82-3.14q-6.52-1.63-12.94-3.68c-4.67-1.5-9.45-4.11-14.2-5.15.56.12 5.35 2.37 1.34.56-1-.46-2-.9-3.06-1.37-2-.93-4-1.9-6-2.9q-6.73-3.39-13.17-7.32-5.72-3.51-11.15-7.43a23.7 23.7 0 0 0-2.69-2c.54.28 4.42 3.6 1.08.82-1.71-1.43-3.42-2.85-5.07-4.36a102.09 102.09 0 0 1-8.94-9.31c-.64-.75-1.25-1.67-1.94-2.36.37.37 3.45 4.84 1.14 1.41-1.28-1.9-2.59-3.75-3.79-5.7q-1.56-2.57-2.94-5.23c-.45-.88-.85-1.79-1.31-2.67-1.48-2.86 1.85 4.94.79 1.92-1.32-3.71-1.78-8.15-3.29-11.69 2 4.59.53 4.81.34 1.8-.06-.92-.09-1.84-.1-2.76s.4-7.76 0-2.85c-.37 4.64.56-1.62.92-2.75s1.62-3.89 0-.33c-1.91 4.12.27-.29.6-.92l-28.24 11.49c4.14 1.61-4.75-2.34-.85-.33 1.43.74 2.86 1.44 4.25 2.24 1.19.68 2.35 1.39 3.49 2.14s5.84 4.22 2.46 1.6.43.42 1.18 1.07c1.21 1 2.4 2.12 3.57 3.22 2.35 2.22 4.6 4.56 6.78 7 4.13 4.54 8 9.32 11.78 14.16.6.78 4.23 5.45 1.56 2-3.06-4 2.7 3.5 2.64 3.41 2.55 3.31 5.1 6.63 7.71 9.9a168.73 168.73 0 0 0 31.41 30.8c13.06 9.77 28.12 16.75 43.5 22s31.52 8.25 47.64 9.85c3 .31-3.49-.35-3.26-.45.56-.25 2 .71 2.52.61l-3.94-2.29q-7.59-2.55-6.39-11.78c-1.88-7.28-3.64-8.15-.91-13.39a15.94 15.94 0 0 1 3.71-4.25c2.5-2.33 1.16-.9.24-.34-2.17 1.31-2-.22 2-.69a23.34 23.34 0 0 0-2.64.78c-8 2-16.17 3.21-24.28 4.51-2.87.46 2-.28 2.1-.27a15.67 15.67 0 0 0-2.72.33c-1.82.21-3.65.41-5.47.58q-6.37.6-12.76.86a191.09 191.09 0 0 1-24.52-.58c-1.68-.16-3.74-.75-5.4-.58.66-.07 5.83.92 1.27.13-.9-.16-1.79-.29-2.68-.45q-6.24-1.11-12.38-2.74c-3.45-.93-6.87-2-10.24-3.19-1.35-.48-2.71-1.17-4.09-1.55-.22-.06 5.07 2.25 2.6 1.11-.89-.41-1.79-.8-2.67-1.21a119.06 119.06 0 0 1-19-11c-.58-.42-1.16-.91-1.77-1.29 5.46 3.33 2.45 1.93 1 .77s-2.61-2.18-3.88-3.31a107.43 107.43 0 0 1-7.74-7.65c-1.29-1.43-2.49-2.93-3.76-4.38-1.77-2 1.79 2.4 1.68 2.23-.5-.81-1.14-1.55-1.69-2.32a91.29 91.29 0 0 1-5.68-9.12c-.91-1.68-1.68-3.43-2.57-5.12-1.25-2.37 1.15 2.9 1.09 2.7-.3-.91-.72-1.78-1-2.67a85.47 85.47 0 0 1-3.23-11.07c-2.88-12.77-18.33-21.48-30.76-17.46-13.38 4.33-20.54 17.07-17.46 30.75 7.51 33.29 31.8 61.25 61.07 77.81 32.61 18.44 71.42 23 108.22 19 10.72-1.18 21.41-2.75 32-4.86s21-5.36 29-13.21c12.28-12.11 13.68-32.09 1.11-44.69a33.52 33.52 0 0 0-16.71-8.89c-3.55-.72-7.23-1-10.84-1.42-.76-.08-3.66-.51.06 0 4.21.62-.66-.11-1.57-.25a193.67 193.67 0 0 1-24.18-5.28q-5.53-1.61-11-3.58c-.77-.28-6.77-2.79-3.12-1.14 3.42 1.55.08 0-.78-.35-1.24-.56-2.47-1.14-3.7-1.73-3.42-1.66-6.78-3.46-10-5.41-3.7-2.21-7.07-5.15-10.81-7.25 0 0 3.89 3.19 1.86 1.39-.82-.72-1.69-1.38-2.51-2.09q-2.09-1.8-4.08-3.7c-2.56-2.44-5-5-7.37-7.63-2.7-3-5.3-6.12-7.84-9.27-1.21-1.49-2.39-3-3.57-4.51-.6-.75-1.18-1.51-1.77-2.27-2.69-3.43 2.7 3.51.83 1.08-5.8-7.52-11.52-15.12-17.73-22.31-12.68-14.66-27.65-25.86-45.73-32.9-9.81-3.82-23.47 2.46-28.24 11.49-19.44 36.84-.4 79.28 29.17 104.5 29.31 25 66.15 41.16 104.15 47a279.1 279.1 0 0 0 30.93 3.27c4.79.2 9.58.2 14.37.25 2.17 0 4.35 0 6.53.11.91 0 7.71 1.1 8.34.54-.33.29-6.07-1.18-1.14-.13 1.21.26 2.43.47 3.63.76 1.67.41 3.27 1 4.92 1.47 3.07.86-4.7-2.34-1.88-.85.65.35 1.33.64 2 1q1.31.69 2.55 1.47c.62.38 1.22.79 1.81 1.22 1.55 1.1.81.54-2.2-1.67.49.75 4.43 5.28 2 1.64s.56 1.58 1.13 2.29c-3-3.66-1.56-4.56-1.1-2.3.82 4-.2-3-.18-3 .59.86-.4 8.25.24 2.92.51-4.36.22-1.31-.23-.29-1 2.27 1.43-3.33 1.45-3.08 0 .54-.89 1.62-1.14 2.16-1.48 3.21 1.16-2 1.76-2.16-.38.13-1.2 1.61-1.72 1.65-.31 0 5.7-3.72 2.07-1.93.66-.32 6.57-2.1 2-1.13l3.26-.47h-1.71l-1.71-.11 3.2.38a20.24 20.24 0 0 0-3.46-.79c-2.31-.58-4.59-1.28-6.89-1.88a122.41 122.41 0 0 0-19.11-3.12c-19.27-1.86-38.44 2.54-57.71 2.16q-3.65-.08-7.28-.4a17 17 0 0 0-2.64-.27c4.63-.39 3.58.55 1.43.13a135.93 135.93 0 0 1-14.46-3.51c-3.91-1.22-8.93-2.3-12.41-4.49.52.32 5.21 2.33 1.09.43-1.07-.5-2.15-1-3.23-1.47-2.15-1-4.28-2-6.4-3.1a501.48 501.48 0 0 1-47.27-27c-3.4-2.2-6.75-4.48-10-6.88-.64-.47-1.27-1-1.94-1.44 4.88 3.08 2.48 2 1.26.94-1.85-1.54-3.69-3.07-5.48-4.69a105.15 105.15 0 0 1-8.41-8.48c-.71-.79-1.37-1.62-2.07-2.42-2.53-2.87 1.25 1.08 1 1.28-.09.07-3-4.37-3.45-5-1.8-2.86-3-6.16-4.78-9 .11.18 2.34 6.13 1.06 2.46-.21-.6-.44-1.19-.66-1.78q-.95-2.68-1.71-5.43c-.84-3.06-1.32-6.17-1.95-9.28s.58 6 .41 2.88c0-.85-.16-1.69-.22-2.53-.14-1.9-.22-3.81-.23-5.71 0-3.2.19-6.36.46-9.55.48-5.77-.95 5.07-.13 1 .37-1.88.69-3.77 1.12-5.64a94.9 94.9 0 0 1 2.65-9.21c.56-1.6 1.3-3.16 1.81-4.77-.06.2-2.75 6-1 2.46.48-.94.91-1.91 1.39-2.86a87.77 87.77 0 0 1 4.76-8.25c.91-1.39 2.11-2.71 2.91-4.15.15-.28-3.69 4.43-2 2.56.71-.77 1.34-1.63 2-2.42a75.4 75.4 0 0 1 7.15-7.15c.78-.68 5-4.18 1.4-1.24s1.66-1 2.69-1.67q2.34-1.47 4.79-2.76c.75-.39 1.51-.77 2.27-1.14 1.1-.53 4.2-1.09.89-.45s0 .09 1-.25 2.15-.71 3.24-1c2.36-.67 5.18-.76 7.43-1.64-.12 0-5.18.37-2.47.4 1.11 0 2.24-.15 3.35-.17s2.23 0 3.34 0 4.7.46.83 0 2 .54 3.22.89c1 .3 2 .68 3 1 4.15 1.26-4-2-1.38-.54 1.64.94 3.32 1.76 4.91 2.78.6.38 1.17.79 1.76 1.17 3.35 2.18-1.38-1-1.67-1.36 2.78 2.93 6.06 5.39 8.81 8.39 1.15 1.26 2.27 2.55 3.37 3.85s4.83 6.88.69.71c2.2 3.27 4.76 6.37 7.08 9.57 10.86 15 22.19 29.4 36.17 41.62 14.26 12.48 30 23.44 47.17 31.56 9.61 4.55 19.75 7.92 29.34 12.46-.55-.26-5.31-2.34-1.31-.52l3.09 1.38c1.79.82 3.56 1.66 5.32 2.54a102.58 102.58 0 0 1 12.29 7.17c.69.47 1.36 1 2.05 1.46 2.73 1.87-3.43-3-1.16-.85 1.46 1.4 3 2.68 4.44 4.12 1.24 1.26 2.38 2.61 3.57 3.91 2.86 3.12-1.06-1-1.09-1.49.05.84 1.71 2.41 2.16 3.1q1.68 2.53 3.12 5.2c.66 1.21 1.35 4 2.38 4.74-1.85-1.34-1.79-4.74-.77-1.77.33 1 .7 1.89 1 2.85.73 2.16 1.34 4.35 1.86 6.56.37 1.58.32 3.79 1 5.2-1.75-3.48-.47-4.83-.33-2.14.05 1 .16 2 .21 3a71.94 71.94 0 0 1-.48 12.1c-.71 5.91 3.3 13.66 7.32 17.68 4.34 4.33 11.45 7.6 17.68 7.32 6.46-.29 13.17-2.42 17.68-7.32 4.77-5.21 6.49-10.72 7.32-17.68zm360.15-935.71c-20.39-17.73-47.3-28.05-74.55-26.14-28.48 2-53.4 14.65-70.4 37.74C529.53 284 525 311 529.57 336c4.64 25.46 23 46.38 45.11 58.7 20.74 11.53 44.06 16.75 66.12 25 1.35.5 2.7 1.05 4.05 1.56 3.86 1.45-1.64-.69-2-.87 2.82 1.51 5.88 2.64 8.74 4.1 6.37 3.25 12.5 6.94 18.58 10.71 11.43 7.09 22.71 14.47 35 19.94 15.14 6.71 31.25 11.84 48.06 11.07a76.08 76.08 0 0 0 44.83-16.87c10.9-8.65 19.18-21.61 21.36-35.45 2.72-17.27-1.39-34.23-11.06-48.81-15.44-23.28-38.94-39.86-61.36-55.85-4.81-3.43-9.64-6.83-14.44-10.28q-3.25-2.34-6.5-4.72l-3.86-2.87-2.56-1.94q4.41 3.42 1.26 1c-9.34-7.48-18.37-15.29-26.36-24.22-3.89-4.35-7.29-9.12-11.19-13.46a57.7 57.7 0 0 0-23.27-15.35c-14.14-5.25-30.54-4.91-45.08-1.62-28.5 6.45-53.49 29.25-59.82 58.17-3.06 14-3 29.26 2.09 42.78 6 15.93 16.24 27.75 30 37.59 9.47 6.78 20.33 11.27 30.92 16a329.93 329.93 0 0 1 34.49 18.1c11.17 6.61 22.31 13.32 34.19 18.59a173.1 173.1 0 0 0 49.34 13.8c7.82 1 16 2 23.82.08a31.86 31.86 0 0 0 23.53-23.89c4.44-20.5-8.8-36.99-24.56-47.9-10.82-7.47-23.86-11.71-36.18-16-3-1-6-2.1-9-3.22-1.5-.57-3-1.17-4.48-1.75-3.34-1.29 1.15-.37 1.53.66-.44-1.19-7.4-3.36-8.74-4q-4.32-2.11-8.55-4.42-7.74-4.23-15.11-9.1-3.68-2.43-7.25-5c-1.09-.79-2.15-1.59-3.23-2.38q-3.19-2.42 1.24 1c-.84-.67-1.67-1.33-2.5-2a210.8 210.8 0 0 1-26.48-25.61c-1.75-2-3.42-4.1-5.13-6.16-3.63-4.37 3.33 4.58 0 0-1-1.29-1.92-2.57-2.85-3.88-.52-.73-1.06-1.45-1.53-2.22-1.59-2.59-.5-3.71.49 1.83a16.34 16.34 0 0 0-1-3.37q.75 7.15.46 3.32v-1.06c.83 3.71-2.55 9.62-5.46 12.52l-8.72 5a15.85 15.85 0 0 1-12-1.2c.52-.37 6.68 3.92 7.7 4.54q9.35 5.61 18.51 11.51 17.57 11.31 34.45 23.64 3.66 2.67 7.3 5.4l4.35 3.29c.94.72 6 4.32.69.52 5.88 4.22 11.43 9 17 13.65q15.39 12.75 30 26.35c9.6 8.89 26 10.21 35.36 0 8.87-9.66 10.25-25.86 0-35.35a746.78 746.78 0 0 0-125.58-94.05c-9.44-5.61-19.4-9.58-30.6-6.63a30.94 30.94 0 0 0-21.61 21.26c-4 13.56.78 27.9 8.89 38.86a248.54 248.54 0 0 0 54.36 53.94c19.57 14.24 41.39 24.42 64.18 32.36 2.51.88 5 1.75 7.54 2.65 1.5.55 3 1.1 4.49 1.68.76.29 5.43 1.42 1.42.54s.45.25 1.33.68c1.18.56 2.34 1.16 3.49 1.78s6.22 4.77 7.23 4.53l-2.61-2c.8.66 1.58 1.34 2.33 2.05a17.1 17.1 0 0 0 2.21 2.22l-2.34-3.1a20.09 20.09 0 0 1 1.35 2.21c-2.46-1.86-1.75-5.43-.92-1.77l.15.61a14.82 14.82 0 0 1 0-8.65c1.82-6.24 6.52-10.09 12.54-11.71 7.65-2.07 3.78-1.08 1.26-1.14-1.83-.05-3.66-.2-5.48-.35a30.9 30.9 0 0 1-5.45-.56c5.46 1.53 2.75.41 1.21.11-3.29-.64-6.59-1.21-9.85-2a162.57 162.57 0 0 1-18.3-5.78c-5.88-2.16 4.94 2.34-.59-.27-1.07-.5-2.14-1-3.21-1.49-2.92-1.4-5.8-2.89-8.65-4.42-5.46-2.94-10.81-6.08-16.15-9.24-10.52-6.23-21-12.52-32.13-17.68-9.67-4.5-19.66-8.38-29-13.56a98.733 98.733 0 0 1-6.4-3.86c-1.09-.72-2.43-2.07-3.64-2.55 4.33 1.7 3.21 2.56 1.07.67-1.86-1.63-3.46-3.46-5.19-5.2-2.34-2.36 3.4 5.29.7.95-.8-1.28-1.65-2.5-2.38-3.82-1.15-2.08-1.51-5.54 0 .57-.23-.93-.7-1.89-1-2.81-.46-1.42-.84-2.86-1.16-4.32-.16-.71-1.19-5.66-.3-1.1s.09-.29.06-1.16v-3.75c0-1.07.51-2.76.25-3.75q-.92 6.22-.24 2.17l.3-1.47c.34-1.53 2.54-5.85 2.13-7.22l-1.38 3.18c.4-.92.83-1.82 1.29-2.71a50.3 50.3 0 0 1 1.86-3.28c.48-.78 2-2.28 2.09-3.12-.39 2.81-3.24 3.93-.68 1.08 1.43-1.6 5-3.69 5.78-5.56l-2.76 2.11a56.933 56.933 0 0 1 4.87-3.24c1.26-.75 2.54-1.45 3.85-2.1.64-.32 4.93-2.65 1-.54-3.75 2 .3 0 1.15-.29 1.16-.38 2.34-.72 3.52-1s2.38-.59 3.59-.83c1-.2 1.93-.37 2.9-.52l-3.73.52c2 .54 5.18-.35 7.35-.31 1.47 0 2.93.16 4.4.24 5 .28-4.48-1.07-1.06-.09 1.29.38 2.73.74 4.05 1 5.19 1-3.33-2.07-.56-.4.36.22 3.69 1.86 3.58 2.08q-4.4-3.54-1.41-.93l1.13 1.11c7.84 7.91 14.11 17.15 22.24 24.88 17.43 16.57 37.6 30 57.08 44 2.18 1.57 4.35 3.14 6.51 4.73l3.88 2.89c.7.52 4.81 2.65 1.31 1s.54.44 1.27 1c1 .83 2.09 1.67 3.12 2.51q3.42 2.79 6.74 5.69a152.56 152.56 0 0 1 12.28 11.84c1 1 1.83 2.12 2.76 3.16 3.75 4.14-2.28-3.42-.29-.44 1.7 2.54 3.45 5 4.91 7.69 1.11 2 1.57 5.79.25-.09.22 1 .77 2 1.09 3 .48 1.52.8 3.07 1.2 4.61 1.33 5.13 0-4.54-.23-1.15a31.45 31.45 0 0 0 0 4c-.79-.5 1.17-5.94.09-1.37-.22.9-1.06 2.47-1 3.33q2.57-5.71.89-2.17l-.64 1.22c-.58 1-1.88 2.38-2.22 3.49 1.12-3.64 3.16-3.64 1.31-1.82-1 1-1.92 2-3 3-.54.5-3.88 3.78-.74.72 3-2.88-.13-.07-1 .45-1 .63-2.05 1.21-3.11 1.75-2.67 1.38-3.14 0 1.42-.45-1.3.14-2.77 1-4.06 1.4s-2.77.66-4.15 1c-4 1.07 2.08-.56 2.45-.25-.46-.38-4.61.31-5.33.33-1.48 0-3 0-4.43-.1l-.88-.05q-4.22-.42 1.36.3c-1.21.21-3.14-.54-4.37-.8a86.67 86.67 0 0 1-9.47-2.59c-1.71-.57-3.39-1.22-5.08-1.85-4.37-1.63.46.36 1 .42-2.79-.35-6.43-3-8.9-4.37-5.53-3-10.89-6.21-16.21-9.51-10.63-6.6-21.14-13.48-32.51-18.76a295.23 295.23 0 0 0-33.15-12.71c-9.69-3.14-19.45-6.11-28.95-9.84-1.59-.63-6.12-2.91.7.35-.85-.41-1.73-.76-2.59-1.15q-3.51-1.61-6.91-3.43-3.06-1.64-6-3.5c-1-.62-1.93-1.25-2.87-1.91-.76-.52-1.5-1.06-2.24-1.61l2.89 2.21c-1.26-1.72-3.61-3.08-5.15-4.61-1-1-2-2-2.88-3.05-.5-.55-3.48-4.26-.71-.71s-1.49-2.42-2.1-3.48-1.06-1.89-1.55-2.86q-.59-1.15-1.11-2.34l1.52 3.58c-.35-2-1.48-4.12-2-6.14-.34-1.25-.64-2.52-.9-3.79-.18-.88-.82-5.27-.2-.52s.08.33 0-.55a71.15 71.15 0 0 1-.17-3.26 66.56 66.56 0 0 1 .16-7.2c.17-2.3 1.53-5.72-.31 1.43.22-.83.29-1.75.44-2.6.45-2.37 1-4.72 1.71-7 .37-1.23 3.13-8.06 1.16-3.84s0 .1.34-.63c.57-1.18 1.17-2.35 1.81-3.51 1.06-1.91 2.21-3.78 3.45-5.58 1.51-2.18 3.83-3.08-.76.86a28.53 28.53 0 0 0 2.15-2.48c1.48-1.62 3.1-3.07 4.67-4.6s3.88-2-1.5 1c1.23-.67 2.33-1.69 3.51-2.46a67.78 67.78 0 0 1 6.14-3.53c2.29-1.15 5.22-1.08-.82.2a31.44 31.44 0 0 0 3.31-1.23 66.59 66.59 0 0 1 6.79-2c1.15-.27 2.3-.52 3.46-.73.93-.18 1.87-.33 2.8-.47l-3.83.54c2.16.34 4.87-.4 7.1-.43 2.62 0 5.24.06 7.85.28 2.22.18 4.68 1.39-1.68-.33 1.13.31 2.38.38 3.53.61a77.48 77.48 0 0 1 7.65 1.86c2.17.64 4.55 2 6.77 2.34l-3.34-1.42c.88.39 1.74.79 2.6 1.2a75.663 75.663 0 0 1 9.28 5.35 29.15 29.15 0 0 0 2.91 2.08c-5.46-2.81-2.48-1.9-.63-.3 9.86 8.58 25.78 10.43 35.35 0 8.64-9.4 10.54-26.19 0-35.35z" class="cls-4"/><path d="M855.2 401c16.08 0 16.11-25 0-25s-16.11 25 0 25zm-71.41 804.05c16.08 0 16.11-25 0-25s-16.12 25 0 25z" class="cls-5"/><path d="M720.78 278c16.09 0 16.11-25 0-25s-16.11 25 0 25zM468.75 836c16.09 0 16.12-25 0-25s-16.11 25 0 25z" class="cls-2"/><path d="M401.91 85a114.5 114.5 0 0 0 50.83 59 110.48 110.48 0 0 0 37.17 13c15.72 2.37 31 1 46.61-1.68s30.79-5.6 46.54-6.48a263.39 263.39 0 0 1 48.3 1.64c11.67 1.5 25.13 4.43 34.47 9.11 9.66 4.83 16.55 10.91 19.39 20 3.13 9.92 2.51 20.73.47 30.63-2.45 11.9-6.35 23.43-9.48 35.16-6.91 25.92-8.58 53.69 7.35 76.84 16.14 23.44 42.29 36.35 66 50.75 24.54 14.93 48.37 31.35 66.54 53.92 32 39.79 42.43 93.77 37.38 144.05-.62 6.18-1.48 11.7-2.7 18.18s1.84 13.49 8.73 15.38c6.1 1.67 14.11-2.07 15.37-8.73C885 541.92 879.1 484.11 852 435.86c-14.5-25.8-35-46.56-58.73-64-11.89-8.72-24.42-16.52-37.06-24.1C744.34 340.69 732 334 721 325.58c-9-6.92-17.72-16.21-21.7-26.49s-4.18-21.89-2.47-31.77c4.22-24.49 15.52-47.65 15.56-72.86 0-12.84-3-26.62-10.74-37.08-8.32-11.24-19.76-18.34-32.6-23.44s-26.36-7.1-39.89-8.68a269.24 269.24 0 0 0-50-1.14c-16.65 1.17-32.92 4.34-49.34 7.13-13.46 2.29-27.56 3.17-39.75.5-22.8-5-43.61-19-56.19-38.28A86.06 86.06 0 0 1 426 78.32c-2.41-6.3-8.41-10.64-15.38-8.73-6 1.66-11.16 9-8.73 15.38z" class="cls-3"/><path d="M410.8 819.65l36.06-92c2.47-6.29-2.7-13.72-8.73-15.38-7.08-1.94-12.9 2.42-15.37 8.74L386.7 813c-2.47 6.29 2.7 13.72 8.73 15.38 7.08 2 12.9-2.42 15.37-8.73zm-66.87 41.01a90.39 90.39 0 0 1-49.2-.9c-15.46-4.58-22.06 19.54-6.65 24.11a116.17 116.17 0 0 0 62.5.9c15.55-4.07 9-28.19-6.65-24.11z" class="cls-2"/><path d="M575.2 529c16.08 0 16.11-25 0-25s-16.11 25 0 25z" class="cls-5"/><path d="M579.2 562.5a51.59 51.59 0 0 0 35.35-14.64c8.68-8.68 15.21-22.9 14.65-35.36-.58-12.93-4.83-26.34-14.65-35.36s-21.8-14.64-35.35-14.64a51.63 51.63 0 0 0-35.36 14.64c-8.67 8.68-15.2 22.9-14.64 35.36.58 12.93 4.83 26.34 14.64 35.36s21.81 14.64 35.36 14.64z" class="cls-5"/><path d="M375.2 414.5a51.59 51.59 0 0 0 35.35-14.64c8.68-8.68 15.21-22.9 14.65-35.36-.58-12.93-4.83-26.34-14.65-35.36s-21.8-14.64-35.35-14.64a51.63 51.63 0 0 0-35.36 14.64c-8.67 8.68-15.2 22.9-14.64 35.36.58 12.93 4.83 26.34 14.64 35.36s21.81 14.64 35.36 14.64zm580 822a51.59 51.59 0 0 0 35.35-14.64c8.68-8.68 15.21-22.9 14.65-35.36-.58-12.93-4.83-26.34-14.65-35.36s-21.8-14.64-35.35-14.64a51.63 51.63 0 0 0-35.36 14.64c-8.67 8.68-15.2 22.9-14.64 35.36.58 12.93 4.83 26.34 14.64 35.36s21.81 14.64 35.36 14.64z" class="cls-4"/><path d="M401.21 801q-17.31 10.38-34.63 20.74c-5.38 3.21-10.78 6.37-16.33 9.25-2.65 1.38-5.35 2.59-8 3.9s4.64-1.73.22-.11c-1.69.62-3.37 1.25-5.09 1.82a132.17 132.17 0 0 1-17.7 4.25c-6.14 1.13 5.65-.48-.58.08-1.51.14-3 .31-4.54.43-3.05.25-6.1.41-9.15.51-13.22.41-26.43-.42-39.61-1.27s-25.58 12.1-25 25c.64 14.27 11 24.09 25 25 28.21 1.83 57.61 3.17 84.88-5.79s51.44-26 75.79-40.63c11.22-6.72 16.34-22.78 9-34.21-7.27-11.28-22.2-16.15-34.21-9z" class="cls-2"/><path d="M377.83 823.34c-5.77 3.38-11.68 6.51-17.76 9.31-1.35.62-3.15 1.89-4.58 2l2.89-1.22-3.1 1.24q-4.29 1.66-8.64 3.14a201.47 201.47 0 0 1-18.47 5.3q-4.89 1.15-9.82 2.07c-1.64.31-3.29.59-4.94.86l-2.48.38c-1.94.28-1.1.17 2.5-.33-.12-.32-17.4 1.48-19.16 1.54-6.4.21-12.82.13-19.22-.27q-5-.3-10-.86c-1.68-.18-6.84-1.51 0 .05-1.6-.37-3.33-.51-4.95-.79-6.6-1.13-13.11-2.62-19.56-4.4-12.6-3.47-27.76 4.3-30.76 17.46s4 27 17.46 30.75a230 230 0 0 0 175.8-23.09c11.28-6.61 16.29-22.84 9-34.2s-22.13-16-34.21-9z" class="cls-2"/><path d="M380.14 832.45c-.34 5.23 1.2-4.81.25-1.46-.33 1.17-.66 2.42-.92 3.61-.4 1.79-2.07 3.25.93-1.8-.5.84-.85 1.82-1.32 2.69s-1 1.75-1.52 2.59c-.33.52-3.21 4.69-.67 1.17s-.51.45-1 1q-1.56 1.66-3.26 3.2c-.74.66-1.61 1.26-2.31 2 4.07-4.08 2.85-2.06 1.26-1.11-2.2 1.31-4.29 2.71-6.56 3.9-1.25.66-2.54 1.25-3.8 1.88-2 1-2.95.15 1.28-.51-2.64.42-5.48 2.05-8 2.88a281.38 281.38 0 0 1-32.36 8.1q-3.53.69-7.05 1.29l-3.54.58c-.43.06-6.31.93-2 .32s-1.56.17-2 .22c-1.18.13-2.37.26-3.55.37q-4.44.44-8.89.69-8 .46-16 .28c-2.65-.07-5.3-.19-7.94-.38-1.46-.1-2.93-.22-4.39-.36l-1.75-.18q-4.2-.5 1.41.24c-4.51.31-10.3-1.76-14.65-2.84-5.46-1.35-10.69-3.18-16-5.05-3.88-1.36 1.57.6 1.92.85a22.46 22.46 0 0 0-3.33-1.53q-3-1.43-5.87-3c-4.1-2.29-7.93-4.91-11.78-7.58-2.82-2 4.89 4.08 1 .75-.75-.64-1.52-1.25-2.27-1.89-1.69-1.44-3.32-2.93-4.92-4.46-3.37-3.25-6.23-6.87-9.39-10.3 5.06 5.5 0-.11-1.24-2-1.47-2.21-2.84-4.48-4.13-6.8-1.16-2.11-2.16-4.27-3.22-6.42-1.49-3.06 2.25 6.11.59 1.35-.47-1.35-1-2.67-1.43-4-.74-2.25-1.38-4.54-1.92-6.85-.21-.92-.41-1.85-.59-2.78s-.34-1.86-.49-2.8l.51 3.82c-.06-5.32-.62-10.43-.13-15.78 1.19-13.06-12.35-25.57-25-25-14.56.65-23.73 11-25 25-4.34 47.62 30 93.78 72.07 112.91 24.68 11.21 51.52 15.93 78.59 15.1a286.07 286.07 0 0 0 78-13.6c15.17-4.9 29.68-11.8 41.35-22.89a67.9 67.9 0 0 0 21-45.27c.86-13.08-12.11-25.58-25-25-14.28.64-24.07 11-25 25z" class="cls-2"/><path d="M108.17 780c-1.86 33.9 18.49 63.9 44.84 83.2 25.56 18.72 58 25.24 88.71 29.58 6.95 1 12.95 1.17 19.27-2.53 5.18-3 10.13-9 11.49-14.94 2.68-11.79-3.62-28.8-17.46-30.75-13.6-1.92-27.2-4.11-40.46-7.74-6.13-1.67-13.37-3.28-18.95-6.4 5.71 3.2 1.09.39-.37-.31s-3.11-1.53-4.65-2.35c-2.94-1.57-5.82-3.26-8.59-5.1-.88-.58-2.88-2.64-3.75-2.63l2.63 2c-.81-.63-1.6-1.28-2.38-1.94q-3.21-2.73-6.17-5.76c-1.19-1.21-4-5.76-5.6-6.3q3.48 4.6 1.13 1.42l-.87-1.25a73.32 73.32 0 0 1-2.48-3.82c-1.57-2.58-2.69-5.41-4.23-8 3.23 5.4 1 2.54.3.42-.49-1.4-.93-2.83-1.32-4.26s-.66-2.9-1-4.35c-1.16-4.62.29 5.88 0 .76-.14-3-.27-6-.11-9 .72-13.08-12-25.58-25-25-14.16.64-24.22 11-25 25z" class="cls-2"/><path d="M108.22 775.46A14.46 14.46 0 1 0 93.77 761a14.68 14.68 0 0 0 14.45 14.46z" class="cls-5"/><path d="M210.73 530c16.09 0 16.11-25 0-25s-16.11 25 0 25z" class="cls-3"/><path d="M620.09 783.55S610 684.31 575.2 639.84c-23-29.44-72.3-15-81-3.25-36.71 49.7-49.65 161.79-49.65 161.79s-7.45 38.15 7.55 52.76 180-9.13 180-9.13z" class="cls-6"/><path d="M838.77 1388.55c25.93-46.68 40.44-98.31 43.91-151.52 1.54-23.57 2.75-47.2 1.94-70.83-.84-24.53-3.29-50.21-11.47-73.51-8.63-24.57-23.31-46.31-45.07-61-10.69-7.23-23.41-11.75-36.09-13.84-7.49-1.24-15-2.09-22.61-2.81-3-.28-6-.54-8.93-.85a28.74 28.74 0 0 1-5.34-.61l3.1.42c-1.05-.16-2.11-.33-3.16-.51a85.36 85.36 0 0 1-13.88-3.63l-1.36-.5q-3.67-1.46 2 .87a14.77 14.77 0 0 0-2.57-1.24c-2.38-1.22-4.75-3.41-7.18-4.39 4.35 1.76 3.45 2.8 1.33.85-.85-.78-1.6-1.63-2.43-2.41-3.47-3.28 2.6 4 .92 1.34-.6-1-1.26-1.9-1.82-2.9l-.65-1.22q-1.6-3.37.74 1.77a29.21 29.21 0 0 1-1-3.37c-1.68-5.53-.06 5.57-.14-.23 0-1.75-.15-3.5-.12-5.26.2-12 3.33-23.85 2.85-35.93a96.61 96.61 0 0 0-6.52-32.15c-17.12-42.61-57.69-71.15-101.22-82.55-52.06-13.62-105.89-1.39-158.4 1.84a286.31 286.31 0 0 1-39.73.17c-1.2-.09-2.4-.22-3.59-.32-6.23-.53 5.63 1-.51 0-2.95-.53-5.88-1.07-8.78-1.83-2.22-.58-7-1.16-8.53-2.71 1.78 1.78 3.58 1.68 1.39.57-1.63-.84-3.28-1.62-4.88-2.53-2-1.13-3.82-2.41-5.72-3.66-1.63-1.07-2.13-2.65 1.83 1.48-.91-1-2.11-1.73-3.09-2.61-1.67-1.5-3.28-3.07-4.81-4.71a68.03 68.03 0 0 1-3.56-4.07q-2.43-3 1.4 1.85c-2.05-4-5.17-7.58-7.31-11.59-1.1-2-2.07-4.14-3.08-6.23-1.77-3.64.77 1.79.86 2.12-.46-1.76-1.39-3.52-2-5.25a125.74 125.74 0 0 1-4-13.59c-.53-2.3-1-4.63-1.42-7-.17-.93-.31-1.87-.47-2.8-.81-4.48.71 6.62 0-.38a178.57 178.57 0 0 1 .14-34.83c.28-3.14.66-6.27 1-9.41.14-1.29.5-4.93-.16 1 .21-1.88.53-3.76.81-5.63 1-6.9 2.23-13.77 3.43-20.64 2.53-14.39 5-28.77 6.87-43.27 11.68-90.24-23.42-185-90.38-246.56a306.52 306.52 0 0 0-28.65-23.07c-10.66-7.66-28.31-2.21-34.21 9-6.83 12.93-2.4 26 9 34.21 2 1.41 4 3.42 6.13 4.52-5.54-2.81-2-1.55-.27-.16.79.63 1.58 1.27 2.36 1.92q6.45 5.31 12.54 11.05A257.8 257.8 0 0 1 280 482.65c1.58 1.91 3 4.21 4.75 5.93-.33-.32-3.61-4.81-1.13-1.44.9 1.22 1.81 2.44 2.71 3.67q4.45 6.15 8.57 12.55a270.61 270.61 0 0 1 15.64 27.85q1.67 3.42 3.24 6.89c.52 1.16 1 2.31 1.54 3.48.87 2 .92 4.72-.44-1.07 1.23 5.26 4.14 10.51 5.9 15.66a266.5 266.5 0 0 1 8.36 30c1 4.7 1.91 9.44 2.67 14.19.24 1.48.33 3 .68 4.51-1.48-6.26-.5-3.89-.3-2.13.35 3 .69 6 1 9.06a249.6 249.6 0 0 1 .77 31.89c-.22 5.45-.64 10.88-1.2 16.31-.14 1.26-.28 2.51-.43 3.77s-.7 7.72-.07.9c-.32 3.45-1 6.92-1.56 10.34-2.05 12.85-4.51 25.62-6.58 38.46-4.36 27.1-6.89 53.53-2.75 80.77 7 45.93 37.56 89.24 85.39 97.84 54 9.71 108.61-5.9 162.78-5.79 6.4 0 12.8.23 19.18.72 1.61.13 8.75 1.71 9.57 1-.76.7-6.08-.93-2.55-.33 1.82.3 3.65.59 5.47.94a169.21 169.21 0 0 1 27 7.89c4.91 1.83-5.53-2.49-.75-.33l2.58 1.16q3.21 1.49 6.35 3.12a143.14 143.14 0 0 1 13.28 7.88c1.88 1.26 3.7 2.9 5.66 4-5.43-3.11-2.88-2.26-1.25-.93q1.34 1.08 2.64 2.19a112.43 112.43 0 0 1 10.56 10.4c1.53 1.72 5.42 7.86 1.17 1.12 1.17 1.85 2.59 3.55 3.79 5.39 2.38 3.66 4 7.78 6.27 11.43-3.55-5.62-1.39-3.46-.54-1.17.3.81.59 1.62.87 2.44q1 3.09 1.8 6.26c.52 2.12.74 4.32 1.26 6.43-1.81-7.23-.46-3.62-.29-1.37.1 1.34.16 2.69.19 4 .27 12.2-3 24.15-2.9 36.34.18 16.21 5.54 30.84 16.25 42.95 17.75 20.06 45.52 24.46 70.66 26.83 3 .28 6 .55 8.92.86l3.56.4c6.16.65-5.65-1.12.41.09 2.9.58 5.81 1 8.68 1.79 1.14.29 2.28.61 3.41 1s7.4 3.19 3.42 1 .42.25 1 .57c1.09.55 2.17 1.13 3.23 1.73 2.13 1.22 4.11 2.62 6.15 4 2.84 1.89-4.86-4.11-1-.76.74.65 1.49 1.27 2.22 1.93a81.89 81.89 0 0 1 6.22 6.28c.77.87 1.88 2.83 2.87 3.4-.39-.22-3.55-4.94-1.21-1.51 1.4 2.07 2.83 4.09 4.14 6.22s2.52 4.32 3.67 6.54c.57 1.11 1.12 2.23 1.66 3.36 2.65 5.64-1.61-4.4.16.22a165.08 165.08 0 0 1 8.34 31.29q.34 2.06.66 4.11l.25 1.65c.31 2.21.32 2.21 0 0l-.22-1.66c.14 1.12.27 2.24.4 3.36a320.01 320.01 0 0 1 1.69 22.22c.53 12.08.48 24.19.12 36.27-.34 11.63-1 23.24-1.72 34.85-.35 5.43-.72 10.86-1.27 16.27-.3 3-.66 5.9-1 8.85-.46 3.84 1-6.36 0-.47-.28 1.76-.53 3.53-.82 5.29a329.8 329.8 0 0 1-8.17 36.49q-2.43 8.58-5.34 17c-2.06 6-3.87 12.79-6.94 18.33.32-.58 2.26-5.17.44-1.05-.72 1.63-1.43 3.26-2.17 4.88-1.1 2.44-2.24 4.86-3.4 7.26q-4.08 8.43-8.64 16.6c-6.35 11.43-3.15 27.8 9 34.2 11.76 6.22 27.42 3.24 34.2-9z" class="cls-5"/><path d="M669.83 827.53c-4-15-19.94-23.6-34.8-19.43-12.6 3.54-22.61 15.59-22.22 28.92.49 16.43 14.47 28.56 30.4 29.16 12.33.47 23.85-6.13 30.56-16.26C684 834.51 680 813 667.3 800.27c-15.6-15.61-41.21-13.48-54.51 3.73-5.78 7.49-9.29 17-8.82 26.59.64 13.23 6.91 23.1 17.42 30.85 4.9 3.61 13.65 4.06 19.26 2.52 5.8-1.6 12.08-6.08 14.94-11.49 6.89-13 2.31-25.89-9-34.21a15.4 15.4 0 0 1 6.11 6.18q-1.92-3.2 1.17 3.38c-1-3.25.61-2.06.07 2.77.66-5.92-1.81 5.6-.47 1.59 1-3 2.12-1.84-1.11 2.14 3.67-4.53-4.09 3.59-1 1l-3.47 2.68q3.2-1.9-3.37 1.18 3.68-1-3.68.29 2.76 0-1.23-.33-3.93-.69-1.33 0-6.51-3.06-3.26-1.2c-6.1-3.79-3.83-2.63-2-1.17q-4.1-5.64-2.13-2.47 1.7 3.36-1.24-3.08a11.58 11.58 0 0 1 .43 1.53q.69 3-.48-4.06c-.76 6 1.62-5.62.36-1.6q3-6.27 1.5-3.66t2.39-3q5.65-3.88 2.37-1.92a14.62 14.62 0 0 1 8.14-2.28c12.55.71 25.7 14.15 15.56 31.11a18.84 18.84 0 0 1-11.57 9q-16.46-2.2-10.38.12l-11-6.43-5.31-9.18c3.37 12.64 18 21.6 30.75 17.46 13-4.2 21.07-17.21 17.47-30.75zm-384.89 350.78a14.26 14.26 0 0 1 8-6.93q3-1.11 1.08-.55c-5 .33 1.3-.39 1.81-.11-1.45-.78-6.92.62-8.72.76-5.56.43-11.13.75-16.7.75-2.62 0-5.25-.07-7.86-.23-1.45-.09-2.88-.27-4.32-.36-3.19-.2 5.3 1.07.66.07-2.8-.61-5.59-1.12-8.34-2-1.1-.32-2.17-.71-3.26-1.06-5.59-1.79 4.95 2.37-.39-.16-11.8-5.59-27.53-3.67-34.21 9-5.87 11.11-3.65 28.23 9 34.2 16.54 7.83 34 10.88 52.26 10.48 7.31-.17 14.64-.7 21.91-1.47 13.61-1.44 24.31-5.13 32.28-17.17 7.23-10.94 2.51-28.14-9-34.21-12.54-6.62-26.49-2.7-34.21 9z" class="cls-4"/><path d="M198.77 1226.55c27.7 2.88 55.21-3.11 80.24-14.91 11.86-5.59 15.83-23.55 9-34.2-7.86-12.21-21.51-15-34.2-9-.74.34-5.49 2.3-1.89.93l-1.13.43c-2.49 1-5 1.84-7.57 2.64a126.88 126.88 0 0 1-16.44 4c-.73.12-4.82.72-1.08.21 4.16-.57-1.63.13-2 .16q-4 .36-8 .47a130.67 130.67 0 0 1-16.9-.71c-13.05-1.36-25.56 12.47-25 25 .66 14.71 11 23.54 25 25z" class="cls-4"/><path d="M292.43 1179.76c-1 .64-11 6.83-11.58 6.12q5.22-2.16 1.45-.68c-1 .38-2 .75-3.07 1.1-2.05.69-4.13 1.32-6.22 1.89-3.69 1-7.43 1.81-11.19 2.45-1.08.18-2.17.35-3.25.51q5.88-.76 1.73-.27c-2.21.19-4.41.43-6.62.58-17.13 1.16-34.22-.34-51.24-2.14-1.93-.24-1.17-.13 2.29.31-1.16-.17-2.32-.36-3.47-.56-2.3-.41-4.59-.89-6.85-1.48-1.32-.35-5.84-1-6.65-2.1 3.21 1.42 3.65 1.58 1.29.49-1-.46-1.89-1-2.81-1.48-1.85-1-3.57-2.25-5.35-3.4-4-2.62 3.86 3.52.05 0-3.15-2.92-6.28-5.77-9.2-8.93-5.8-6.29-11.09-13.05-16.42-19.74q-4.77-6-9.47-12c-.79-1-1.57-2-2.35-3q2.94 3.81.41.52-2.32-3-4.64-6.08c-4.12-5.4-8.12-9.61-14.94-11.48-6-1.65-14-.91-19.27 2.52-10.25 6.61-17.44 23.07-9 34.2 10.91 14.34 21.91 28.65 33.42 42.52 9.7 11.7 21.1 23.33 35 29.9 17.06 8 35.36 9.93 54 11.4 14.45 1.15 29 1.5 43.44-.21 19.71-2.34 38.65-7.23 55.72-17.76 11.13-6.86 16.41-22.67 9-34.2-7.19-11.16-22.29-16.32-34.2-9z" class="cls-4"/><path d="M119.2 1254.5a51.59 51.59 0 0 0 35.35-14.64c8.68-8.68 15.21-22.9 14.65-35.36-.58-12.93-4.83-26.34-14.65-35.36s-21.8-14.64-35.35-14.64a51.63 51.63 0 0 0-35.36 14.64c-8.67 8.68-15.2 22.9-14.64 35.36.58 12.93 4.83 26.34 14.64 35.36s21.81 14.64 35.36 14.64z" class="cls-3"/><path d="M847.2 781c16.08 0 16.11-25 0-25s-16.11 25 0 25z" class="cls-2"/><path d="M859.2 225c16.08 0 16.11-25 0-25s-16.11 25 0 25zm-404-200c16.08 0 16.11-25 0-25s-16.11 25 0 25z" class="cls-4"/><path d="M163.2 1325c16.08 0 16.11-25 0-25s-16.11 25 0 25z" class="cls-5"/><path d="M1015.2 1129c16.08 0 16.11-25 0-25s-16.11 25 0 25z" class="cls-2"/><path d="M218.37 932.52c13.08 0 25.6-11.5 25-25s-11-25-25-25c-13.08 0-25.61 11.5-25 25s11 25 25 25z" class="cls-5"/><path d="M155.74 1025.39c-2.11-1.33-4.2-2.7-6.25-4.13-1.14-.8-2.26-1.62-3.38-2.43-2.69-2 .33-.15 1.1.85-1.53-2-4.46-3.69-6.34-5.39s-3.67-3.39-5.44-5.16c-3.55-3.55-6.72-7.37-10-11.13-2.19-2.5 2.79 3.81.84 1.12-.82-1.13-1.66-2.23-2.46-3.36-1.6-2.27-3.13-4.59-4.61-6.94-6.54-10.37-23.14-17.4-34.2-9-9.52 7.25-15.57 16.09-15.49 28.46 0 8.24 3.12 16.7 7.6 23.53a110 110 0 0 0 32.51 32.09c11 7.14 28.1 2.58 34.21-9 6.58-12.45 2.76-26.58-9-34.2-.94-.6-1.86-1.21-2.77-1.84q-3.26-2.37 1.06.93c-1.09-1.16-2.62-2.16-3.8-3.23a96.61 96.61 0 0 1-8-8.4c-3.49-4 2.47 3.91-.1-.24-.78-1.26-1.94-4-3.05-5l1.5 3.58a18.88 18.88 0 0 1-.71-2.47q.63 6.9.57 3 .08 9.84-9.29 15.9l-34.2-9a173.76 173.76 0 0 0 54.5 54.5c11.08 7 28.05 2.7 34.21-9 6.51-12.33 2.85-26.75-9-34.21z" class="cls-4"/></svg>