<?xml version="1.0" encoding="utf-8"?>
<!-- Generator: Adobe Illustrator 22.1.0, SVG Export Plug-In . SVG Version: 6.00 Build 0)  -->
<svg version="1.1" id="Layer_1" xmlns="http://www.w3.org/2000/svg" xmlns:xlink="http://www.w3.org/1999/xlink" x="0px" y="0px"
	 viewBox="0 0 415.6 593.2" style="enable-background:new 0 0 415.6 593.2;" xml:space="preserve">
<style type="text/css">
	.st0{fill:#88ADDB;}
	.st1{fill:#8CCBA7;}
	.st2{fill:#F08A1D;}
	.st3{fill:#97D6E4;}
	.st4{fill:#F6BE3C;}
	.st5{fill:#FFFFFF;}
</style>
<g>
	<path class="st0" d="M252.6,354h-87c-7.7,0-14.5,4.9-16.9,12.2l-13.3,39.9c-2.4,7.3-9.3,12.2-17,12.2H88.6c-9.9,0-17.9-8-17.9-17.8
		c0-2.1,0.4-4.2,1.1-6.2l102.9-276.4c2.6-7,9.3-11.6,16.7-11.6h34.8c7.5,0,14.1,4.6,16.7,11.6l103.4,276.4c3.5,9.2-1.2,19.5-10.5,23
		c-2,0.7-4.1,1.1-6.3,1.1h-29.8c-7.7,0-14.5-4.9-16.9-12.2l-13.5-40C267.1,358.9,260.3,354,252.6,354L252.6,354z M194.8,301.9h28.4
		c9.9,0,17.9-8,17.9-17.9c0-1.9-0.3-3.8-0.9-5.7l-14.3-42.6c-5.5-16.3-28.5-16.2-33.9,0.1l-14.1,42.6c-3.1,9.4,2,19.5,11.3,22.6
		C191,301.6,192.9,301.9,194.8,301.9z"/>
	<path class="st1" d="M177.4,147.2c-12.4,47.5,11.4,64-47.5,86.8s-99.2,26.9-31,71.3c57.4,37.4,144.2-15.9,145.7-17.6
		c9.3-10.3,67.1-56.8,67.1-83.7c0-11.9-15.8-62-43.4-78.5C233.4,104.6,184.4,120.6,177.4,147.2L177.4,147.2z"/>
	<path class="st2" d="M289.5,294.3c30,10.6,28.4,39.3,37.5,46.3c4.2,3.1,7.3,7.7,8.5,12.8l11.3,47.2c2.9,11.9-4.5,23.9-16.4,26.7
		c-1.7,0.4-3.4,0.6-5.2,0.6h-21.9c-10.8,0-20-7.7-21.9-18.3C274.6,370.8,262.2,284.6,289.5,294.3L289.5,294.3z"/>
	<path class="st3" d="M302.7,228.7c-6.6-6.8-18.3-4.6-22.8,3.5c-4.9,8.8,0.8,19.8,9.6,23.1c8,3,18.8-0.7,20.7-9.7
		c0.9-4.3-0.1-8.7-2.8-12.2c-3.3-4.3-7.9-5.6-13.2-4.8c-4.5,0.7-7.3,6.5-6,10.6c1.6,4.9,5.8,6.8,10.6,6c-1.6,0.2-3,0.3-4.2-0.7
		c-0.5-0.4-1.2-1.8-0.7-0.6c-0.2-0.4-0.5-2.4-0.5-1.6s0.2-1.4,0.4-1.7c0.4-0.7,1-0.9,1.5-1.4c0.5-0.2,0.5-0.2,0.1-0.1
		c-0.6,0.1-0.4,0.1,0.6,0c-1.6-0.2,0.9,0.1-0.2,0.1c-0.4,0-2.1-0.7-0.3,0c-0.7-0.2-0.8-0.3,0,0c-0.6-0.6-0.7-0.7-0.3-0.3
		s0.3,0.3-0.1-0.4c0.1-0.1,0.3,1.4,0.1,0c0,0.3-0.2,2.1,0.1,1.3c0.3-1-0.5,0.9-0.7,1.2c-0.8,0.6-1,0.7-0.4,0.4s0.4-0.2-0.1,0
		c-0.6,0.1-2.1,0.2-0.8,0.3c-1,0-2-0.3-2.8-0.9c3.3,3.5,8.7,3.6,12.2,0.4c3.5-3.3,3.6-8.7,0.4-12.2C303,229,302.8,228.9,302.7,228.7
		L302.7,228.7z"/>
	<path class="st2" d="M183.6,145.4c11.1,0,11.1-17.2,0-17.2S172.5,145.4,183.6,145.4L183.6,145.4z M155.8,387.2
		c11.1,0,11.1-17.2,0-17.2S144.7,387.2,155.8,387.2z"/>
	<path class="st4" d="M342.6,212.6c11.1,0,11.1-17.2,0-17.2S331.5,212.6,342.6,212.6z"/>
	<path class="st1" d="M156.6,431.4c6.3-21.9-23.7-31.3-39.2-36.4c-9.1-3-20.8-7.7-27.1,2.4c-4.6,7.5-4.2,17.4-0.2,25
		s11.5,12.2,19.8,13.8c7.3,1.4,16.6,0,23.2,4c4.6,2.9,8.3,3.8,13.4,1.3c5.1-2.7,10-5.7,14.8-9c8.2-5.4,12-14.5,7.1-23.7
		c-5.4-10-17.3-12.1-27.6-9.3c-10,2.8-18.9,10.6-29.3,4.6c-9.6-5.6-18.2,9.3-8.7,14.9c6.2,3.7,13.4,5.3,20.5,4.5
		c7.1-0.8,12.9-4.3,19.5-6.6c2.4-0.8,6-2.2,8.6-1.2c0.5,0.2,0.9,0.5,1.4,0.7c1.5,0.7-0.3,2.1,0.8,0.5c-0.8,1.2-3.5,2.2-4.7,3
		c-3.3,2-6.9,5-10.4,6.4h4.6c-1.7-0.5-3.9-2.4-5.7-3.2c-2.2-0.9-4.4-1.5-6.8-1.9c-5.2-0.9-10.5-0.8-15.7-1.6
		c-3.6-0.5-7.3-1.5-9.2-4.8c-0.8-1.3-1.3-2.8-1.4-4.4c0-0.8,0-1.5,0.1-2.3c0-0.9,1.1-1.8,0-1.2l-4.3,1.2c3.9-0.3,9.1,2.1,12.8,3.3
		s7.6,2.6,11.3,4.2c3.4,1.4,17.3,6,15.9,11C137,437.5,153.6,442,156.6,431.4L156.6,431.4z"/>
	<path class="st1" d="M145.4,411.3h-37.2c-11.1,0-11.1,17.2,0,17.2h37.2C156.5,428.5,156.5,411.3,145.4,411.3z"/>
	<path class="st3" d="M138.3,408.8c1.4-14.6-7.1-27.5-20-33.7c-6-2.9-12.3-4.9-17.9-8.5c-5.5-3.5-10.3-7.9-14.2-13
		c-3.8-4.9-7-10.2-11.9-14.1c-6-4.9-13.8-6.9-21.4-5.5c-12.6,2.2-22.2,12.5-26.2,24.3c-4,11.6-1.8,24.5,5.7,34.2
		c8.2,10.5,21.9,17.8,33.9,23.1c6.9,3,13.9,5,21.4,4.9c3.7,0,7.4-0.5,11.1-0.8c4-0.2,8.1,0.2,12,1.2c7.1,1.5,14.2-0.1,18-6.7
		c3.5-6.4,2.5-14.2-2.5-19.5c-5.6-6.2-13.8-7.4-21.7-7.5c-7.6-0.1-14.8-0.8-22.1-3.2c-6.7-2.1-13.5-5.6-18.7-10.5
		c-3.2-3-8.3-9-5.9-13.8l-9.7,4c4.4,1.8,7.7,6.3,10.6,9.9c3.6,4.6,7,9.4,11.4,13.4c5.1,4.4,11,7.9,17.3,10.2
		c6,2.3,12.6,2.3,18.5,4.4l-3.8-2.2l0.8,0.8l-2.2-3.8l0.3,1v-4.6l-0.3,1l2.2-3.8c-0.8,1.1-4.2,1.2-5.8,1.5c-3.2,0.6-6.5,0.9-9.7,1
		c-6.2,0.4-12.3-0.5-18.2-2.5c-8.4-3.1-15.4-9.8-17.5-18.6c-2.6-10.8-19.2-6.2-16.6,4.6c3.7,15.2,16.3,26.4,30.9,31.1
		c8.4,2.5,17.3,3.3,26,2.4c8-0.7,19.8-1.1,24.4-9c2.3-4,1.7-9-1.4-12.4c-3.2-3.4-7.3-3.5-11.6-4.2c-7-1.2-14.2-3.4-19.9-7.8
		c-5.5-4.2-9.3-10.3-13.6-15.6c-4.6-5.8-10.5-10.3-17.3-13.2c-3.2-1.4-8.2,0.9-9.7,4c-11.4,23.6,14.5,42.8,34.1,49.3
		c5.5,1.8,11.1,2.9,16.8,3.5c5.4,0.6,11.4-0.3,16.6,1c0.1,0,3.4,1.7,3.2,1.8c-1.1,0.2,1-2.1,1-1.7c0.2-1.1,2.9,0.5-1-1
		c-6.3-2.4-13.9-1.4-20.5-0.9c-6,0.5-11.4,0.3-17.1-1.8c-5.5-2-10.7-5.2-15.7-8.1c-7.7-4.5-16.9-9.9-18.3-19.6
		c-1-7.1,1.7-15.2,7.5-19.6c3.1-2.4,7.7-4.1,11.5-2.5c4,1.7,6.8,6.4,9.2,9.8c7.5,10.2,16.7,18.8,28.3,24.1
		c5.8,2.7,12.7,4.4,17.5,8.8c4.2,3.8,5.5,9.3,4.9,14.8c-0.4,4.6,4.3,8.6,8.6,8.6c5,0,8.2-4,8.6-8.6L138.3,408.8z M262.3,86.7
		c-12.8-10.7-32.4-12.7-45.4-1.1c-11.9,10.6-13.8,30.1-3.8,42.4c10.3,12.6,28.5,13.3,41.8,21.4c8,4.9,16,10,25.6,11
		c8.6,0.9,17.4-2.4,22.7-9.3c13.3-17.4-6.6-34.2-19.7-43.5c-6.8-4.9-13.9-9.6-19.5-15.9c-2.9-3.2-5.2-6.7-9.1-8.7
		c-4.3-2.1-9.1-2.9-13.8-2.4c-17.4,1.8-30.7,18.9-24,36.2c3.3,8.4,10.6,13.2,18.5,16.8c8.2,3.7,15.6,8.7,23.8,12.6
		c5,2.5,10.3,4.2,15.7,5.2c5.4,0.9,11.8,2,16.3-2.1c9.1-8.3,0-19.8-8.2-24c-8.1-4.1-16.7-6-24.4-11.1c-5.6-3.8-10.7-8.4-14.9-13.8
		c-0.5-0.6-1-1.4-1.5-2c-1.3-1.4,0.3-0.4-0.2,0.8l-2.2,3.8l0.6-0.6l-3.8,2.2l-0.1,0.2l-4.3-1.2c15.4,7.8,29.5,19.4,42.1,31
		c8.1,7.5,20.3-4.6,12.2-12.2c-10.1-9.3-20.9-17.8-32.3-25.5c-5.4-3.6-12.3-9.6-19-9.5c-7.1,0-11.2,7.1-10.1,13.5
		c1,6,5.5,10.9,9.5,15.2c4.2,4.5,9,8.5,14.1,12c5.1,3.5,10.6,6.4,16.4,8.6c2.8,1.1,5.8,1.9,8.6,3.1c0.9,0.4,1.8,0.9,2.6,1.4
		c2.4,1.4,0.6,1.2,1.4-1.1l2.2-3.8L279,137l3.8-2.2c-3.6,1.1-10.1-1.6-13.3-2.9c-5.4-2.2-10.2-5.7-15.2-8.5
		c-4.2-2.3-8.6-4.1-12.9-6.2c-3.3-1.6-7.3-3.4-8.6-7.2c-2.4-7.2,4.8-13.2,11.6-12.5c4,0.4,6.2,5.2,8.9,8c3.8,3.7,7.8,7.1,12.2,10.2
		c7.4,5.5,16.6,10.5,22.3,17.9c2,2.6,3.5,5.7,0.6,8.1c-3.4,2.7-8.5,1.4-12.1,0c-9.2-3.6-16.7-10.3-26-13.8
		c-7.5-2.8-17.3-4.1-23.1-10c-5.1-5.3-4.2-14.4,1-19.3c5.9-5.6,16.1-4.8,22,0.2c3.6,3,8.7,3.5,12.2,0
		C265.3,95.8,265.8,89.7,262.3,86.7L262.3,86.7z"/>
	<path class="st4" d="M319.2,138.1c5.5,0,5.5-8.6,0-8.6S313.7,138.1,319.2,138.1z M294.6,414.9c5.5,0,5.5-8.6,0-8.6
		S289.1,414.9,294.6,414.9z"/>
	<path class="st1" d="M273,95.7c5.5,0,5.5-8.6,0-8.6S267.5,95.7,273,95.7z M186.2,287.8c5.5,0,5.6-8.6,0-8.6
		S180.6,287.8,186.2,287.8z"/>
	<path class="st2" d="M163.2,29.2c6.3,15.6,21.7,26.4,38.8,25.2c11.4-0.8,22.1-3.8,33.7-3.2c7.6,0.4,20.2,1.2,24.3,8.9
		c3.9,7.4-0.4,16.9-2.4,24.2c-2.1,8.1-2.9,16.4,1,24.1c4.1,8,12.1,12.8,19.5,17.2c8.8,5.2,17.7,10.6,24.8,18.1
		c14.6,15.6,18.5,38.6,14.7,59.1c-1,5.4,7.3,7.7,8.3,2.3c3.3-17.8,1.6-36.6-6.7-52.8c-9.4-18.3-26.4-27-42.9-37.8
		c-8.7-5.7-13.5-13.1-11.5-23.7c1.6-8.1,5.3-15.9,5.1-24.3c-0.5-20.1-22.2-23.8-38.3-23.9c-6.2,0-12.4,0.5-18.6,1.6
		c-6.2,1-12.4,2.5-18.6,1.5c-10.4-1.9-19.1-8.9-23.1-18.6C169.5,21.9,161.1,24.1,163.2,29.2L163.2,29.2z"/>
	<path class="st1" d="M166.2,282.2l12.4-31.7c2-5.2-6.3-7.4-8.3-2.3l-12.4,31.7C155.9,285.1,164.2,287.3,166.2,282.2z M143.2,296.3
		c-5.6,1.4-11.4,1.3-16.9-0.3c-5.3-1.5-7.6,6.8-2.3,8.3c7,2,14.4,2.1,21.5,0.3C150.9,303.3,148.6,295,143.2,296.3z"/>
	<path class="st4" d="M222.8,182.1c5.5,0,5.6-8.6,0-8.6S217.3,182.1,222.8,182.1z"/>
	<path class="st4" d="M224.2,193.7c9,0,17.6-7.9,17.2-17.2s-7.6-17.2-17.2-17.2c-9,0-17.6,7.9-17.2,17.2S214.6,193.7,224.2,193.7
		L224.2,193.7z"/>
	<path class="st3" d="M154,142.7c9,0,17.6-7.9,17.2-17.2s-7.6-17.2-17.2-17.2c-9,0-17.6,7.9-17.2,17.2S144.4,142.7,154,142.7z
		 M353.7,425.7c9,0,17.6-7.9,17.2-17.2s-7.6-17.2-17.2-17.2c-9,0-17.6,7.9-17.2,17.2S344,425.7,353.7,425.7z"/>
	<g>
		<path class="st1" d="M162.9,275.8c-7,4.2-14.4,9.8-22.2,12.3s-16.3,1.8-24.4,1.3c-11.1-0.7-11,16.5,0,17.2
			c9.6,0.6,19.7,1.1,29-1.9s17.9-9,26.3-14C181.1,285,172.5,270.1,162.9,275.8L162.9,275.8z"/>
		<path class="st1" d="M154.9,283.5c-14.3,8.3-31.3,10.5-47.3,6.2c-10.7-2.9-15.3,13.7-4.6,16.6c20.4,5.4,42.2,2.6,60.5-8
			C173.2,292.8,164.5,277.9,154.9,283.5L154.9,283.5z"/>
		<path class="st1" d="M155.7,286.6c-0.7,6.5-13.4,8.3-17.9,9.2c-7.6,1.6-15.7,2.5-23.4,1.1c-13-2.2-25.5-12-24.5-26.3
			c0.8-11.1-16.4-11-17.2,0c-1.7,23.5,19.6,40.7,41.1,43.5c11.8,1.5,23.9-0.1,35.3-3.4c12.3-3.5,22.3-10.8,23.8-24.2
			c0.5-4.6-4.3-8.6-8.6-8.6C159.2,278,156.2,282,155.7,286.6L155.7,286.6z"/>
		<path class="st1" d="M62,268.5c-0.3,10.7,5.2,20.6,13.4,27.1c9.3,7.4,21,10.1,32.5,11.7c4.6,0.7,9.2-1.1,10.6-6
			c1.1-4-1.4-9.9-6-10.6c-12.5-1.8-33.8-5.5-33.3-22.2C79.6,257.5,62.4,257.5,62,268.5L62,268.5z"/>
	</g>
	<path class="st4" d="M62,267c6.4,0,6.4-10,0-10S55.6,267,62,267z"/>
	<path class="st2" d="M97.3,182.5c5.5,0,5.5-8.6,0-8.6S91.8,182.5,97.3,182.5z"/>
	<path class="st5" d="M238.3,269.8c0,0-3.5-34.2-15.5-49.5c-7.9-10.1-24.9-5.2-27.9-1.1c-12.6,17.1-17.1,55.7-17.1,55.7
		s-2.6,13.1,2.6,18.2s62-3.1,62-3.1L238.3,269.8z"/>
	<path class="st4" d="M313.6,478.1c8.7-15.9,13.9-33.5,15.1-51.6c1.1-16.2,2.2-33.8-3-49.5c-2.4-7.2-6.4-14.2-12.2-19.1
		c-7-5.8-14.9-7.5-23.8-8.4c-5.5-0.6-14-0.8-13.9-8c0.2-7.7,1.8-14.4-0.9-21.9c-5-14-17.5-23.3-31.1-28.1
		c-17.1-6.1-35.7-2.6-53.3-1.1c-8,0.7-17.6,2-25.3-0.8c-5.4-2-9-6.8-11.1-12.1c-5.9-15.5,0.3-32.7,2.2-48.4
		c4.2-35.5-12.5-70.8-41.1-91.7c-3.8-2.7-9.6-0.6-11.8,3.1c-2.6,4.4-0.7,9,3.1,11.8c22.7,16.5,35.3,45.2,33,73.1
		c-1.4,16.8-7.1,33-3.8,50c2.7,14,11.6,26.8,25.7,31c29.1,8.7,67.1-14.2,91.6,10.2c3.7,3.7,6.3,8.3,6.5,13.6c0.3,8.5-2.7,16,2.1,24
		c3.9,6.4,11.2,10.1,18.3,11.5s15.9,0.3,21.9,5c12.3,9.8,10.8,31.5,10.2,45.3c-0.8,19-4.1,36.7-13.3,53.5
		C293.4,479.1,308.3,487.8,313.6,478.1L313.6,478.1z"/>
	<path class="st3" d="M255.4,284.9c-1.4-5.1-6.8-8.2-11.9-6.7c0,0,0,0-0.1,0c-5.4,1.3-8.7,6.8-7.4,12.2c0.9,3.8,4,6.8,7.9,7.5
		c4.2,0.9,8.6-0.4,11.5-3.6c4.7-5.5,4.3-13.7-0.8-18.7c-4.9-4.9-13.6-5.1-18.2,0.4c-2.4,2.7-3.7,6.2-3.6,9.8c0.1,4.6,2.4,8.1,6,10.7
		c1.7,1.2,4.7,1.4,6.6,0.9c2.2-0.6,4-2.1,5.1-4c2.4-4.5,0.8-8.9-3.1-11.8c1.5,1.1,2.3,1.8,2.5,3.2l-0.1-0.3
		c-0.2-0.9-0.1-0.5,0.1,1.2c0.3-1.8-0.3,0.9-0.2,0.9c0-0.2,0.1-0.5,0.2-0.7c-0.7,1.5-0.8,1.8-0.4,1.1c0.7-1.2-1.5,1.6-0.5,0.6
		c0.6-0.6,0.3-0.3-0.9,0.7l-1.4,0.6c0.9-0.2,0.4-0.2-1.2,0.1c0.9,0,0.5-0.1-1.2-0.2c1.3,0.3-2-1-0.8-0.3c-1.2-1-1.5-1.2-1-0.8
		s0.2,0.1-0.8-1c0.8,1.8-0.3-1.3-0.1-0.5c0.5,1.7,0.1-2.1,0-0.6s0.6-2.3,0.1-0.9c0.7-1.5,0.8-1.8,0.4-1.1c0.3-0.7,0.8-1.2,1.4-1.6
		c0.7-0.5,0.8-0.6,0.2-0.2c0.8-0.5,1.8-0.8,2.8-0.8c4.4,0,8.3,5.7,5.4,10.7c-0.9,1.5-2.3,2.6-4,3.1c-3.8-0.5-5-0.5-3.6,0l-3.8-2.2
		l-1.8-3.2c1.2,4.4,6.2,7.4,10.6,6c4.5-1.3,7.2-6,6-10.6L255.4,284.9z M124.2,404c2.7-0.7,3.2-1,1.6-0.8c-0.8,0.1-1.7,0.1-2.5,0.2
		c-1.7,0.1-3.3,0.2-5,0.2c-2.9,0.2-5.8-0.3-8.5-1.3c-4.2-1.9-9.2-1.2-11.8,3.1c-2.2,3.7-1.2,9.9,3.1,11.8c5.9,2.6,12.4,3.8,18.9,3.5
		c5.5-0.2,12.5-0.1,16.4-4.6C143.6,407.7,131.5,395.5,124.2,404L124.2,404z"/>
	<path class="st3" d="M93.2,422.3c9.5,0.8,19-1,27.6-5.1c4.2-1.9,5.3-8,3.1-11.8c-2.5-4.3-7.5-5-11.8-3.1c-6,2.6-12.5,3.6-18.9,2.8
		c-4.6-0.4-8.6,4.3-8.6,8.6C84.6,418.7,88.6,421.9,93.2,422.3L93.2,422.3z"/>
	<path class="st3" d="M125.5,406.2c-8.8,5.2-19.9,4.7-29.8,3.4c-10.9-1.4-16.8-11.8-23-19.9c-2.8-3.7-7.4-5.6-11.7-3.1
		c-3.6,2.1-5.9,8.1-3.1,11.8c9.2,12.1,17.7,25.6,34,28c14.2,2.1,29.6,2.3,42.3-5.3C143.8,415.4,135.1,400.6,125.5,406.2L125.5,406.2
		z"/>
	<path class="st2" d="M65.8,431.9c9,0,17.6-7.9,17.2-17.2s-7.6-17.2-17.2-17.2c-9,0-17.6,7.9-17.2,17.2S56.2,431.9,65.8,431.9z"/>
	<path class="st1" d="M316.5,268.9c5.5,0,5.5-8.6,0-8.6S310.9,268.9,316.5,268.9z"/>
	<path class="st3" d="M320.6,77.5c5.5,0,5.5-8.6,0-8.6S315.1,77.5,320.6,77.5z M181.5,8.6c5.5,0,5.5-8.6,0-8.6S176,8.6,181.5,8.6z"
		/>
	<path class="st4" d="M81,456.2c5.5,0,5.6-8.6,0-8.6S75.4,456.2,81,456.2z"/>
	<path class="st1" d="M374.3,388.7c5.5,0,5.5-8.6,0-8.6S368.8,388.7,374.3,388.7z"/>
	<path class="st4" d="M100,321.1c11.1,0,11.1-17.2,0-17.2S88.9,321.1,100,321.1z"/>
	<path class="st3" d="M78.4,353c-5.1-3.2-9.4-7.5-12.6-12.6c-2.5-4.1-7.9-5.4-12-2.9c-0.5,0.3-1,0.7-1.5,1.2
		c-10.2,9.1,2.4,22.4,10.2,27.6c3.9,2.6,9.5,0.8,11.8-3.1c2.5-4.2,0.8-9.2-3.1-11.8c-1.5-1-2.8-2.2-4-3.5c-0.4-0.4-0.8-0.9-1.1-1.4
		c-0.2-0.4-0.5-0.7-0.7-1.1c1.1,1.6,0.8,3.5-1,5.5L51,349.1c4.8,7.6,11.2,14,18.8,18.8c3.9,2.5,9.5,0.8,11.8-3.1
		C83.9,360.7,82.5,355.4,78.4,353z"/>
	<path class="st2" d="M340.8,345c11.1,0,11.1-17.2,0-17.2S329.6,345,340.8,345z"/>
</g>
</svg>
