<svg height="131.6" viewBox="0 0 323.39 131.6" width="323.39" xmlns="http://www.w3.org/2000/svg"><path d="m51.13 89.22h-28.25l-5.37 16.12h-17.13l29.11-78.21h14.93l29.27 78.21h-17.13zm-23.9-13h19.55l-9.78-29.32zm66.09-29 .48 6.5q6.18-7.57 16.71-7.57 11.22 0 15.41 8.86 6.13-8.86 17.46-8.86 9.45 0 14.07 5.5t4.62 16.57v37.12h-15.57v-37.06c0-3.3-.65-5.7-1.94-7.23s-3.56-2.28-6.82-2.28q-7 0-9.67 6.66l.06 39.91h-15.53v-37c0-3.36-.66-5.8-2-7.3s-3.58-2.26-6.77-2.26q-6.61 0-9.56 5.48v41.09h-15.5v-58.13zm129.19 29.6q0 14-6 21.78t-16.65 7.81a18.13 18.13 0 0 1 -15.09-7.25l-.7 6.18h-14v-82.5h15.52v29.59a17.67 17.67 0 0 1 14.12-6.28q10.64 0 16.68 7.81t6 22zm-15.51-1.13q0-8.81-2.79-12.86t-8.33-4.06q-7.41 0-10.2 6.07v22.93q2.85 6.14 10.31 6.13t9.88-7.41q1.13-3.55 1.13-10.8zm50.17 30.72q-12.78 0-20.81-7.84t-8-20.89v-1.51a35.17 35.17 0 0 1 3.38-15.65 24.87 24.87 0 0 1 9.59-10.64 26.89 26.89 0 0 1 14.15-3.73q11.93 0 18.78 7.52t6.81 21.33v6.34h-37a14.43 14.43 0 0 0 4.53 9.13 13.74 13.74 0 0 0 9.59 3.44q9 0 14-6.5l7.63 8.54a23.39 23.39 0 0 1 -9.46 7.71 31 31 0 0 1 -13.19 2.75zm-1.77-47.75a9.71 9.71 0 0 0 -7.49 3.13q-2.88 3.14-3.68 9h21.59v-1.28q-.1-5.19-2.79-8t-7.63-2.85zm65.93 3.12a41.74 41.74 0 0 0 -5.59-.43q-8.81 0-11.55 6v38h-15.52v-58.13h14.67l.42 6.93q4.68-8 12.95-8a16.07 16.07 0 0 1 4.83.7z" fill="#3a3e3c"/></svg>