<svg xmlns="http://www.w3.org/2000/svg" id="Layer_1" viewBox="0 0 617.64 131.6" width="617.64" height="131.6"><defs><style>.cls-1{fill:#3a3e3c}</style></defs><path d="M70.58 94.1H54.46L23.1 42.65V94.1H7V15.9h16.1l31.42 51.56V15.9h16.06zm39.8 1.08q-12.8 0-20.82-7.85t-8-20.89v-1.5a35.05 35.05 0 0 1 3.39-15.66 24.85 24.85 0 0 1 9.55-10.64 27 27 0 0 1 14.16-3.73q11.93 0 18.77 7.52t6.85 21.32v6.34h-37a14.42 14.42 0 0 0 4.54 9.13 13.68 13.68 0 0 0 9.59 3.44q9 0 14-6.5L133 84.7a23.27 23.27 0 0 1-9.45 7.71 31.09 31.09 0 0 1-13.17 2.77zm-1.78-47.75a9.69 9.69 0 0 0-7.49 3.13q-2.86 3.12-3.68 8.95H119v-1.24q-.1-5.18-2.79-8t-7.61-2.84zm56.61 5.9L175 36h16.6L175 64.45l17.29 29.65h-16.66l-10.36-18.26L155 94.1h-16.75l17.24-29.65L139 36h16.65zm52.43-31.63V36h9.93v11.37h-9.93v29q0 3.23 1.23 4.62c.83.93 2.4 1.39 4.73 1.39a24.74 24.74 0 0 0 4.56-.37v11.77a31.94 31.94 0 0 1-9.4 1.4q-16.32 0-16.65-16.49V47.37h-8.48V36h8.48V21.7zm63.11 44.85V94.1h-16.12V15.9h30.51a35.31 35.31 0 0 1 15.5 3.22 23.78 23.78 0 0 1 10.28 9.16 25.54 25.54 0 0 1 3.6 13.51q0 11.49-7.87 18.12t-21.78 6.64zm0-13h14.39q6.39 0 9.75-3c2.24-2 3.36-4.87 3.36-8.6a12.89 12.89 0 0 0-3.39-9.29q-3.37-3.54-9.34-3.65h-14.77zm86.47-3.01a43.2 43.2 0 0 0-5.58-.43q-8.82 0-11.55 6v38h-15.52V36h14.66l.43 6.93q4.66-8 12.94-8a16.51 16.51 0 0 1 4.84.7zm3.12 13.97a34.47 34.47 0 0 1 3.33-15.42 24.37 24.37 0 0 1 9.58-10.47 28 28 0 0 1 14.53-3.71q11.76 0 19.21 7.2t8.29 19.55l.11 4q0 13.38-7.47 21.46t-20 8.09q-12.57 0-20.06-8.06t-7.49-21.91zm15.52 1.1q0 8.28 3.11 12.67a11.2 11.2 0 0 0 17.73 0q3.17-4.33 3.17-13.85 0-8.13-3.17-12.59a10.32 10.32 0 0 0-8.92-4.46 10.16 10.16 0 0 0-8.78 4.48q-3.14 4.44-3.14 13.75zM451.39 36v61.27q0 9.62-5.11 15t-14.71 5.34a31.44 31.44 0 0 1-7.68-.91v-12.3a29.3 29.3 0 0 0 4.88.48q7 0 7-7.46V36zm-16.81-15a7.63 7.63 0 0 1 2.33-5.75 10.09 10.09 0 0 1 12.73 0A7.63 7.63 0 0 1 452 21a7.65 7.65 0 0 1-2.39 5.8 10 10 0 0 1-12.62 0 7.61 7.61 0 0 1-2.41-5.8zm55.69 74.18q-12.78 0-20.81-7.85t-8-20.89v-1.5a35.19 35.19 0 0 1 3.38-15.66 24.93 24.93 0 0 1 9.59-10.64 27 27 0 0 1 14.15-3.73q11.93 0 18.78 7.52t6.84 21.32v6.34h-37a14.37 14.37 0 0 0 4.54 9.13 13.67 13.67 0 0 0 9.58 3.44q9 0 14-6.5l7.63 8.54a23.27 23.27 0 0 1-9.45 7.71 31.11 31.11 0 0 1-13.23 2.77zm-1.77-47.75a9.67 9.67 0 0 0-7.5 3.13q-2.88 3.12-3.68 8.95h21.59v-1.24q-.1-5.18-2.79-8c-1.78-1.9-4.33-2.84-7.62-2.84zm58.65 35.23a10.23 10.23 0 0 0 7-2.36 8.28 8.28 0 0 0 2.78-6.3h14.55a19.91 19.91 0 0 1-3.22 10.83 21.21 21.21 0 0 1-8.67 7.62 27.15 27.15 0 0 1-12.17 2.72q-12.46 0-19.66-7.93t-7.19-21.88v-1q0-13.44 7.14-21.43t19.6-8q10.91 0 17.49 6.21t6.68 16.51h-14.55a10.66 10.66 0 0 0-2.79-7.37 10.39 10.39 0 0 0-15.28 1.12q-2.77 4-2.77 12.83v1.61q0 9 2.74 12.91t8.32 3.91zm51.78-60.96V36h9.94v11.37h-9.94v29c0 2.15.41 3.69 1.24 4.62s2.39 1.39 4.72 1.39a24.93 24.93 0 0 0 4.57-.37v11.77a32 32 0 0 1-9.4 1.4q-16.34 0-16.65-16.49V47.37h-8.49V36h8.49V21.7z" class="cls-1"/></svg>