<svg xmlns="http://www.w3.org/2000/svg" width="1285.03" height="266.63" viewBox="0 0 1285.03 266.63"><defs><style>.cls-1{fill:#3a3e3c}</style></defs><path id="Layer_8" d="M192.37 196h-30.88l-60.11-91.47V196H70.5V57h30.88l60.21 91.66V57h30.78zm76.27 1.93q-24.49 0-39.88-13.94t-15.39-37.14v-2.67a58.66 58.66 0 0 1 6.48-27.83 45.59 45.59 0 0 1 18.38-18.91 54.7 54.7 0 0 1 27.12-6.63q22.84 0 36 13.36t13.12 37.91v11.26h-70.94a25 25 0 0 0 8.7 16.23q7.26 6.12 18.37 6.11 17.19 0 26.87-11.55l14.61 15.18A44 44 0 0 1 294 193a63.4 63.4 0 0 1-25.36 4.93zm-3.39-84.88q-8.87 0-14.36 5.57t-7 15.91h41.38v-2.2q-.21-9.21-5.36-14.24t-14.66-5.04zm108.49 10.5l18.73-30.83h31.81l-31.7 50.6 33 52.7h-31.87l-19.87-32.46L354.08 196h-32l33-52.7-31.6-50.6h31.91zM474.2 67.32v25.4h19.05V113H474.2v51.55q0 5.73 2.37 8.22t9.06 2.48a50.64 50.64 0 0 0 8.75-.67v20.91a65.93 65.93 0 0 1-18 2.48q-31.29 0-31.91-29.31V113h-16.28V92.72h16.26v-25.4zM595.15 147v49h-30.88V57h58.47q16.88 0 29.69 5.73T672.14 79a42.86 42.86 0 0 1 6.9 24q0 20.43-15.08 32.22T622.22 147zm0-23.2h27.59q12.24 0 18.68-5.35t6.43-15.27q0-10.22-6.48-16.52t-17.91-6.49h-28.31zm165.72-5.21a86.7 86.7 0 0 0-10.7-.76q-16.89 0-22.13 10.59V196h-29.75V92.72h28.1l.82 12.31q9-14.22 24.81-14.22a33.32 33.32 0 0 1 9.26 1.24zm5.97 24.82a57.64 57.64 0 0 1 6.38-27.4 44.82 44.82 0 0 1 18.38-18.62q12-6.58 27.84-6.58 22.54 0 36.8 12.79t15.9 34.75l.21 7.07q0 23.78-14.31 38.14t-38.39 14.37q-24.09 0-38.45-14.32t-14.36-39zm29.75 2q0 14.73 6 22.52t17.09 7.79q10.8 0 16.88-7.69t6.07-24.62q0-14.44-6.07-22.38t-17.09-7.94q-10.91 0-16.88 7.89t-6 24.39zm125.58-52.69v108.93q0 17.1-9.78 26.59t-28.2 9.5a65 65 0 0 1-14.72-1.62v-21.86a60.43 60.43 0 0 0 9.36.86q13.49 0 13.49-13.27V92.72zM890 66a13.09 13.09 0 0 1 4.48-10.21q4.47-4 12.2-4t12.19 4A13.09 13.09 0 0 1 923.3 66a13.08 13.08 0 0 1-4.58 10.31c-3.05 2.68-7.09 4-12.09 4s-9-1.33-12.1-4A13.08 13.08 0 0 1 890 66zm106.69 131.93q-24.5 0-39.88-13.94t-15.39-37.14v-2.67a58.66 58.66 0 0 1 6.48-27.83 45.59 45.59 0 0 1 18.38-18.91 54.7 54.7 0 0 1 27.12-6.63q22.85 0 36 13.36t13.12 37.91v11.26h-70.94a25 25 0 0 0 8.69 16.23q7.26 6.12 18.38 6.11 17.19 0 26.86-11.55l14.62 15.18A44 44 0 0 1 1022 193a63.32 63.32 0 0 1-25.31 4.93zm-3.39-84.88q-8.87 0-14.36 5.57t-7.05 15.91h41.38v-2.2q-.21-9.21-5.36-14.24t-14.61-5.04zm112.4 62.63c5.49 0 10-1.39 13.38-4.2a14.28 14.28 0 0 0 5.35-11.17h27.9a33.55 33.55 0 0 1-6.18 19.24 39.9 39.9 0 0 1-16.62 13.56 55.54 55.54 0 0 1-23.32 4.82q-23.88 0-37.67-14.08t-13.79-38.91v-1.81q0-23.86 13.69-38.1T1106 90.81q20.9 0 33.5 11t12.82 29.36h-27.9a18.23 18.23 0 0 0-5.35-13.1q-5.14-5-13.59-5-10.4 0-15.69 7t-5.3 22.81v2.86q0 16 5.24 22.95t15.97 6.99zm99.23-108.36v25.4h19V113h-19v51.55q0 5.73 2.36 8.22t9.06 2.48a50.56 50.56 0 0 0 8.75-.67v20.91a65.85 65.85 0 0 1-18 2.48q-31.29 0-31.91-29.31V113h-16.26V92.72h16.26v-25.4z" class="cls-1"/></svg>