<svg height="266.63" viewBox="0 0 1285.03 266.63" width="1285.03" xmlns="http://www.w3.org/2000/svg"><path d="m212.43 191.05h-29.3l-57-93.55v93.55h-29.32v-142.19h29.29l57.13 93.75v-93.75h29.2zm72.36 1.95q-23.24 0-37.84-14.25t-14.6-38v-2.75a63.68 63.68 0 0 1 6.16-28.46 45.15 45.15 0 0 1 17.43-19.34 49 49 0 0 1 25.73-6.79q21.68 0 34.13 13.68t12.45 38.76v11.55h-67.25q1.36 10.35 8.25 16.6t17.43 6.25q16.31 0 25.49-11.82l13.83 15.57a42.44 42.44 0 0 1 -17.19 14 56.32 56.32 0 0 1 -24.02 5zm-3.22-86.81a17.6 17.6 0 0 0 -13.57 5.69q-5.24 5.69-6.69 16.28h39.26v-2.26q-.19-9.41-5.08-14.56t-13.92-5.15zm102.93 10.74 17.78-31.54h30.17l-30.08 51.75 31.35 53.91h-30.27l-18.85-33.2-18.75 33.2h-30.37l31.35-53.91-30-51.75h30.27zm95.31-57.52v26h18.07v20.7h-18.07v52.73q0 5.87 2.25 8.4c1.5 1.7 4.36 2.54 8.59 2.54a45.42 45.42 0 0 0 8.3-.68v21.38a57.82 57.82 0 0 1 -17.08 2.52q-29.7 0-30.28-30v-56.91h-15.43v-20.7h15.43v-26zm114.75 81.59v50.1h-29.3v-142.24h55.47q16 0 28.18 5.86a43.3 43.3 0 0 1 18.7 16.65 46.45 46.45 0 0 1 6.54 24.56q0 20.91-14.31 33t-39.6 12.07zm0-23.73h26.17q11.63 0 17.73-5.47t6.1-15.62q0-10.45-6.15-16.9t-17-6.64h-26.85zm157.23-5.42a76.83 76.83 0 0 0 -10.16-.78q-16 0-21 10.84v69.14h-28.22v-105.66h26.66l.78 12.61q8.5-14.55 23.54-14.55a29.84 29.84 0 0 1 8.79 1.27zm5.66 25.39q0-15.72 6.06-28a44.25 44.25 0 0 1 17.43-19q11.37-6.73 26.41-6.74 21.39 0 34.92 13.09t15.08 35.55l.2 7.22q0 24.32-13.58 39t-36.42 14.64q-22.86 0-36.48-14.64t-13.62-39.85zm28.22 2q0 15.06 5.67 23t16.21 8q10.25 0 16-7.87t5.77-25.19q0-14.76-5.77-22.89t-16.21-8.11q-10.35 0-16 8.07t-5.67 25zm119.14-53.85v111.42q0 17.49-9.27 27.2t-26.76 9.72a57.8 57.8 0 0 1 -14-1.66v-22.37a52.64 52.64 0 0 0 8.89.88q12.79 0 12.79-13.57v-111.62zm-30.56-27.39a13.88 13.88 0 0 1 4.25-10.45q4.25-4.1 11.57-4.1t11.57 4.1a13.92 13.92 0 0 1 4.25 10.45 13.84 13.84 0 0 1 -4.35 10.55q-4.34 4.09-11.47 4.1t-11.48-4.1a13.87 13.87 0 0 1 -4.34-10.55zm101.27 135q-23.25 0-37.84-14.25t-14.6-38v-2.75a63.81 63.81 0 0 1 6.15-28.46 45.15 45.15 0 0 1 17.43-19.34 49 49 0 0 1 25.73-6.79q21.69 0 34.13 13.68t12.48 38.78v11.53h-67.31q1.37 10.35 8.25 16.6t17.43 6.25q16.3 0 25.49-11.82l13.87 15.57a42.31 42.31 0 0 1 -17.19 14 56.28 56.28 0 0 1 -24.02 5zm-3.23-86.81a17.61 17.61 0 0 0 -13.62 5.69q-5.22 5.69-6.69 16.28h39.26v-2.26q-.19-9.41-5.08-14.56t-13.87-5.15zm106.65 64.06q7.8 0 12.69-4.3a15 15 0 0 0 5.08-11.42h26.46a36 36 0 0 1 -5.86 19.67 38.61 38.61 0 0 1 -15.77 13.87 49.3 49.3 0 0 1 -22.12 4.93q-22.65 0-35.74-14.4t-13.08-39.8v-1.8q0-24.42 13-39t35.65-14.55q19.82 0 31.79 11.28t12.15 30h-26.46q-.2-8.23-5.08-13.4t-12.89-5.15q-9.87 0-14.89 7.19t-5 23.32v2.94q0 16.34 5 23.47t15.07 7.15zm94.14-110.84v26h18.06v20.7h-18.06v52.73c0 3.91.74 6.71 2.24 8.4s4.36 2.54 8.6 2.54a45.57 45.57 0 0 0 8.3-.68v21.38a57.89 57.89 0 0 1 -17.09 2.54q-29.7 0-30.28-30v-56.93h-15.43v-20.7h15.43v-26z" fill="#a1dbe8"/></svg>