<svg xmlns="http://www.w3.org/2000/svg" viewBox="0 0 113.05 120.67" width="113.05" height="120.67"><defs><style>.cls-1,.cls-2,.cls-3,.cls-4,.cls-5,.cls-8{fill:none}.cls-1{stroke:#97d6e4}.cls-1,.cls-2,.cls-4,.cls-5,.cls-6,.cls-7,.cls-8{stroke-linecap:round;stroke-linejoin:round}.cls-1,.cls-2,.cls-3,.cls-5,.cls-6,.cls-7,.cls-8{stroke-width:5px}.cls-2{stroke:#f6be3c}.cls-3{stroke:#88addb;stroke-miterlimit:10}.cls-4,.cls-6{stroke:#8ccba7}.cls-4{stroke-width:4.24px}.cls-5{stroke:#333735}.cls-6,.cls-7{fill:#fff}.cls-7,.cls-8{stroke:#f08a1d}</style></defs><g id="Layer_6"><path d="M21.75 68.33l5.5 6 9.25-13.25" class="cls-1"/><path d="M21.5 83.83v15h15.25l-.25-14.75s-14.75 0-15-.25zm.25-47.75v15H37l-.25-14.75s-14.75 0-15-.25z" class="cls-2"/><path d="M72.83 2.5v23.81A5.19 5.19 0 0 0 78 31.5h21.17" class="cls-3"/><path d="M93.83 23.5L77 6.66A14.15 14.15 0 0 0 67 2.5H16.69A14.19 14.19 0 0 0 2.5 16.69V104a14.19 14.19 0 0 0 14.19 14.19h68.62A14.19 14.19 0 0 0 99.5 104V35a14.15 14.15 0 0 0-4.16-10z" class="cls-3"/><path d="M76.03 98.46l-.4 19.25 19.12-10.47-18.72-8.78z" class="cls-4"/><path d="M47.75 89.42h27m-27-21.84h27M47.58 96.92h12.09m-12.09-22h12.09M47.58 48.58h12.09m-11.92-7.33h27" class="cls-5"/><path d="M91.89 73.89l3.19-6.38a4 4 0 0 1 5.38-1.78l7.9 4a4 4 0 0 1 1.71 5.47l-4.2 7.73z" class="cls-6"/><path d="M76.55 98.72l14.7-25.14 15.25 8-12.47 25.73-17.48-8.59z" class="cls-7"/><path d="M84.61 102.43l13.55-23.82" class="cls-8"/></g></svg>