<svg height="120.26" viewBox="0 0 119.66 120.26" width="119.66" xmlns="http://www.w3.org/2000/svg"><g stroke-linecap="round" stroke-linejoin="round" stroke-width="5"><path d="m102.82 22-93.28-.17c-4.35 0-7.89 3.17-7.89 7.17v8.75s-.5 64.68 0 72.42 9 8.65 9 8.65 24.49-.12 49.17-.31" fill="none" stroke="#88addb"/><path d="m59.82 118.52c22.11-.17 44.37-.38 49.33-.6 10.5-.45 9-9.11 9-9.11v-79.06c0-4.3-3.81-7.78-8.53-7.79h-6.8" fill="none" stroke="#97d6e4"/><g fill="#fff"><path d="m99.65 21.17 10.5-.34v89s-48.33-8.16-50.66 7" stroke="#f08a1d"/><path d="m59.82 23.5-1 90.42 40-20.09-.67-92.33-37.83 21.17" stroke="#8ccba7"/><path d="m59.49 116.83a6.25 6.25 0 0 0 -.38-1c-1.67-3.67-10.11-15-48.62-4.28v-90.72s34.33-6.33 49.33 2.67l-1 90.42" stroke="#f6be3c"/></g><path d="m22.57 45.25h27m-27 39.5h27m-27-14.25h27m-27-13h27m19.25 25.58 20.5-11m-20.5-3.75 20.5-11m-20.5-1.75 20.5-11m-20.5-2.5 20.5-11" fill="none" stroke="#333735"/></g></svg>