<svg xmlns="http://www.w3.org/2000/svg" viewBox="0 0 119.66 120.26" width="119.66" height="120.26"><defs><style>.cls-1,.cls-2,.cls-6{fill:none}.cls-1{stroke:#88addb}.cls-1,.cls-2,.cls-3,.cls-4,.cls-5,.cls-6{stroke-linecap:round;stroke-linejoin:round;stroke-width:5px}.cls-2{stroke:#97d6e4}.cls-3,.cls-4,.cls-5{fill:#fff}.cls-3{stroke:#f08a1d}.cls-4{stroke:#8ccba7}.cls-5{stroke:#f6be3c}.cls-6{stroke:#333735}</style></defs><g id="Layer_6"><path d="M102.82 22l-93.28-.17C5.19 21.83 1.65 25 1.65 29v8.75s-.5 64.68 0 72.42 9 8.65 9 8.65 24.49-.12 49.17-.31" class="cls-1"/><path d="M59.82 118.52c22.11-.17 44.37-.38 49.33-.6 10.5-.45 9-9.11 9-9.11V29.75c0-4.3-3.81-7.78-8.53-7.79h-6.8" class="cls-2"/><path d="M99.65 21.17l10.5-.34v89s-48.33-8.16-50.66 7" class="cls-3"/><path d="M59.82 23.5l-1 90.42 40-20.09-.67-92.33-37.83 21.17" class="cls-4"/><path d="M59.49 116.83a6.25 6.25 0 0 0-.38-1c-1.67-3.67-10.11-15-48.62-4.28V20.83s34.33-6.33 49.33 2.67l-1 90.42" class="cls-5"/><path d="M22.57 45.25h27m-27 39.5h27m-27-14.25h27m-27-13h27m19.25 25.58l20.5-11m-20.5-3.75l20.5-11m-20.5-1.75l20.5-11m-20.5-2.5l20.5-11" class="cls-6"/></g></svg>