<svg xmlns="http://www.w3.org/2000/svg" viewBox="0 0 363.54 189.72">
  <defs>
    <style>
      .cls-1 {
        fill: #3a3e3c;
      }
    </style>
  </defs>
  <title>icon</title>
  <g id="Layer_1" data-name="Layer 1">
    <g>
      <path class="cls-1" d="M28.85,98.37V147.7H0V7.69H54.62q15.76,0,27.74,5.77a42.56,42.56,0,0,1,18.42,16.4A45.73,45.73,0,0,1,107.22,54q0,20.58-14.09,32.46t-39,11.87Zm0-23.36H54.62q11.45,0,17.45-5.39t6-15.39Q78.08,44,72,37.6T55.29,31.06H28.85Z"/>
      <path class="cls-1" d="M152.56,147.7H124.67V0h27.89Z"/>
      <path class="cls-1" d="M233.77,147.7a31,31,0,0,1-2.79-9.33q-10.09,11.26-26.25,11.26-15.28,0-25.34-8.85a28.45,28.45,0,0,1-10-22.31q0-16.55,12.26-25.39T217,84.14h12.79v-6q0-7.22-3.7-11.54t-11.69-4.33q-7,0-11,3.37a11.43,11.43,0,0,0-4,9.23H171.65a27.9,27.9,0,0,1,5.58-16.73Q182.8,50.49,193,46.11a57.38,57.38,0,0,1,22.88-4.38q19.23,0,30.54,9.67t11.29,27.16v45.1q.1,14.82,4.14,22.41v1.63Zm-23-19.33a23.88,23.88,0,0,0,11.34-2.74,18,18,0,0,0,7.7-7.35V100.39H219.44q-20.87,0-22.21,14.43l-.1,1.63a11.12,11.12,0,0,0,3.66,8.56Q204.44,128.37,210.79,128.37Z"/>
      <path class="cls-1" d="M314.5,108.37l19.23-64.71h29.81l-41.83,120.2-2.31,5.48q-9.33,20.39-30.77,20.38a44,44,0,0,1-12.31-1.82V166.84l4.23.09q7.89,0,11.78-2.4t6.11-8l3.27-8.56L265.26,43.66h29.91Z"/>
    </g>
  </g>
</svg>
