<svg xmlns="http://www.w3.org/2000/svg" viewBox="0 0 1586.66 259.34">
  <defs>
    <style>
      .cls-1 {
        fill: #3a3e3c;
      }
    </style>
  </defs>
  <title>Artboard 70</title>
  <g id="Layer_1" data-name="Layer 1">
    <g>
      <path class="cls-1" d="M107.26,151.69q0-11.17-7.89-17.16T71,121.91q-20.51-6.63-32.47-13.07Q5.91,91.22,5.91,61.38a46.19,46.19,0,0,1,8.75-27.66q8.73-12.16,25.1-19T76.5,7.89Q97,7.89,113,15.31t24.91,21A54.83,54.83,0,0,1,146.82,67H107.39q0-13.14-8.28-20.44T75.84,39.3q-14.46,0-22.47,6.11a19.29,19.29,0,0,0-8,16.11q0,9.33,9.4,15.64T82.42,89q33.64,10.13,49,25.1t15.38,37.33q0,24.86-18.79,39T77.42,204.53q-22.08,0-40.22-8.09T9.53,174.29Q0,160.23,0,141.7H39.56q0,31.68,37.86,31.67,14.07,0,22-5.71T107.26,151.69Z"/>
      <path class="cls-1" d="M170.75,22.87a18.71,18.71,0,0,1,5.71-14.06Q182.19,3.29,192,3.29t15.51,5.52a18.61,18.61,0,0,1,5.78,14.06,18.66,18.66,0,0,1-5.85,14.2q-5.85,5.52-15.44,5.52t-15.45-5.52A18.65,18.65,0,0,1,170.75,22.87Zm40.35,179H173V59.68H211.1Z"/>
      <path class="cls-1" d="M236.47,129.74q0-33.26,14.92-53T292.2,57.05q20.76,0,34.31,15.51V0h38.12V201.9H330.32l-1.84-15.12q-14.21,17.75-36.54,17.75-25.11,0-40.29-19.79T236.47,129.74Zm38,2.82q0,20,7,30.68t20.24,10.66q17.63,0,24.85-14.87V102.81q-7.11-14.88-24.58-14.87Q274.45,87.94,274.45,132.56Z"/>
      <path class="cls-1" d="M459.53,204.53q-31.29,0-50.94-19.19T388.94,134.2v-3.68q0-21.42,8.28-38.31a60.8,60.8,0,0,1,23.47-26q15.18-9.14,34.63-9.13,29.19,0,45.94,18.4T518,127.63v15.51H427.46q1.83,13.94,11.1,22.35T462,173.9q21.95,0,34.3-15.9L515,178.9a57.12,57.12,0,0,1-23.14,18.86A75.9,75.9,0,0,1,459.53,204.53ZM455.19,87.67q-11.31,0-18.34,7.66t-9,21.92h52.84v-3q-.27-12.67-6.83-19.61T455.19,87.67Z"/>
      <path class="cls-1" d="M648.54,134.47V201.9H609.11V10.52h74.66q21.56,0,37.92,7.88a58.14,58.14,0,0,1,25.17,22.41q8.8,14.53,8.81,33.06,0,28.13-19.25,44.36t-53.31,16.24Zm0-31.94h35.23q15.65,0,23.86-7.36t8.21-21q0-14.05-8.28-22.74t-22.87-8.93H648.54Z"/>
      <path class="cls-1" d="M860.17,95.3a103.39,103.39,0,0,0-13.67-1q-21.56,0-28.26,14.59V201.9h-38V59.68h35.88l1.06,16.95q11.43-19.57,31.67-19.58a39.76,39.76,0,0,1,11.83,1.71Z"/>
      <path class="cls-1" d="M867.79,129.47q0-21.16,8.15-37.72a59.62,59.62,0,0,1,23.47-25.63Q914.71,57,935,57.05q28.78,0,47,17.61t20.31,47.85l.26,9.72q0,32.73-18.27,52.51t-49,19.79q-30.75,0-49.09-19.72t-18.34-53.63Zm38,2.7q0,20.28,7.62,31t21.82,10.73q13.8,0,21.56-10.6t7.75-33.89q0-19.89-7.75-30.81T935,87.67q-13.94,0-21.56,10.86T905.78,132.17Z"/>
      <path class="cls-1" d="M1066.14,59.68v150q0,23.53-12.49,36.61t-36,13.08a77.27,77.27,0,0,1-18.8-2.24V227a71.34,71.34,0,0,0,12,1.19q17.22,0,17.22-18.27V59.68ZM1025,22.87a18.71,18.71,0,0,1,5.72-14.06q5.71-5.52,15.57-5.52t15.58,5.52a18.71,18.71,0,0,1,5.72,14.06,18.66,18.66,0,0,1-5.85,14.2q-5.85,5.52-15.45,5.52t-15.44-5.52A18.66,18.66,0,0,1,1025,22.87Z"/>
      <path class="cls-1" d="M1161.31,204.53q-31.29,0-50.94-19.19t-19.65-51.14v-3.68q0-21.42,8.28-38.31a60.78,60.78,0,0,1,23.46-26q15.19-9.14,34.64-9.13,29.18,0,45.94,18.4t16.76,52.18v15.51h-90.57q1.85,13.94,11.11,22.35t23.46,8.41q22,0,34.31-15.9l18.67,20.9a57.12,57.12,0,0,1-23.14,18.86A75.93,75.93,0,0,1,1161.31,204.53ZM1157,87.67q-11.31,0-18.34,7.66t-9,21.92h52.84v-3q-.27-12.67-6.84-19.61T1157,87.67Z"/>
      <path class="cls-1" d="M1300.51,173.9q10.5,0,17.08-5.78t6.84-15.38h35.62a48.71,48.71,0,0,1-7.89,26.48,52.06,52.06,0,0,1-21.22,18.67,66.56,66.56,0,0,1-29.78,6.64q-30.5,0-48.11-19.39t-17.61-53.56v-2.5q0-32.87,17.48-52.45t48-19.58q26.68,0,42.78,15.18t16.37,40.42h-35.62q-.27-11.1-6.84-18t-17.35-6.94q-13.27,0-20,9.68t-6.77,31.4v3.94q0,22,6.7,31.6T1300.51,173.9Z"/>
      <path class="cls-1" d="M1427.22,24.71v35h24.31V87.54h-24.31v71q0,7.89,3,11.31t11.57,3.41a60,60,0,0,0,11.17-.92v28.79a78.17,78.17,0,0,1-23,3.42q-40,0-40.75-40.36V87.54h-20.77V59.68h20.77v-35Z"/>
      <path class="cls-1" d="M1549.72,162.6q0-7-6.9-11t-22.15-7.16q-50.73-10.65-50.73-43.12,0-18.93,15.7-31.61t41.08-12.68q27.08,0,43.31,12.75t16.23,33.12h-38A18.4,18.4,0,0,0,1543,89.45q-5.26-5.33-16.43-5.33-9.6,0-14.85,4.34a13.67,13.67,0,0,0-5.26,11q0,6.31,6,10.19t20.18,6.7a165.28,165.28,0,0,1,23.92,6.38q30.09,11,30.1,38.25,0,19.46-16.69,31.48t-43.12,12q-17.88,0-31.74-6.38t-21.76-17.48a40.68,40.68,0,0,1-7.88-24h36q.52,10.13,7.5,15.51t18.66,5.39q10.9,0,16.5-4.14A12.88,12.88,0,0,0,1549.72,162.6Z"/>
    </g>
  </g>
</svg>
