<svg viewBox="0 0 1350.74 239.31" xmlns="http://www.w3.org/2000/svg"><g fill="#3a3e3c"><path d="m209.77 135q0-7.77-5.48-11.93t-19.73-8.77a139.73 139.73 0 0 1 -22.56-9.12q-22.67-12.25-22.66-33a32 32 0 0 1 6.08-19.18q6.06-8.46 17.44-13.2a65.68 65.68 0 0 1 25.54-4.8 59.77 59.77 0 0 1 25.39 5.17 40.53 40.53 0 0 1 17.32 14.57 38.12 38.12 0 0 1 6.16 21.37h-27.41q0-9.12-5.75-14.2t-16.17-5.07q-10 0-15.62 4.25a13.38 13.38 0 0 0 -5.57 11.19q0 6.48 6.53 10.87t19.23 8.22q23.38 7 34.07 17.45t10.69 25.94q0 17.26-13.06 27.09t-35.21 9.83a67.86 67.86 0 0 1 -28-5.62q-12.6-5.61-19.23-15.39a39.47 39.47 0 0 1 -6.54-22.67h27.5q0 22 26.31 22 9.77 0 15.25-4a12.92 12.92 0 0 0 5.48-11z"/><path d="m252 45.43a13 13 0 0 1 4-9.78q4-3.82 10.83-3.83t10.78 3.83a12.94 12.94 0 0 1 4 9.78 13 13 0 0 1 -4.07 9.87q-4.06 3.83-10.73 3.83t-10.72-3.83a13 13 0 0 1 -4.09-9.87zm28 124.42h-26.42v-98.85h26.49z"/><path d="m295.83 119.7q0-23.11 10.37-36.82t28.37-13.7a30.29 30.29 0 0 1 23.84 10.82v-50.47h26.49v140.32h-23.84l-1.28-10.5q-9.87 12.33-25.4 12.33-17.44 0-28-13.75t-10.55-38.23zm26.4 2q0 13.9 4.85 21.31t14.06 7.42q12.24 0 17.27-10.34v-39.09q-4.94-10.33-17.08-10.34-19.09-.01-19.1 31.01z"/><path d="m449 171.68q-21.74 0-35.4-13.34t-13.66-35.53v-2.56a59.64 59.64 0 0 1 5.76-26.63 42.2 42.2 0 0 1 16.3-18.09 45.76 45.76 0 0 1 24.07-6.35q20.28 0 31.93 12.82t11.64 36.27v10.73h-62.94a24.55 24.55 0 0 0 7.72 15.53q6.43 5.85 16.31 5.85 15.25 0 23.84-11.06l13 14.53a39.7 39.7 0 0 1 -16.11 13.15 52.84 52.84 0 0 1 -22.46 4.68zm-3-81.21a16.5 16.5 0 0 0 -12.75 5.32q-4.91 5.33-6.25 15.21h36.7v-2.11q-.18-8.8-4.75-13.63t-12.95-4.79z"/><path d="m576.62 123v46.86h-27.41v-133h51.89q15 0 26.36 5.48a40.43 40.43 0 0 1 17.54 15.56 43.43 43.43 0 0 1 6.12 23q0 19.56-13.38 30.84t-37.1 11.26zm0-22.2h24.48q10.88 0 16.58-5.12t5.71-14.61q0-9.78-5.76-15.81t-15.89-6.26h-25.12z"/><path d="m721.83 95.77a71.49 71.49 0 0 0 -9.5-.74q-15 0-19.65 10.15v64.67h-26.4v-98.85h24.94l.78 11.79q7.95-13.61 22-13.61a27.73 27.73 0 0 1 8.22 1.19z"/><path d="m725.25 119.52a58.55 58.55 0 0 1 5.67-26.22 41.52 41.52 0 0 1 16.3-17.82q10.65-6.3 24.71-6.3 20 0 32.66 12.24t14.12 33.26l.18 6.76q0 22.74-12.7 36.49t-34.07 13.75q-21.37 0-34.12-13.7t-12.75-37.27zm26.4 1.87q0 14.1 5.3 21.55t15.17 7.46q9.58 0 15-7.37t5.39-23.56q0-13.81-5.39-21.41t-15.17-7.59q-9.67 0-15 7.54t-5.3 23.38z"/><path d="m861.24 71v104.24q0 16.35-8.68 25.45t-25 9.09a53.48 53.48 0 0 1 -13.07-1.56v-20.92a49.39 49.39 0 0 0 8.32.82q12 0 12-12.69v-104.43zm-28.6-25.58a13 13 0 0 1 4-9.78q4-3.82 10.82-3.83t10.83 3.83a13 13 0 0 1 4 9.78 12.94 12.94 0 0 1 -4.07 9.87q-4 3.83-10.73 3.83t-10.78-3.82a13 13 0 0 1 -4.07-9.87z"/><path d="m925.5 171.68q-21.74 0-35.4-13.34t-13.65-35.53v-2.56a59.78 59.78 0 0 1 5.75-26.63 42.26 42.26 0 0 1 16.31-18.09 45.79 45.79 0 0 1 24.07-6.35q20.28 0 31.93 12.79t11.65 36.27v10.76h-62.95q1.29 9.67 7.72 15.53t16.31 5.85q15.25 0 23.84-11.06l13 14.53a39.7 39.7 0 0 1 -16.08 13.15 52.85 52.85 0 0 1 -22.5 4.68zm-3-81.21a16.47 16.47 0 0 0 -12.74 5.32q-4.89 5.33-6.26 15.23h36.72v-2.11q-.18-8.8-4.75-13.63t-12.98-4.81z"/><path d="m1020.38 150.4q7.3 0 11.87-4a14.07 14.07 0 0 0 4.75-10.69h24.76a33.85 33.85 0 0 1 -5.48 18.4 36.15 36.15 0 0 1 -14.75 13 46.27 46.27 0 0 1 -20.69 4.61q-21.2 0-33.44-13.47t-12.24-37.25v-1.74q0-22.83 12.15-36.45t33.34-13.61q18.55 0 29.74 10.55t11.37 28.09h-24.76q-.18-7.71-4.75-12.53t-12-4.82q-9.24 0-13.94 6.72t-4.7 21.82v2.75q0 15.28 4.66 22t14.11 6.62z"/><path d="m1106.57 46.71v24.29h16.9v19.38h-16.9v49.33q0 5.47 2.1 7.85t8 2.38a41.76 41.76 0 0 0 7.77-.64v20a54.5 54.5 0 0 1 -16 2.37q-27.77 0-28.32-28v-53.29h-14.43v-19.38h14.43v-24.29z"/><path d="m1189.84 142.54q0-4.84-4.79-7.63t-15.4-5q-35.26-7.4-35.26-30 0-13.15 10.92-22t28.55-8.82q18.81 0 30.1 8.86a27.93 27.93 0 0 1 11.28 23h-26.4a12.77 12.77 0 0 0 -3.66-9.36q-3.65-3.7-11.41-3.7-6.68 0-10.33 3a9.5 9.5 0 0 0 -3.65 7.67 8.14 8.14 0 0 0 4.15 7.08q4.17 2.7 14 4.66a113.47 113.47 0 0 1 16.62 4.43q20.92 7.67 20.92 26.58 0 13.53-11.6 21.88t-30 8.36a52.28 52.28 0 0 1 -22.06-4.43 36.9 36.9 0 0 1 -15.12-12.15 28.19 28.19 0 0 1 -5.48-16.67h25q.36 7 5.2 10.78t13 3.74q7.57 0 11.46-2.88a8.93 8.93 0 0 0 3.96-7.4z"/></g></svg>