<svg xmlns="http://www.w3.org/2000/svg" viewBox="0 0 444.98 186.91">
  <defs>
    <style>
      .cls-1 {
        fill: #3a3e3c;
      }
    </style>
  </defs>
  <title>icon</title>
  <g id="Layer_1" data-name="Layer 1">
    <g>
      <path class="cls-1" d="M118.08,107.22,136.91,7.69h28.72l-31,139.88h-29L82.82,54,60.05,147.57H31L0,7.69H28.73L47.65,107,70.71,7.69h24.4Z"/>
      <path class="cls-1" d="M165.21,94.63q0-15.47,6-27.57a43.49,43.49,0,0,1,17.15-18.73q11.19-6.63,26-6.63,21,0,34.35,12.87t14.84,35l.19,7.11q0,23.92-13.35,38.38t-35.84,14.46q-22.47,0-35.88-14.41t-13.4-39.2Zm27.76,2q0,14.82,5.58,22.66t15.94,7.85q10.09,0,15.76-7.75t5.67-24.78q0-14.52-5.67-22.51t-15.95-8q-10.19,0-15.75,7.94T193,96.6Z"/>
      <path class="cls-1" d="M337.23,69.65a75.71,75.71,0,0,0-10-.76q-15.75,0-20.66,10.66v68H278.82V43.62h26.23L305.82,56Q314.17,41.7,329,41.7A28.9,28.9,0,0,1,337.62,43Z"/>
      <path class="cls-1" d="M386.37,105.87l-10,10v31.7H348.62V0h27.76V81.76l5.38-6.92,26.62-31.22h33.33L404.15,87,445,147.57h-31.9Z"/>
    </g>
  </g>
</svg>
